<svg width="161" height="102" viewBox="0 0 161 102" fill="none" xmlns="http://www.w3.org/2000/svg">
<rect width="161" height="102" fill="#E6E6E6"/>
<rect width="375" height="812" transform="translate(-107 -980.051)" fill="url(#paint0_linear_687_2768)"/>
<g filter="url(#filter0_d_687_2768)">
<mask id="path-2-inside-1_687_2768" fill="white">
<path d="M-87 -21.9345C-87 -32.9802 -78.0457 -41.9346 -67 -41.9346H228C239.046 -41.9346 248 -32.9803 248 -21.9346V352.947C248 363.992 239.046 372.947 228 372.947H-67C-78.0457 372.947 -87 363.992 -87 352.947V-21.9345Z"/>
</mask>
<path d="M-87 -21.9345C-87 -32.9802 -78.0457 -41.9346 -67 -41.9346H228C239.046 -41.9346 248 -32.9803 248 -21.9346V352.947C248 363.992 239.046 372.947 228 372.947H-67C-78.0457 372.947 -87 363.992 -87 352.947V-21.9345Z" fill="#F4F8FC"/>
<g filter="url(#filter1_i_687_2768)">
<g clip-path="url(#clip0_687_2768)">
<rect x="-68" y="-23.9346" width="297" height="125.881" rx="16" fill="#C6E1EC"/>
<mask id="mask0_687_2768" style="mask-type:alpha" maskUnits="userSpaceOnUse" x="-68" y="-24" width="297" height="126">
<rect x="-68" y="-23.9346" width="297" height="125.881" rx="16" fill="#A4DAAD"/>
</mask>
<g mask="url(#mask0_687_2768)">
<path d="M50.8948 24.581C50.8948 24.581 48.0243 13.3803 49.7231 7.74479C51.422 2.10927 55.88 4.81573 55.88 4.81573C55.88 4.81573 53.9703 -5.27197 65.5811 -3.86602C77.1919 -2.46007 89.5994 -1.39975 93.8466 -5.27197C98.0937 -9.14419 104.21 9.29719 97.0802 24.6045C89.9509 39.9118 53.3318 45.9925 50.8948 24.581Z" fill="#5C5C5C"/>
<path d="M100.226 6.21554C98.158 12.9524 92.3819 11.9682 85.5221 5.40712C78.6622 -1.15398 69.629 0.632743 65.6044 3.99531C63.2548 5.9858 60.3428 7.19399 57.2742 7.4516C57.0398 11.1481 54.6966 15.6061 52.2655 15.899C49.8343 16.1919 49.2075 12.8528 49.2075 12.8528C49.3963 16.8045 49.9692 20.7284 50.9181 24.5691C53.3551 45.9805 89.9801 39.8529 97.1036 24.5691C99.6889 18.8165 100.764 12.4994 100.226 6.21554Z" fill="#505050"/>
<path d="M120.22 102C118.862 98.3964 117.179 94.9239 115.193 91.6249C106.406 77.0323 90.4194 68.3154 73.3839 68.3154C56.3544 68.3154 40.3675 77.0323 31.5803 91.6249C29.6104 94.9256 27.9438 98.398 26.6009 102C14.9433 132.901 12.1489 217.358 12.1489 217.358H134.672C134.672 217.358 131.877 132.901 120.22 102Z" fill="#666666"/>
<path d="M72.6113 109.667C73.4474 109.519 74.2607 109.263 75.0307 108.905C78.3112 107.148 77.1572 96.4745 75.3119 92.5788C74.3804 90.6105 72.9686 90.2356 71.8263 90.2883L70.9358 68.3789C70.2797 68.4141 69.6295 68.4551 68.9734 68.5136L69.8052 87.9392C69.6178 86.3516 69.0202 84.7758 67.3331 85.0687C64.0643 85.6545 63.9178 91.2666 63.9178 91.2666C59.1901 91.7618 54.7863 93.9014 51.4751 97.3122C44.006 104.998 29.9934 119.901 19.2555 134.218C17.457 146.087 16.0745 158.992 15.0317 171.019C22.2841 170.633 29.062 161.318 38.804 147.393C46.5547 136.455 53.5612 125.008 59.7761 113.129C60.1445 112.415 60.6939 111.811 61.3693 111.376C62.0448 110.941 62.8226 110.691 63.6249 110.651C65.8276 110.534 68.4813 110.329 70.7484 109.995L71.715 132.561L73.5251 132.168L72.6113 109.667ZM69.7935 90.921C69.7935 90.921 69.8638 90.3352 69.8755 89.597L69.9282 90.8448L69.7935 90.921Z" fill="#020202" fill-opacity="0.59"/>
<path d="M55.8627 71.5361C55.8627 71.5361 26.9235 79.1986 14.27 111.371C1.6164 143.544 0.210449 153.421 0.210449 153.421L20.2921 156.239C35.0839 93.797 55.8627 71.5361 55.8627 71.5361Z" fill="#666666"/>
<path d="M90.9585 71.5361C90.9585 71.5361 119.898 79.1986 132.551 111.371C145.205 143.544 146.611 153.421 146.611 153.421L126.552 156.233C111.737 93.797 90.9585 71.5361 90.9585 71.5361Z" fill="#666666"/>
<path fill-rule="evenodd" clip-rule="evenodd" d="M87.4453 69.9413C87.6797 69.8967 87.9058 70.0505 87.9504 70.2849C88.3581 72.4278 88.2887 74.6341 87.7472 76.7471C87.2056 78.8601 86.2051 80.8279 84.8169 82.5104C83.4287 84.193 81.6869 85.549 79.7152 86.4821C77.7436 87.4152 75.5906 87.9025 73.4093 87.9092L73.4064 87.9092C71.2255 87.9014 69.073 87.4135 67.1019 86.48C65.1308 85.5466 63.3895 84.1906 62.0015 82.5083C60.6135 80.8261 59.613 78.8588 59.071 76.7463C58.529 74.6338 58.4588 72.4278 58.8654 70.2851C58.9099 70.0507 59.136 69.8968 59.3704 69.9412C59.6048 69.9857 59.7588 70.2118 59.7143 70.4462C59.3313 72.4643 59.3974 74.5419 59.9079 76.5316C60.4184 78.5212 61.3607 80.3741 62.6679 81.9585C63.9752 83.5429 65.6153 84.82 67.4717 85.6992C69.3277 86.5781 71.3544 87.0377 73.4079 87.0453C75.4618 87.0387 77.4891 86.5798 79.3456 85.7012C81.2026 84.8224 82.8431 83.5452 84.1505 81.9606C85.4579 80.3759 86.4002 78.5227 86.9102 76.5326C87.4203 74.5426 87.4857 72.4646 87.1017 70.4464C87.0571 70.212 87.2109 69.9859 87.4453 69.9413Z" fill="white" fill-opacity="0.97"/>
<path d="M81.8665 52.9775H64.9541C65.0627 58.8268 64.6233 64.6733 63.6419 70.4406C63.3661 71.8793 63.4112 73.3612 63.7738 74.7805C64.1364 76.1998 64.8077 77.5216 65.7398 78.6517C66.6719 79.7819 67.8418 80.6924 69.1661 81.3186C70.4905 81.9447 71.9366 82.2709 73.4015 82.274C74.8669 82.2718 76.3138 81.9462 77.6388 81.3204C78.9639 80.6947 80.1346 79.7842 81.0673 78.654C82 77.5238 82.6718 76.2016 83.0347 74.7819C83.3977 73.3622 83.4429 71.8798 83.167 70.4406C82.1895 64.6729 81.7541 58.8264 81.8665 52.9775Z" fill="#FFCBAA"/>
<path d="M64.8896 58.6482C67.5288 59.9923 70.4486 60.693 73.4103 60.693C76.372 60.693 79.2918 59.9923 81.9309 58.6482C81.8548 56.7736 81.8431 55.2505 81.8489 54.2488C81.8489 53.452 81.8489 52.9717 81.8489 52.9717H64.9541C64.9541 52.9717 64.9541 53.4462 64.9541 54.237C64.9775 55.2388 64.9658 56.7677 64.8896 58.6482Z" fill="#965425" fill-opacity="0.73"/>
<path d="M94.0511 26.3774C94.4102 25.6207 95.0199 25.0114 95.7768 24.6526C96.5338 24.2939 97.3914 24.2079 98.2045 24.409C100.993 24.9245 101.643 29.1893 100.548 31.9191C99.4523 34.649 95.9784 37.2735 93.1372 35.2817L94.0511 26.3774Z" fill="#FFCBAA"/>
<path d="M95.6273 28.1115C95.6971 27.899 95.8103 27.7032 95.9596 27.5366C96.109 27.37 96.2913 27.2362 96.495 27.1437C96.6988 27.0512 96.9195 27.002 97.1432 26.9992C97.367 26.9963 97.5888 27.04 97.7948 27.1274C99.8627 27.7542 99.7983 33.5713 95.0767 32.8742" stroke="#965425" stroke-opacity="0.73" stroke-width="2" stroke-miterlimit="10" stroke-linecap="round"/>
<path d="M52.7698 26.3777C52.4098 25.6162 51.7963 25.0035 51.0344 24.6444C50.2724 24.2853 49.4094 24.2023 48.5929 24.4094C45.8044 24.9249 45.1542 29.1896 46.2497 31.9195C47.3451 34.6494 50.819 37.2738 53.6543 35.2821L52.7698 26.3777Z" fill="#FFCBAA"/>
<path d="M51.1945 28.1115C51.1247 27.899 51.0115 27.7032 50.8622 27.5366C50.7128 27.37 50.5305 27.2362 50.3267 27.1437C50.123 27.0512 49.9023 27.002 49.6786 26.9992C49.4548 26.9963 49.233 27.04 49.027 27.1274C46.959 27.7542 47.0176 33.5713 51.7451 32.8742" stroke="#965425" stroke-opacity="0.73" stroke-width="2" stroke-miterlimit="10" stroke-linecap="round"/>
<path d="M94.5736 25.666C94.5736 24.3421 94.5092 23.0943 94.392 21.9051C91.791 -3.44885 55.0312 -3.44885 52.4302 21.9051C52.303 23.1547 52.2405 24.41 52.2428 25.666C52.2428 25.666 51.8268 57.3351 73.4082 57.3351C94.9895 57.3351 94.5736 25.666 94.5736 25.666Z" fill="#FFCBAA"/>
<path d="M52.2423 25.5689C52.2423 25.5689 69.5003 23.1553 69.5003 5.78013C69.5003 5.78013 76.3777 25.5689 94.5965 25.5689C94.5965 25.5689 97.0569 13.2024 97.1331 12.681C97.2093 12.1596 96.6703 8.66233 95.0945 6.71743C93.5186 4.77254 92.6341 1.77317 88.7618 1.77317C84.8896 1.77317 77.7017 0.537109 74.7726 0.537109C71.8436 0.537109 62.9744 0.712853 62.5819 1.41583C62.1894 2.1188 55.8743 7.74846 55.8743 7.74846L50.7543 14.9657C50.7543 14.9657 49.8756 22.9737 52.2423 25.5689Z" fill="#5C5C5C"/>
<path d="M100.226 6.21945C98.158 12.9563 92.3819 11.9721 85.5221 5.41102C78.6622 -1.15008 69.629 0.63665 65.6044 3.99921C63.2548 5.98971 60.3428 7.19789 57.2742 7.45551C57.0398 11.152 54.6966 15.61 52.2655 15.9029C49.8343 16.1958 49.2075 12.8567 49.2075 12.8567C49.3963 16.8084 49.9692 20.7323 50.9181 24.573C53.3551 45.9844 89.9801 39.8568 97.1036 24.573C99.6889 18.8204 100.764 12.5033 100.226 6.21945Z" fill="#505050"/>
<path d="M73.9875 26.71C73.9875 26.71 74.9072 31.0157 70.9706 32.6325C67.4557 34.0678 70.7948 36.6512 74.5499 36.493" stroke="#965425" stroke-opacity="0.73" stroke-width="2" stroke-miterlimit="10" stroke-linecap="round"/>
<path d="M67.0982 22.4274C66.1712 21.7412 65.0552 21.3573 63.9022 21.328C62.7491 21.2986 61.6151 21.6253 60.6543 22.2634" stroke="#505050" stroke-width="2" stroke-miterlimit="10" stroke-linecap="round"/>
<path d="M79.7227 22.4265C80.6497 21.7403 81.7657 21.3564 82.9187 21.327C84.0718 21.2977 85.2058 21.6243 86.1666 22.2624" stroke="#505050" stroke-width="2" stroke-miterlimit="10" stroke-linecap="round"/>
<path d="M64.0869 24.3193C62.8567 24.3193 61.855 25.737 61.855 27.4769C61.855 29.2167 62.8567 30.6344 64.0869 30.6344C65.3171 30.6344 66.313 29.2226 66.313 27.4769C66.313 25.7311 65.3171 24.3193 64.0869 24.3193Z" fill="#505050"/>
<path d="M82.7334 24.3193C83.9636 24.3193 84.9595 25.737 84.9595 27.4769C84.9595 29.2167 83.9636 30.6344 82.7334 30.6344C81.5032 30.6344 80.5015 29.2226 80.5015 27.4769C80.5015 25.7311 81.5032 24.3193 82.7334 24.3193Z" fill="#505050"/>
<path d="M67.2793 49.6582L70.6594 128.62L72.4696 128.222L69.3296 50.8123L67.2793 49.6582Z" fill="#9CC298"/>
<path d="M93.1552 26.6808C93.1573 25.507 93.1006 24.3339 92.9853 23.1659C90.5893 -0.518513 56.2607 -0.518513 53.8354 23.1718C53.7181 24.3397 53.6594 25.5128 53.6597 26.6866C53.6597 26.6866 53.2731 56.235 73.4074 56.235C93.5418 56.235 93.1552 26.6808 93.1552 26.6808Z" fill="url(#paint1_linear_687_2768)"/>
<path d="M92.1876 26.8843C92.1896 25.7681 92.1357 24.6524 92.0261 23.5415C89.7474 1.01649 57.0992 1.01649 54.7926 23.5471C54.681 24.6579 54.6252 25.7735 54.6255 26.8899C54.6255 26.8899 54.2578 54.9918 73.4066 54.9918C92.5553 54.9918 92.1876 26.8843 92.1876 26.8843Z" fill="white" fill-opacity="0.3"/>
<path d="M60.6534 27.839C60.5764 27.2168 60.5962 26.5864 60.712 25.9702C60.8159 25.3307 61.0257 24.713 61.333 24.1425C61.6655 23.5172 62.1388 22.9777 62.7155 22.5667C63.3458 22.1426 64.0882 21.916 64.8479 21.916C65.6075 21.916 66.35 22.1426 66.9802 22.5667C67.557 22.9777 68.0302 23.5172 68.3627 24.1425C68.67 24.7135 68.8818 25.3309 68.9896 25.9702C69.1006 26.587 69.1184 27.2169 69.0423 27.839C68.5513 26.7936 67.9378 25.8103 67.2145 24.9099C66.9008 24.5368 66.5241 24.2215 66.1015 23.9785C65.715 23.7748 65.2847 23.6683 64.8479 23.6683C64.411 23.6683 63.9807 23.7748 63.5942 23.9785C63.1672 24.2225 62.7865 24.5398 62.4695 24.9158C61.7526 25.8163 61.1432 26.7973 60.6534 27.839Z" fill="black" fill-opacity="0.72"/>
<path d="M86.1656 27.8389C85.6745 26.7949 85.063 25.8119 84.3437 24.9098C84.0279 24.5365 83.6493 24.2213 83.2248 23.9784C82.8384 23.7747 82.4081 23.6683 81.9712 23.6683C81.5343 23.6683 81.104 23.7747 80.7176 23.9784C80.2941 24.2202 79.9172 24.5356 79.6045 24.9098C78.8813 25.8102 78.2677 26.7935 77.7768 27.8389C77.7007 27.2168 77.7184 26.5869 77.8295 25.9701C77.9382 25.331 78.1499 24.7137 78.4563 24.1424C78.7888 23.5171 79.2621 22.9776 79.8388 22.5666C80.4705 22.1462 81.2124 21.9219 81.9712 21.9219C82.73 21.9219 83.4719 22.1462 84.1036 22.5666C84.6787 22.9777 85.1501 23.5172 85.4802 24.1424C85.7867 24.7137 85.9983 25.331 86.107 25.9701C86.2229 26.5863 86.2426 27.2167 86.1656 27.8389Z" fill="black" fill-opacity="0.72"/>
<path d="M62.5693 34.3359C62.8968 37.0892 64.1949 39.6356 66.2306 41.518C68.1946 43.305 70.7545 44.2952 73.4097 44.2952C76.065 44.2952 78.6249 43.305 80.5889 41.518C82.6207 39.6334 83.9164 37.0878 84.2443 34.3359C84.4151 35.808 84.2629 37.2995 83.7986 38.7068C83.3342 40.1141 82.5687 41.4032 81.5555 42.4846C80.5233 43.6067 79.271 44.5041 77.8766 45.1208C76.4632 45.7246 74.9438 46.0412 73.4068 46.0522C71.8711 46.0421 70.353 45.7233 68.9429 45.1149C67.5477 44.5024 66.2949 43.6067 65.264 42.4846C64.252 41.4022 63.487 40.1131 63.0217 38.7062C62.5565 37.2993 62.4021 35.8083 62.5693 34.3359Z" fill="black" fill-opacity="0.72"/>
<path fill-rule="evenodd" clip-rule="evenodd" d="M73.8964 26.286C74.1298 26.2361 74.3593 26.3849 74.4091 26.6182L73.9867 26.7084C74.4091 26.6182 74.4092 26.6184 74.4092 26.6186L74.4094 26.6192L74.4096 26.6206L74.4105 26.6245L74.413 26.6371C74.4151 26.6475 74.4178 26.662 74.4211 26.6803C74.4278 26.717 74.4366 26.7691 74.4461 26.8349C74.4651 26.9664 74.487 27.1533 74.5002 27.3816C74.5264 27.8369 74.5182 28.4647 74.3776 29.1502C74.0941 30.5332 73.2663 32.1548 71.1339 33.0306L71.1331 33.0309C70.294 33.3736 70.0024 33.7324 69.9344 33.9775C69.8737 34.196 69.9509 34.4918 70.3276 34.8427C71.0845 35.5476 72.7324 36.1357 74.5309 36.0599C74.7693 36.0499 74.9706 36.235 74.9807 36.4733C74.9907 36.7117 74.8056 36.9131 74.5672 36.9231C72.6107 37.0055 70.7115 36.381 69.7387 35.4749C69.2506 35.0203 68.9174 34.411 69.1019 33.7464C69.2789 33.1085 69.8879 32.6062 70.8061 32.2312C72.61 31.4901 73.2906 30.1505 73.5313 28.9766C73.6529 28.3835 73.6608 27.8339 73.6376 27.4313C73.6261 27.2307 73.6069 27.0686 73.591 26.9584C73.583 26.9033 73.5759 26.8613 73.571 26.8341C73.5685 26.8205 73.5666 26.8106 73.5654 26.8046L73.5642 26.7987L73.5642 26.7986L73.5642 26.7983C73.5145 26.5651 73.6632 26.3358 73.8964 26.286Z" fill="black" fill-opacity="0.72"/>
<path d="M74.2571 88.6355C72.4118 84.7398 68.7387 86.9659 68.7387 86.9659C68.7387 86.9659 69.5413 80.5571 66.2783 81.1078C63.0154 81.6584 62.863 87.3525 62.863 87.3525C58.1376 87.843 53.7342 89.9763 50.4204 93.3806C35.324 108.905 -6.52061 153.954 5.99821 164.012C16.8182 172.705 24.5743 162.29 37.7434 143.468C45.495 132.531 52.5035 121.085 58.7214 109.209C59.09 108.496 59.6396 107.892 60.3151 107.458C60.9906 107.025 61.7682 106.776 62.5701 106.737C66.5537 106.52 71.99 106.046 73.9759 104.98C77.2565 103.216 76.1024 92.5311 74.2571 88.6355Z" fill="#FFCBAA"/>
<path d="M57.0752 112.313C57.661 111.224 58.2097 110.179 58.7213 109.179C59.051 108.547 59.5246 108.001 60.1039 107.586L57.0752 97.627V112.319V112.313Z" fill="#965425" fill-opacity="0.73"/>
<path fill-rule="evenodd" clip-rule="evenodd" d="M74.9718 89.2422C75.005 89.4784 74.8403 89.6968 74.604 89.73L70.7201 90.2748C70.4838 90.3079 70.2654 90.1432 70.2323 89.907C70.1991 89.6707 70.3638 89.4523 70.6001 89.4192L74.484 88.8744C74.7203 88.8412 74.9387 89.0059 74.9718 89.2422Z" fill="#965425" fill-opacity="0.73"/>
<path fill-rule="evenodd" clip-rule="evenodd" d="M75.9264 93.1797C75.9595 93.4159 75.7949 93.6343 75.5586 93.6675L71.6747 94.2123C71.4384 94.2454 71.22 94.0807 71.1869 93.8445C71.1537 93.6082 71.3184 93.3898 71.5547 93.3567L75.4386 92.8119C75.6749 92.7787 75.8933 92.9434 75.9264 93.1797Z" fill="#965425" fill-opacity="0.73"/>
<path fill-rule="evenodd" clip-rule="evenodd" d="M76.4653 97.5616C76.499 97.7978 76.3348 98.0165 76.0986 98.0501L72.2322 98.6008C71.996 98.6345 71.7773 98.4702 71.7436 98.2341C71.71 97.9979 71.8742 97.7791 72.1104 97.7455L75.9768 97.1948C76.213 97.1612 76.4317 97.3254 76.4653 97.5616Z" fill="#965425" fill-opacity="0.73"/>
<path fill-rule="evenodd" clip-rule="evenodd" d="M76.1314 101.778C76.1651 102.014 76.0009 102.233 75.7647 102.267L72.2323 102.771C71.9961 102.804 71.7773 102.64 71.7436 102.404C71.71 102.168 71.8741 101.949 72.1103 101.915L75.6428 101.412C75.879 101.378 76.0977 101.542 76.1314 101.778Z" fill="#965425" fill-opacity="0.73"/>
<path d="M138.311 97.9307C138.311 97.9307 111.281 190.934 130.455 194.338C144.128 196.769 146.723 188.122 149.201 155.088C151.989 117.854 149.927 98.8504 149.927 98.8504L138.311 97.9307Z" fill="#FFCBAA"/>
<path d="M145.399 80.0827C145.399 80.0827 143.858 75.3552 141.75 74.3827C140.83 73.9609 134.064 74.5585 134.327 77.0657C134.591 79.573 141.662 81.0258 141.662 81.0258L145.399 80.0827Z" fill="#965425" fill-opacity="0.73"/>
<path d="M134.322 50.957L137.702 129.919L139.512 129.52L136.372 52.1111L134.322 50.957Z" fill="#B63EFF"/>
<path d="M160.789 27.9803C160.789 26.8065 160.731 25.6334 160.613 24.4655C158.188 0.781045 123.889 0.781045 121.463 24.4655C121.348 25.6335 121.291 26.8066 121.294 27.9803C121.294 27.9803 120.901 57.5229 141.041 57.5229C161.182 57.5229 160.789 27.9803 160.789 27.9803Z" fill="url(#paint2_linear_687_2768)"/>
<path d="M158.897 28.2487C158.898 27.1551 158.843 26.0621 158.733 24.974C156.472 2.85372 124.44 2.85372 122.173 24.974C122.065 26.0622 122.012 27.1552 122.015 28.2487C122.015 28.2487 121.646 55.8463 140.456 55.8463C159.267 55.8463 158.897 28.2487 158.897 28.2487Z" fill="white" fill-opacity="0.3"/>
<path d="M153.209 24.085C153.293 25.4815 152.9 26.8653 152.096 28.0099C151.648 28.6211 151.067 29.122 150.397 29.4744C149.706 29.8249 148.942 30.0075 148.168 30.0075C147.393 30.0075 146.629 29.8249 145.939 29.4744C145.266 29.1253 144.684 28.6238 144.24 28.0099C143.43 26.8678 143.037 25.4822 143.127 24.085C143.672 25.2022 144.399 26.2216 145.277 27.1019C145.678 27.4657 146.14 27.7571 146.642 27.963L147.005 28.0919L147.415 28.1857C147.672 28.231 147.933 28.2584 148.194 28.2677C148.717 28.2652 149.235 28.168 149.723 27.9806C150.225 27.7761 150.687 27.4845 151.088 27.1195C151.958 26.2327 152.675 25.2072 153.209 24.085Z" fill="black" fill-opacity="0.72"/>
<path d="M137.784 24.085C137.868 25.4815 137.475 26.8653 136.671 28.0099C136.223 28.6211 135.642 29.122 134.972 29.4744C134.281 29.8249 133.517 30.0075 132.743 30.0075C131.968 30.0075 131.205 29.8249 130.514 29.4744C129.841 29.1253 129.259 28.6238 128.815 28.0099C128.005 26.8678 127.612 25.4822 127.702 24.085C128.243 25.2056 128.965 26.2289 129.84 27.1136C130.242 27.4774 130.704 27.7688 131.205 27.9748L131.568 28.1036L131.949 28.1798C132.207 28.2251 132.467 28.2525 132.728 28.2618C133.251 28.2594 133.769 28.1621 134.257 27.9748C134.759 27.7702 135.221 27.4787 135.622 27.1136C136.507 26.2318 137.237 25.2081 137.784 24.085Z" fill="black" fill-opacity="0.72"/>
<path d="M150.203 46.2816C148.636 45.5482 147.014 44.9371 145.352 44.4538C143.759 43.994 142.113 43.7458 140.455 43.7157C138.797 43.7441 137.15 43.9943 135.558 44.4597C133.895 44.9445 132.272 45.5535 130.701 46.2816C131.937 44.9468 133.44 43.887 135.112 43.1709C136.79 42.3724 138.624 41.958 140.481 41.958C142.339 41.958 144.173 42.3724 145.85 43.1709C147.5 43.8961 148.982 44.9553 150.203 46.2816Z" fill="black" fill-opacity="0.72"/>
<path fill-rule="evenodd" clip-rule="evenodd" d="M140.939 27.5858C141.172 27.536 141.402 27.6847 141.452 27.918L141.029 28.0083C141.452 27.918 141.452 27.9182 141.452 27.9185L141.452 27.919L141.452 27.9204L141.453 27.9243L141.456 27.9369C141.458 27.9473 141.461 27.9618 141.464 27.9801C141.47 28.0168 141.479 28.0689 141.489 28.1347C141.508 28.2661 141.53 28.453 141.543 28.6813C141.569 29.1365 141.561 29.7642 141.42 30.4493C141.137 31.8317 140.309 33.4519 138.176 34.3247C137.337 34.6687 137.046 35.0281 136.978 35.2734C136.918 35.492 136.995 35.7878 137.373 36.1384C138.131 36.8429 139.781 37.4296 141.579 37.3539C141.818 37.3438 142.019 37.5289 142.029 37.7673C142.039 38.0057 141.854 38.207 141.616 38.2171C139.659 38.2995 137.759 37.6765 136.785 36.7714C136.296 36.3173 135.962 35.7084 136.145 35.0434C136.322 34.405 136.93 33.9018 137.849 33.5253L137.849 33.5252C139.653 32.7869 140.333 31.4488 140.574 30.2757C140.696 29.683 140.703 29.1335 140.68 28.731C140.669 28.5305 140.65 28.3684 140.634 28.2582C140.626 28.2031 140.619 28.1611 140.614 28.1339C140.611 28.1203 140.609 28.1104 140.608 28.1044L140.607 28.0985L140.607 28.0984C140.607 28.098 140.607 28.0978 140.607 28.0977L140.607 28.0979L140.607 28.0981C140.557 27.8649 140.706 27.6356 140.939 27.5858Z" fill="black" fill-opacity="0.72"/>
<path d="M140.466 81.9033H134.789C134.243 81.9033 133.72 81.6868 133.333 81.3014C132.947 80.9159 132.729 80.3929 132.727 79.8471V79.1499C132.729 78.6041 132.947 78.0811 133.333 77.6956C133.72 77.3102 134.243 77.0937 134.789 77.0938H140.466C141.011 77.0953 141.533 77.3124 141.918 77.6977C142.303 78.083 142.52 78.6051 142.522 79.1499V79.8764C142.514 80.4166 142.294 80.9321 141.909 81.3114C141.525 81.6907 141.006 81.9033 140.466 81.9033Z" fill="#FFCBAA"/>
<path d="M140.466 86.7646H134.789C134.243 86.7646 133.72 86.5481 133.333 86.1627C132.947 85.7773 132.729 85.2543 132.727 84.7084V83.982C132.729 83.4361 132.947 82.9131 133.333 82.5277C133.72 82.1422 134.243 81.9258 134.789 81.9258H140.466C141.011 81.9258 141.534 82.1424 141.92 82.528C142.305 82.9136 142.522 83.4366 142.522 83.982V84.7084C142.522 85.2537 142.305 85.7767 141.92 86.1623C141.534 86.548 141.011 86.7646 140.466 86.7646Z" fill="#FFCBAA"/>
<path d="M140.466 91.582H134.789C134.243 91.582 133.72 91.3655 133.333 90.9801C132.947 90.5946 132.729 90.0717 132.727 89.5258V88.7994C132.729 88.2535 132.947 87.7305 133.333 87.345C133.72 86.9596 134.243 86.7432 134.789 86.7432H140.466C141.011 86.7432 141.534 86.9598 141.92 87.3454C142.305 87.731 142.522 88.254 142.522 88.7994V89.5258C142.522 90.0711 142.305 90.5941 141.92 90.9797C141.534 91.3653 141.011 91.582 140.466 91.582Z" fill="#FFCBAA"/>
<path d="M140.466 96.4199H134.789C134.243 96.4199 133.72 96.2034 133.333 95.818C132.947 95.4325 132.729 94.9095 132.727 94.3637V93.6373C132.729 93.0914 132.947 92.5684 133.333 92.1829C133.72 91.7975 134.243 91.5811 134.789 91.5811H140.466C141.011 91.5811 141.534 91.7977 141.92 92.1833C142.305 92.5689 142.522 93.0919 142.522 93.6373V94.3812C142.517 94.9235 142.299 95.442 141.913 95.8238C141.528 96.2057 141.008 96.4199 140.466 96.4199Z" fill="#FFCBAA"/>
<path d="M141.978 77.9775L146.881 81.0179C147.723 81.5379 148.42 82.261 148.909 83.1208C149.399 83.9807 149.664 84.9496 149.681 85.9387L149.927 98.8266L138.311 97.9362C138.311 97.9362 136.307 85.3412 136.307 84.0524C136.307 82.7636 137.625 79.0086 137.625 79.0086L141.978 77.9775Z" fill="#FFCBAA"/>
<path fill-rule="evenodd" clip-rule="evenodd" d="M132.727 79.0537C132.965 79.0537 133.159 79.2471 133.159 79.4857C133.159 80.0128 133.368 80.5183 133.741 80.891C134.114 81.2637 134.619 81.4731 135.146 81.4731H140.102C140.341 81.4731 140.534 81.6665 140.534 81.9051C140.534 82.1437 140.341 82.3371 140.102 82.3371H135.146C134.39 82.3371 133.665 82.0367 133.13 81.5019C132.595 80.9672 132.295 80.2419 132.295 79.4857C132.295 79.2471 132.488 79.0537 132.727 79.0537Z" fill="#965425" fill-opacity="0.73"/>
<path fill-rule="evenodd" clip-rule="evenodd" d="M132.727 83.9131C132.965 83.9131 133.159 84.1065 133.159 84.3451C133.159 84.8722 133.368 85.3777 133.741 85.7504C134.114 86.1231 134.619 86.3325 135.146 86.3325H140.102C140.341 86.3325 140.534 86.5259 140.534 86.7645C140.534 87.0031 140.341 87.1965 140.102 87.1965H135.146C134.39 87.1965 133.665 86.8961 133.13 86.3613C132.595 85.8266 132.295 85.1013 132.295 84.3451C132.295 84.1065 132.488 83.9131 132.727 83.9131Z" fill="#965425" fill-opacity="0.73"/>
<path fill-rule="evenodd" clip-rule="evenodd" d="M132.727 88.7305C132.965 88.7305 133.159 88.9239 133.159 89.1625C133.159 89.6896 133.368 90.1951 133.741 90.5678C134.114 90.9405 134.619 91.1499 135.146 91.1499H140.102C140.341 91.1499 140.534 91.3433 140.534 91.5819C140.534 91.8204 140.341 92.0139 140.102 92.0139H135.146C134.39 92.0139 133.665 91.7134 133.13 91.1787C132.595 90.644 132.295 89.9187 132.295 89.1625C132.295 88.9239 132.488 88.7305 132.727 88.7305Z" fill="#965425" fill-opacity="0.73"/>
<path fill-rule="evenodd" clip-rule="evenodd" d="M132.727 93.5703C132.965 93.5703 133.159 93.7637 133.159 94.0023C133.159 94.5294 133.368 95.0349 133.741 95.4076C134.114 95.7803 134.619 95.9897 135.146 95.9897H140.102C140.341 95.9897 140.534 96.1831 140.534 96.4217C140.534 96.6603 140.341 96.8537 140.102 96.8537H135.146C134.39 96.8537 133.665 96.5533 133.13 96.0185C132.595 95.4838 132.295 94.7585 132.295 94.0023C132.295 93.7637 132.488 93.5703 132.727 93.5703Z" fill="#965425" fill-opacity="0.73"/>
<path d="M36.6138 31.1465C39.0662 31.1465 41.0543 29.1585 41.0543 26.7061C41.0543 24.2537 39.0662 22.2656 36.6138 22.2656C34.1614 22.2656 32.1733 24.2537 32.1733 26.7061C32.1733 29.1585 34.1614 31.1465 36.6138 31.1465Z" fill="black" fill-opacity="0.09"/>
<path d="M26.1448 19.7057C27.879 19.7057 29.2848 18.2999 29.2848 16.5657C29.2848 14.8316 27.879 13.4258 26.1448 13.4258C24.4107 13.4258 23.0049 14.8316 23.0049 16.5657C23.0049 18.2999 24.4107 19.7057 26.1448 19.7057Z" fill="black" fill-opacity="0.09"/>
<path d="M39.2145 8.92207C40.2304 8.92207 41.0539 8.09852 41.0539 7.08262C41.0539 6.06671 40.2304 5.24316 39.2145 5.24316C38.1986 5.24316 37.375 6.06671 37.375 7.08262C37.375 8.09852 38.1986 8.92207 39.2145 8.92207Z" fill="black" fill-opacity="0.09"/>
<path d="M99.0201 67.2989C101.472 67.2989 103.461 65.3108 103.461 62.8584C103.461 60.406 101.472 58.418 99.0201 58.418C96.5677 58.418 94.5796 60.406 94.5796 62.8584C94.5796 65.3108 96.5677 67.2989 99.0201 67.2989Z" fill="black" fill-opacity="0.09"/>
<path d="M111.937 59.2565C113.671 59.2565 115.077 57.8507 115.077 56.1165C115.077 54.3824 113.671 52.9766 111.937 52.9766C110.203 52.9766 108.797 54.3824 108.797 56.1165C108.797 57.8507 110.203 59.2565 111.937 59.2565Z" fill="black" fill-opacity="0.09"/>
<path d="M116.829 73.3459C117.845 73.3459 118.669 72.5223 118.669 71.5064C118.669 70.4905 117.845 69.667 116.829 69.667C115.813 69.667 114.99 70.4905 114.99 71.5064C114.99 72.5223 115.813 73.3459 116.829 73.3459Z" fill="black" fill-opacity="0.09"/>
</g>
</g>
</g>
<path d="M-87 -41.9346H248H-87ZM248 352.947C248 364.545 238.598 373.947 227 373.947H-66C-77.598 373.947 -87 364.545 -87 352.947C-87 363.44 -78.0457 371.947 -67 371.947H228C239.046 371.947 248 363.44 248 352.947ZM-87 372.947V-41.9346V372.947ZM248 -41.9346V372.947V-41.9346Z" fill="#A9C9D6" mask="url(#path-2-inside-1_687_2768)"/>
</g>
<defs>
<filter id="filter0_d_687_2768" x="-92" y="-41.9346" width="345" height="437.881" filterUnits="userSpaceOnUse" color-interpolation-filters="sRGB">
<feFlood flood-opacity="0" result="BackgroundImageFix"/>
<feColorMatrix in="SourceAlpha" type="matrix" values="0 0 0 0 0 0 0 0 0 0 0 0 0 0 0 0 0 0 127 0" result="hardAlpha"/>
<feMorphology radius="4" operator="erode" in="SourceAlpha" result="effect1_dropShadow_687_2768"/>
<feOffset dy="18"/>
<feGaussianBlur stdDeviation="4.5"/>
<feComposite in2="hardAlpha" operator="out"/>
<feColorMatrix type="matrix" values="0 0 0 0 0.203922 0 0 0 0 0.45098 0 0 0 0 0.670588 0 0 0 0.05 0"/>
<feBlend mode="normal" in2="BackgroundImageFix" result="effect1_dropShadow_687_2768"/>
<feBlend mode="normal" in="SourceGraphic" in2="effect1_dropShadow_687_2768" result="shape"/>
</filter>
<filter id="filter1_i_687_2768" x="-68" y="-25.9346" width="297" height="127.881" filterUnits="userSpaceOnUse" color-interpolation-filters="sRGB">
<feFlood flood-opacity="0" result="BackgroundImageFix"/>
<feBlend mode="normal" in="SourceGraphic" in2="BackgroundImageFix" result="shape"/>
<feColorMatrix in="SourceAlpha" type="matrix" values="0 0 0 0 0 0 0 0 0 0 0 0 0 0 0 0 0 0 127 0" result="hardAlpha"/>
<feMorphology radius="1" operator="erode" in="SourceAlpha" result="effect1_innerShadow_687_2768"/>
<feOffset dy="-2"/>
<feGaussianBlur stdDeviation="1"/>
<feComposite in2="hardAlpha" operator="arithmetic" k2="-1" k3="1"/>
<feColorMatrix type="matrix" values="0 0 0 0 0 0 0 0 0 0 0 0 0 0 0 0 0 0 0.04 0"/>
<feBlend mode="normal" in2="shape" result="effect1_innerShadow_687_2768"/>
</filter>
<linearGradient id="paint0_linear_687_2768" x1="187.5" y1="0" x2="187.5" y2="812" gradientUnits="userSpaceOnUse">
<stop stop-color="white"/>
<stop offset="1" stop-color="#FCFAF8"/>
</linearGradient>
<linearGradient id="paint1_linear_687_2768" x1="73.4075" y1="5.40332" x2="73.4075" y2="56.235" gradientUnits="userSpaceOnUse">
<stop stop-color="#D3FFCF"/>
<stop offset="1" stop-color="#6BA367"/>
</linearGradient>
<linearGradient id="paint2_linear_687_2768" x1="141.041" y1="6.70215" x2="141.041" y2="57.5229" gradientUnits="userSpaceOnUse">
<stop stop-color="#F19CFF"/>
<stop offset="1" stop-color="#C058FF"/>
</linearGradient>
<clipPath id="clip0_687_2768">
<rect x="-68" y="-23.9346" width="297" height="125.881" rx="16" fill="white"/>
</clipPath>
</defs>
</svg>
