<svg width="245" height="245" viewBox="0 0 245 245" fill="none" xmlns="http://www.w3.org/2000/svg">
<mask id="mask0_836_3971" style="mask-type:luminance" maskUnits="userSpaceOnUse" x="-46" y="-21" width="310" height="263">
<path d="M263.472 9.73026L239.021 241.653L-45.5733 211.648L-21.1222 -20.2739L263.472 9.73026Z" fill="white"/>
</mask>
<g mask="url(#mask0_836_3971)">
<path d="M16.2606 96.8684C21.8162 44.1724 69.0385 5.95762 121.734 11.5132C174.43 17.0689 212.645 64.2911 207.09 116.987C201.534 169.683 154.312 207.898 101.616 202.342C48.9198 196.787 10.705 149.564 16.2606 96.8684Z" fill="white"/>
<path d="M16.2606 96.8684C21.8162 44.1724 69.0385 5.95762 121.734 11.5132C174.43 17.0689 212.645 64.2911 207.09 116.987C201.534 169.683 154.312 207.898 101.616 202.342C48.9198 196.787 10.705 149.564 16.2606 96.8684Z" fill="url(#paint0_radial_836_3971)" fill-opacity="0.1"/>
</g>
<mask id="mask1_836_3971" style="mask-type:luminance" maskUnits="userSpaceOnUse" x="-73" y="-70" width="370" height="362">
<path d="M150.282 -69.3347L296.987 111.95L74.5305 291.975L-72.1753 110.689L150.282 -69.3347Z" fill="white"/>
</mask>
<g mask="url(#mask1_836_3971)">
<path d="M-36.1435 156.848C-22.9218 152.76 -8.78925 148.161 -2.45044 145.66C12.6246 139.712 21.0012 133.545 25.6188 127.97C30.2365 122.395 43.459 87.5685 45.4679 78.7699C47.4767 69.9713 51.1214 66.5928 56.6688 66.2515C66.2607 65.6622 99.8505 60.1561 104.535 61.1101C109.219 62.064 123.651 70.2277 128.197 74.2338C132.743 78.2395 139.688 79.955 137.87 95.0508C136.116 109.623 134.791 127.909 132.388 128.968C132.388 128.968 129.784 130.585 127.151 129.748C127.151 129.748 123.596 144.291 120.444 145.23C117.291 146.17 114.019 142.932 113.184 141.497C113.184 141.497 110.521 147.875 106.58 149.854C102.638 151.832 96.0973 142.944 108.631 130.029C108.631 130.029 104.576 123.204 104.271 121.82C104.271 121.82 99.5003 125.192 95.6768 131.546C91.8533 137.901 91.0859 140.478 82.7271 147.976C74.3678 155.475 49.9985 170.988 44.4106 172.846C40.8175 174.04 18.8712 187.136 -1.1729 200.06L-36.143 156.848L-36.1435 156.848Z" fill="url(#paint1_linear_836_3971)"/>
<path d="M176.295 10.5358L116.507 84.0593C115.093 85.7979 115.356 88.3533 117.095 89.7677L162.446 126.647C164.185 128.06 166.74 127.798 168.155 126.059L227.943 52.5351C229.356 50.7965 229.093 48.2411 227.354 46.8267L182.003 9.94719C180.264 8.53359 177.708 8.79723 176.295 10.5358Z" fill="url(#paint2_linear_836_3971)"/>
<path d="M201.304 38.8786L216.04 50.8624C217.754 52.2562 218.014 54.7755 216.62 56.4895L204.636 71.2258C203.242 72.9398 200.723 73.1993 199.009 71.8055L184.273 59.8217C182.559 58.4279 182.299 55.9086 183.693 54.1947L195.677 39.4583C197.071 37.7443 199.59 37.4848 201.304 38.8786Z" fill="#9F98E9"/>
<path d="M184.907 60.3406L188.059 57.3562C188.608 56.8436 189.39 56.6502 190.134 56.8433L195.367 58.2001L198.234 60.5317L200.63 65.379C200.97 66.0679 200.94 66.8723 200.551 67.5143L198.324 71.2514" fill="#F2F0FF"/>
<path d="M195.537 58.1909C195.357 58.2983 195.192 58.4377 195.052 58.6098C194.414 59.3956 194.533 60.55 195.318 61.1887C196.104 61.8274 197.259 61.7086 197.897 60.9228C198.011 60.7835 198.1 60.6327 198.166 60.4751L195.537 58.1909Z" fill="#F2F0FF"/>
<path d="M206.072 56.7032L202.686 59.8877C201.952 60.578 200.964 60.8999 200.019 60.7565L197.928 60.4394C196.902 60.2835 196.063 59.6005 195.701 58.628L194.964 56.6456C194.63 55.7495 194.744 54.7168 195.271 53.8573L198.334 48.743L201.241 50.145L206.072 56.7032Z" fill="#F2F0FF"/>
<path d="M197.061 50.6533C197.088 50.6866 197.122 50.7142 197.161 50.7338C198.714 51.5063 200.182 51.1813 200.806 50.9768C201.226 52.147 201.889 53.2964 202.779 54.3968C204.589 56.6333 206.695 57.8919 206.784 57.9437C206.898 58.0112 207.043 57.9964 207.141 57.9067C207.24 57.817 207.267 57.6734 207.21 57.554C207.013 57.1406 207.065 56.7392 207.156 56.4541C208.377 57.9124 209.894 57.7841 209.959 57.778C210.078 57.7665 210.179 57.6865 210.216 57.5728C210.249 57.4745 210.229 57.3662 210.165 57.2873C210.156 57.276 210.145 57.265 210.134 57.2544C209.903 57.0428 209.702 56.8321 209.538 56.6288C209.217 56.2329 209.068 55.9117 209.005 55.6671C209.491 56.1208 210.315 56.6609 211.434 56.5839C211.566 56.575 211.676 56.4817 211.707 56.3532C211.73 56.2602 211.706 56.1636 211.648 56.0922C211.627 56.0654 211.6 56.042 211.569 56.0233C211.566 56.0212 211.247 55.8265 210.957 55.4691C210.746 55.208 210.605 54.9311 210.536 54.6416C210.999 54.7316 211.715 54.7796 212.21 54.385C212.305 54.3083 212.346 54.1815 212.311 54.0636C212.3 54.0246 212.281 53.9887 212.256 53.9586C212.207 53.8975 212.134 53.8568 212.053 53.8482C212.021 53.8444 211.217 53.7408 210.511 52.8682C210.071 52.3239 209.765 51.5966 209.602 50.707C209.431 49.7679 208.934 48.7528 208.203 47.8497C206.884 46.2191 205.04 45.1892 203.272 45.0951C201.778 45.0158 200.361 45.5993 199.175 46.7819C199.158 46.799 199.143 46.8184 199.13 46.8398L197.038 50.3072C196.994 50.3795 196.983 50.4668 197.006 50.5479C197.017 50.5864 197.035 50.6223 197.061 50.6533Z" fill="#E0DEF8"/>
<path d="M195.129 52.8145C195.186 52.8844 195.251 52.9511 195.326 53.0135L195.597 53.2396L196.73 51.3466L196.741 51.2979C196.754 51.2357 196.862 50.6818 196.556 50.3033C196.504 50.2384 196.442 50.183 196.373 50.1375C196.083 49.9466 195.712 50.0502 195.384 50.4142C194.916 50.9315 194.512 52.0517 195.129 52.8145Z" fill="#F2F0FF"/>
<path d="M203.535 59.6708C204.266 60.2509 205.264 59.9317 205.872 59.3176C206.303 58.8823 206.418 58.4223 206.171 58.1171C205.691 57.6325 204.991 57.9024 204.913 57.9351L204.863 57.9559L203.26 59.4533L203.535 59.6708Z" fill="#F2F0FF"/>
<g opacity="0.4">
<path d="M175.564 71.7705L191.61 84.8195C192.313 85.391 192.42 86.4239 191.848 87.1266C191.277 87.8293 190.244 87.9358 189.541 87.3643L173.495 74.3153C172.792 73.7439 172.686 72.7109 173.257 72.0082C173.829 71.3055 174.862 71.1991 175.564 71.7705Z" fill="white"/>
<path d="M153.019 53.4362L169.065 66.4852C169.768 67.0566 169.874 68.0896 169.303 68.7923C168.731 69.495 167.698 69.6014 166.996 69.0299L150.949 55.981C150.247 55.4095 150.14 54.3766 150.712 53.6739C151.283 52.9712 152.316 52.8647 153.019 53.4362Z" fill="white"/>
<path d="M157.406 73.9899L183.295 95.0437C183.998 95.6151 184.105 96.648 183.533 97.3507C182.962 98.0535 181.929 98.1599 181.226 97.5884L155.336 76.5346C154.634 75.9632 154.527 74.9302 155.099 74.2275C155.67 73.5248 156.703 73.4184 157.406 73.9899Z" fill="white"/>
<path d="M144.705 63.6603L150.907 68.7044C151.61 69.2759 151.716 70.3088 151.145 71.0115C150.574 71.7142 149.541 71.8206 148.838 71.2492L142.635 66.205C141.932 65.6336 141.826 64.6006 142.397 63.8979C142.969 63.1952 144.002 63.0888 144.705 63.6603Z" fill="white"/>
<path d="M148.644 58.3268L187.475 89.9046C188.177 90.4761 188.284 91.509 187.712 92.2117C187.141 92.9144 186.108 93.0208 185.405 92.4494L146.574 60.8716C145.872 60.3001 145.765 59.2672 146.337 58.5645C146.908 57.8617 147.941 57.7553 148.644 58.3268Z" fill="white"/>
<path d="M140.189 68.6928L179.02 100.271C179.722 100.842 179.829 101.875 179.257 102.578C178.686 103.28 177.653 103.387 176.95 102.815L138.119 71.2375C137.417 70.6661 137.31 69.6331 137.882 68.9304C138.453 68.2277 139.486 68.1213 140.189 68.6928Z" fill="white"/>
</g>
<g opacity="0.4">
<path d="M183.527 24.4218L193.587 32.6023C194.512 33.3548 194.652 34.715 193.9 35.6403C193.147 36.5657 191.787 36.7058 190.862 35.9533L180.802 27.7728C179.877 27.0203 179.737 25.6601 180.489 24.7347C181.242 23.8094 182.602 23.6693 183.527 24.4218Z" fill="white"/>
<path d="M170.376 32.4265L184.434 43.8585C185.359 44.6109 185.499 45.9709 184.747 46.8961C183.994 47.8213 182.634 47.9614 181.709 47.209L167.651 35.777C166.726 35.0246 166.586 33.6646 167.338 32.7394C168.091 31.8142 169.451 31.6741 170.376 32.4265Z" fill="white"/>
<path d="M174.953 26.7984L189.011 38.2304C189.936 38.9828 190.076 40.3428 189.324 41.268C188.571 42.1933 187.211 42.3333 186.286 41.5809L172.228 30.1489C171.303 29.3965 171.163 28.0366 171.915 27.1113C172.668 26.1861 174.028 26.046 174.953 26.7984Z" fill="white"/>
</g>
<g opacity="0.4">
<path d="M157.65 110.008L162.644 103.867C162.894 103.56 163.345 103.513 163.652 103.763C163.959 104.013 164.005 104.464 163.756 104.771L158.761 110.912C158.512 111.219 158.061 111.265 157.754 111.016C157.447 110.766 157.4 110.315 157.65 110.008Z" fill="white"/>
<path d="M149.389 103.166L154.266 97.1692C154.548 96.8223 155.058 96.7697 155.405 97.0518C155.752 97.3339 155.804 97.8438 155.522 98.1907L150.645 104.187C150.363 104.534 149.853 104.587 149.507 104.305C149.16 104.022 149.107 103.513 149.389 103.166Z" fill="white"/>
<path d="M125.429 83.6864L130.305 77.6899C130.587 77.343 131.097 77.2905 131.444 77.5726C131.791 77.8547 131.844 78.3646 131.561 78.7115L126.685 84.708C126.403 85.0549 125.893 85.1074 125.546 84.8253C125.199 84.5432 125.147 84.0333 125.429 83.6864Z" fill="white"/>
<path d="M143.044 98.0102L147.92 92.0136C148.202 91.6668 148.712 91.6142 149.059 91.8963C149.406 92.1784 149.458 92.6883 149.176 93.0352L144.3 99.0317C144.018 99.3786 143.508 99.4312 143.161 99.1491C142.814 98.867 142.761 98.3571 143.044 98.0102Z" fill="white"/>
<path d="M139.739 95.3243L144.615 89.3277C144.897 88.9808 145.407 88.9283 145.754 89.2104C146.101 89.4925 146.154 90.0024 145.872 90.3493L140.995 96.3458C140.713 96.6927 140.203 96.7452 139.856 96.4631C139.509 96.181 139.457 95.6712 139.739 95.3243Z" fill="white"/>
<path d="M159.09 111.635L164.537 104.938C164.661 104.784 164.887 104.761 165.04 104.886C165.194 105.011 165.217 105.236 165.092 105.39L159.646 112.087C159.521 112.24 159.296 112.263 159.142 112.139C158.989 112.014 158.966 111.789 159.09 111.635Z" fill="white"/>
<path d="M156.124 109.061L161.412 102.558C161.58 102.351 161.885 102.32 162.092 102.488C162.299 102.657 162.33 102.961 162.162 103.168L156.874 109.671C156.705 109.878 156.401 109.91 156.194 109.741C155.987 109.573 155.955 109.268 156.124 109.061Z" fill="white"/>
<path d="M154.4 107.505L159.531 101.196C159.743 100.935 160.126 100.896 160.387 101.107C160.647 101.319 160.687 101.702 160.475 101.963L155.344 108.272C155.132 108.533 154.749 108.572 154.489 108.36C154.228 108.148 154.189 107.765 154.4 107.505Z" fill="white"/>
<path d="M146.256 100.882L151.387 94.5727C151.599 94.3122 151.982 94.2727 152.242 94.4846C152.503 94.6965 152.542 95.0795 152.33 95.3401L147.2 101.649C146.988 101.91 146.605 101.949 146.344 101.737C146.084 101.525 146.044 101.142 146.256 100.882Z" fill="white"/>
<path d="M141.247 96.9075L146.481 90.4718C146.664 90.2462 146.996 90.212 147.221 90.3955C147.447 90.5789 147.481 90.9106 147.298 91.1362L142.064 97.5719C141.881 97.7975 141.549 97.8317 141.323 97.6482C141.098 97.4647 141.064 97.1331 141.247 96.9075Z" fill="white"/>
<path d="M144.639 99.7194L149.918 93.227C150.089 93.017 150.398 92.9852 150.608 93.156C150.818 93.3267 150.849 93.6353 150.679 93.8452L145.399 100.338C145.228 100.548 144.92 100.579 144.71 100.409C144.5 100.238 144.468 99.9294 144.639 99.7194Z" fill="white"/>
<path d="M161.098 112.951L166.228 106.642C166.44 106.382 166.823 106.342 167.084 106.554C167.344 106.766 167.384 107.149 167.172 107.409L162.041 113.719C161.829 113.979 161.446 114.019 161.186 113.807C160.925 113.595 160.886 113.212 161.098 112.951Z" fill="white"/>
<path d="M162.377 114.145L167.657 107.653C167.827 107.443 168.136 107.411 168.346 107.582C168.556 107.753 168.588 108.061 168.417 108.271L163.137 114.764C162.966 114.974 162.658 115.005 162.448 114.835C162.238 114.664 162.206 114.355 162.377 114.145Z" fill="white"/>
<path d="M163.349 115.084L168.779 108.406C168.909 108.247 169.142 108.223 169.301 108.353C169.46 108.482 169.484 108.715 169.355 108.874L163.924 115.552C163.795 115.71 163.562 115.734 163.403 115.605C163.244 115.476 163.22 115.243 163.349 115.084Z" fill="white"/>
<path d="M164.562 116.071L169.992 109.393C170.121 109.234 170.355 109.21 170.514 109.339C170.673 109.468 170.697 109.702 170.567 109.861L165.137 116.538C165.008 116.697 164.775 116.721 164.616 116.592C164.457 116.463 164.433 116.229 164.562 116.071Z" fill="white"/>
<path d="M126.849 85.2631L132.128 78.77C132.299 78.5601 132.608 78.5282 132.818 78.6989C133.028 78.8697 133.059 79.1783 132.889 79.3882L127.609 85.8813C127.439 86.0913 127.13 86.1231 126.92 85.9524C126.71 85.7817 126.678 85.4731 126.849 85.2631Z" fill="white"/>
<path d="M127.826 86.1946L133.256 79.517C133.385 79.3582 133.619 79.3341 133.777 79.4633C133.936 79.5924 133.96 79.8259 133.831 79.9847L128.401 86.6623C128.272 86.8211 128.038 86.8452 127.879 86.716C127.721 86.5869 127.696 86.3534 127.826 86.1946Z" fill="white"/>
<path d="M129.04 87.1814L134.47 80.5038C134.599 80.345 134.832 80.321 134.991 80.4501C135.15 80.5793 135.174 80.8127 135.045 80.9715L129.615 87.6491C129.485 87.8079 129.252 87.832 129.093 87.7028C128.934 87.5737 128.91 87.3402 129.04 87.1814Z" fill="white"/>
<path d="M165.991 117.424L171.612 110.513C171.689 110.419 171.827 110.404 171.921 110.481C172.016 110.557 172.03 110.696 171.953 110.79L166.332 117.701C166.255 117.795 166.117 117.809 166.023 117.733C165.929 117.656 165.914 117.518 165.991 117.424Z" fill="white"/>
<path d="M153.001 106.927L158.679 99.9446C158.74 99.8699 158.85 99.8586 158.924 99.9193C158.999 99.9801 159.01 100.09 158.95 100.165L153.272 107.147C153.211 107.221 153.101 107.233 153.026 107.172C152.952 107.111 152.94 107.002 153.001 106.927Z" fill="white"/>
<path d="M147.833 102.73L153.511 95.7474C153.571 95.6728 153.681 95.6614 153.756 95.7222C153.831 95.7829 153.842 95.8927 153.781 95.9674L148.103 102.95C148.042 103.024 147.933 103.036 147.858 102.975C147.783 102.914 147.772 102.804 147.833 102.73Z" fill="white"/>
<path d="M138.333 94.8231L143.837 88.0541C143.946 87.9205 144.142 87.9002 144.276 88.0089C144.409 88.1175 144.43 88.3139 144.321 88.4474L138.816 95.2164C138.708 95.35 138.511 95.3702 138.378 95.2616C138.244 95.153 138.224 94.9566 138.333 94.8231Z" fill="white"/>
<path d="M137.25 93.9429L142.755 87.1739C142.864 87.0403 143.06 87.0201 143.194 87.1288C143.327 87.2374 143.347 87.4337 143.239 87.5673L137.734 94.3363C137.626 94.4699 137.429 94.4901 137.296 94.3815C137.162 94.2729 137.142 94.0765 137.25 93.9429Z" fill="white"/>
<path d="M136.3 93.1703L141.804 86.4013C141.913 86.2678 142.109 86.2475 142.243 86.3562C142.377 86.4648 142.397 86.6611 142.288 86.7947L136.784 93.5637C136.675 93.6973 136.479 93.7175 136.345 93.6089C136.211 93.5003 136.191 93.3039 136.3 93.1703Z" fill="white"/>
<path d="M133.956 91.2686L139.46 84.4989C139.569 84.3653 139.765 84.3451 139.899 84.4537C140.032 84.5623 140.053 84.7587 139.944 84.8923L134.44 91.662C134.331 91.7956 134.135 91.8158 134.001 91.7072C133.868 91.5986 133.847 91.4022 133.956 91.2686Z" fill="white"/>
<path d="M132.966 90.4589L138.47 83.6899C138.579 83.5563 138.775 83.5361 138.909 83.6447C139.043 83.7534 139.063 83.9497 138.954 84.0833L133.45 90.8523C133.341 90.9859 133.145 91.0061 133.011 90.8975C132.877 90.7888 132.857 90.5925 132.966 90.4589Z" fill="white"/>
<path d="M134.881 92.1379L140.505 85.2213C140.581 85.1285 140.717 85.1144 140.81 85.1899C140.903 85.2654 140.917 85.4018 140.841 85.4946L135.217 92.4112C135.141 92.504 135.005 92.5181 134.912 92.4426C134.819 92.3671 134.805 92.2307 134.881 92.1379Z" fill="white"/>
<path d="M130.669 88.7135L136.293 81.7968C136.369 81.704 136.505 81.69 136.598 81.7654C136.691 81.8409 136.705 81.9773 136.629 82.0701L131.005 88.9868C130.929 89.0796 130.793 89.0937 130.7 89.0182C130.607 88.9427 130.593 88.8063 130.669 88.7135Z" fill="white"/>
<path d="M131.862 89.4119L137.215 82.8286C137.366 82.6437 137.637 82.6157 137.822 82.766C138.007 82.9164 138.035 83.188 137.885 83.3729L132.531 89.9563C132.381 90.1411 132.109 90.1691 131.924 90.0188C131.739 89.8685 131.711 89.5968 131.862 89.4119Z" fill="white"/>
<path d="M152.336 106.385L158.014 99.4032C158.075 99.3285 158.185 99.3172 158.259 99.3779C158.334 99.4387 158.345 99.5485 158.285 99.6231L152.606 106.605C152.546 106.68 152.436 106.691 152.361 106.631C152.287 106.57 152.275 106.46 152.336 106.385Z" fill="white"/>
<path d="M150.907 105.007L156.374 98.2836C156.493 98.1373 156.708 98.1152 156.854 98.2341C157.001 98.353 157.023 98.568 156.904 98.7143L151.436 105.437C151.318 105.584 151.103 105.606 150.956 105.487C150.81 105.368 150.788 105.153 150.907 105.007Z" fill="white"/>
</g>
<path d="M103.564 122.399C103.564 122.399 111.531 115.335 118.596 110.718C125.405 106.268 136.312 97.3588 139.967 92.6081C139.967 92.6081 145.282 87.492 140.513 80.5919C135.745 73.6919 128.793 76.3828 128.793 76.3828C128.793 76.3828 120.696 77.4562 111.342 85.8409C101.988 94.2256 89.9563 104.752 76.2752 103.76" fill="url(#paint3_linear_836_3971)"/>
<path d="M103.564 122.399C103.564 122.399 111.531 115.335 118.596 110.718C125.405 106.268 136.312 97.3588 139.967 92.6081C139.967 92.6081 145.282 87.492 140.513 80.5919C135.745 73.6919 128.793 76.3828 128.793 76.3828C128.793 76.3828 120.696 77.4562 111.342 85.8409C101.988 94.2256 89.9563 104.752 76.2752 103.76" stroke="#4E453A" stroke-miterlimit="10" stroke-linecap="round" stroke-linejoin="round"/>
<path d="M127.151 129.748C127.151 129.748 115.241 125.449 120.6 109.308" stroke="#5B4B39" stroke-miterlimit="10" stroke-linecap="round" stroke-linejoin="round"/>
<path d="M113.378 141.798C113.378 141.798 108.047 135.678 113.542 123.611C113.542 123.611 114.671 120.803 119.278 118.022" stroke="#5B4B39" stroke-miterlimit="10" stroke-linecap="round" stroke-linejoin="round"/>
<path d="M86.7478 102.257C86.7478 102.257 81.8138 92.0082 70.6708 84.8867" stroke="#5B4B39" stroke-miterlimit="10" stroke-linecap="round" stroke-linejoin="round"/>
<path d="M85.4541 100.02C91.4434 92.294 89.8866 83.9047 89.8866 83.9047C96.8419 85.449 104.9 82.514 104.9 82.514C104.9 82.514 108.362 85.3817 111.342 85.8411" stroke="#5B4B39" stroke-miterlimit="10" stroke-linecap="round" stroke-linejoin="round"/>
<path d="M104.9 82.5139C104.9 82.5139 107.092 74.546 106.239 70.6715" stroke="#5B4B39" stroke-miterlimit="10" stroke-linecap="round" stroke-linejoin="round"/>
<path d="M89.8862 83.9045C89.8862 83.9045 84.8296 82.4543 81.3488 75.6531" stroke="#5B4B39" stroke-miterlimit="10" stroke-linecap="round" stroke-linejoin="round"/>
<path d="M114.92 121.283C114.92 121.283 113.176 119.514 112.059 115.524" stroke="#5B4B39" stroke-miterlimit="10" stroke-linecap="round" stroke-linejoin="round"/>
<path d="M101.767 93.5897C101.767 93.5897 94.4147 94.0793 89.7658 90.1268" stroke="#5B4B39" stroke-miterlimit="10" stroke-linecap="round" stroke-linejoin="round"/>
<path d="M105.564 87.0297C105.564 87.0297 105.544 90.7477 103.85 92.119" stroke="#5B4B39" stroke-miterlimit="10" stroke-linecap="round" stroke-linejoin="round"/>
<path d="M108.632 130.03C108.632 130.03 110.21 128.55 111.714 128.903" stroke="#5B4B39" stroke-miterlimit="10" stroke-linecap="round" stroke-linejoin="round"/>
<path d="M47.9425 167.41C47.9425 167.41 54.1429 166.963 75.2563 153.859L47.9425 167.41Z" fill="#A9D4CB"/>
<path d="M47.9425 167.41C47.9425 167.41 54.1429 166.963 75.2563 153.859" stroke="#5B4B39" stroke-miterlimit="10" stroke-linecap="round" stroke-linejoin="round"/>
<path d="M132.389 128.968C132.389 128.968 131.362 124.105 132.529 117.268C132.529 117.268 134.238 115.855 135.354 117.222" stroke="#5B4B39" stroke-miterlimit="10" stroke-linecap="round" stroke-linejoin="round"/>
<path d="M120.444 145.23C120.444 145.23 121.062 143.09 119.99 141.222C118.919 139.355 124.566 131.46 126.254 133.066" stroke="#5B4B39" stroke-miterlimit="10" stroke-linecap="round" stroke-linejoin="round"/>
<path d="M107.776 149.097C107.776 149.097 107.721 147.517 106.804 146.214C106.804 146.214 111.108 139.747 112.854 142.222" stroke="#5B4B39" stroke-miterlimit="10" stroke-linecap="round" stroke-linejoin="round"/>
<path d="M91.5565 100.217C91.5565 100.217 93.5184 96.2966 90.7466 90.87" stroke="#5B4B39" stroke-miterlimit="10" stroke-linecap="round" stroke-linejoin="round"/>
<path d="M84.6382 102.992C84.6382 102.992 80.7234 100.979 76.6819 100.715L84.6382 102.992Z" fill="#A9D4CB"/>
<path d="M84.6382 102.992C84.6382 102.992 80.7234 100.979 76.6819 100.715" stroke="#5B4B39" stroke-miterlimit="10" stroke-linecap="round" stroke-linejoin="round"/>
<path d="M142.39 87.7286C142.39 87.7286 136.898 91.832 133.514 93.9183C132.257 94.693 130.673 94.6321 129.686 93.5344C127.944 91.5968 126.077 89.5 124.259 86.9585C123.452 85.8299 123.561 84.2915 124.528 83.2964C126.601 81.1659 130.108 77.813 132.816 75.8973" stroke="#4E453A" stroke-miterlimit="10" stroke-linecap="round" stroke-linejoin="round"/>
<path d="M129.685 93.5338C129.685 93.5338 131.495 87.1126 124.259 86.9579" stroke="#4E453A" stroke-miterlimit="10" stroke-linecap="round" stroke-linejoin="round"/>
<path d="M114.7 109.381C114.7 109.381 106.611 103.856 105.815 95.6633" stroke="#4E453A" stroke-opacity="0.76" stroke-miterlimit="10" stroke-linecap="round" stroke-linejoin="round"/>
<path d="M118.668 106.169C118.668 106.169 116.984 102.646 113.786 98.908" stroke="#4E453A" stroke-opacity="0.76" stroke-miterlimit="10" stroke-linecap="round" stroke-linejoin="round"/>
</g>
<defs>
<radialGradient id="paint0_radial_836_3971" cx="0" cy="0" r="1" gradientUnits="userSpaceOnUse" gradientTransform="translate(217.149 123.616) rotate(-158.785) scale(187.155 201.026)">
<stop/>
<stop offset="1" stop-opacity="0"/>
</radialGradient>
<linearGradient id="paint1_linear_836_3971" x1="128.626" y1="72.0681" x2="-12.3969" y2="186.192" gradientUnits="userSpaceOnUse">
<stop stop-color="#FFEAC8"/>
<stop offset="1" stop-color="#D6AD90"/>
</linearGradient>
<linearGradient id="paint2_linear_836_3971" x1="216.105" y1="32.7864" x2="128.344" y2="103.808" gradientUnits="userSpaceOnUse">
<stop stop-color="#D6D3FF"/>
<stop offset="1" stop-color="#9F98E9"/>
</linearGradient>
<linearGradient id="paint3_linear_836_3971" x1="136.696" y1="75.8118" x2="86.5189" y2="116.418" gradientUnits="userSpaceOnUse">
<stop stop-color="#FFEAC8"/>
<stop offset="1" stop-color="#F1D5B4"/>
</linearGradient>
</defs>
</svg>
