<svg width="324" height="164" viewBox="0 0 324 164" fill="none" xmlns="http://www.w3.org/2000/svg">
<g clip-path="url(#clip0_1226_5079)">
<path d="M86.5244 60.9637C86.5244 60.9637 81.5279 62.9372 82.4096 68.7735C82.4096 68.7735 74.5579 67.136 70.695 63.441C70.737 63.441 83.6273 63.1471 86.5244 60.9637Z" fill="#282828"/>
<path d="M1.75098 69.4872C2.38081 68.0176 3.01062 66.3381 2.38081 64.8266C2.08689 64.0708 1.49906 63.483 1.16316 62.7272C-0.306412 59.2422 4.60617 56.471 5.69785 52.818C6.49562 50.1728 5.27796 46.8138 7.2094 44.8404C8.30109 43.7487 10.1486 43.4128 10.8204 42.0272C11.7021 40.2637 9.98061 38.2903 10.0646 36.3168C10.1066 34.8892 11.0303 33.6716 11.7861 32.454C14.7672 27.5834 15.1031 21.6211 16.0688 15.9947C17.0346 10.3684 19.134 4.32211 24.1305 1.55091C24.7603 1.17302 25.5581 0.879107 26.2299 1.13103C27.4475 1.55091 27.6155 3.18844 27.4475 4.44807C26.2299 13.0136 18.6301 19.5637 20.0157 28.1292L20.1837 28.4231C21.8212 27.7513 22.7029 26.8696 23.4167 25.1901C24.1305 23.4686 24.5924 21.5791 25.5581 19.9836C25.978 19.2698 26.6918 18.556 27.4895 18.7659C27.8674 18.8919 28.1194 19.1858 28.2873 19.5217L29.337 17.4223C30.7226 12.5517 33.2419 8.43692 36.5169 4.28012C37.3567 3.18844 38.3224 2.13874 39.582 1.63489C40.8417 1.13103 42.5212 1.42495 43.235 2.60061C43.6548 3.3144 43.6548 4.15416 43.4869 4.99391C42.941 7.84909 40.8417 10.1164 39.1202 12.5097C37.8185 14.3572 36.8108 16.0787 36.055 18.0101C35.9711 18.1781 35.5932 19.3118 35.2573 20.6974C36.8528 19.9416 38.5323 19.3957 40.2538 19.1438C41.0096 19.0178 41.7654 18.9759 42.4372 19.3118C43.109 19.6477 43.5289 20.5294 43.193 21.1592C42.983 21.5371 42.5212 21.789 42.1433 21.999C39.9599 23.1327 38.0705 24.8122 36.6849 26.8696C38.5743 24.3503 42.2273 23.3426 45.1244 24.6022C45.8382 24.8961 46.594 25.6099 46.3001 26.3237C46.1321 26.7016 45.7542 26.8696 45.4183 27.0375C43.151 28.1712 40.8836 29.3049 38.6163 30.3965C39.3301 30.4385 39.9179 31.1523 40.1699 31.9921L42.4792 32.9158C51.4226 36.1909 60.324 39.298 69.2674 42.573C71.9127 43.5387 74.5999 44.5464 76.9512 46.142C81.5279 49.2491 84.2991 54.2876 86.5664 59.3262C86.7344 59.7041 86.9023 60.0819 86.7763 60.4598C86.6084 60.9217 86.1045 61.1736 85.6007 61.3416C80.8141 62.9791 75.7335 63.6929 70.737 63.483C75.3137 67.8917 82.3256 69.9491 88.4559 68.1856C85.9366 71.6286 81.6538 73.686 77.3711 73.4761C72.5425 73.2241 68.2177 70.285 63.3891 69.7392C58.9384 69.2353 54.6976 70.8308 50.3729 72.1325C50.4149 72.6783 50.4569 73.2241 50.6248 73.77C51.0447 75.1976 51.8005 76.4992 52.6822 77.6748C54.2778 79.8162 56.2932 81.6637 57.8887 83.8051C58.6865 84.8968 59.3583 86.1144 59.4423 87.458C59.4423 87.7939 59.4423 88.1298 59.2743 88.4657C58.8964 89.1795 57.9727 89.3475 57.3429 89.8513C56.4611 90.5231 56.1252 91.7408 56.2512 92.8744C56.4191 93.9661 56.965 94.9738 57.5948 95.9396C58.3506 97.1152 59.2323 98.2909 59.8621 99.5505C60.45 100.768 60.7859 102.196 60.5759 103.497C60.282 104.127 59.9881 104.757 59.7782 105.429C59.1064 107.738 60.7439 110.005 62.3394 111.811C63.935 113.616 65.6984 115.758 65.1946 118.109C64.9847 119.075 64.4388 119.957 64.4388 120.922C64.4808 123.316 67.5879 124.365 68.7636 126.465C70.0232 128.69 68.8056 131.629 69.7713 133.981C70.695 136.29 73.4242 137.424 74.5999 139.649C75.3557 141.118 75.3137 142.84 75.4396 144.477C75.5656 146.115 75.9855 147.92 77.3291 148.886C79.0086 150.104 81.7798 149.81 82.7035 151.699C83.1234 152.581 82.9554 153.589 83.1654 154.555C83.6692 156.654 86.1885 157.746 88.3299 157.326L91.2271 162.826C90.8911 165.387 90.5552 167.949 89.5895 170.342C88.6238 172.735 86.9023 174.919 84.551 175.926C82.5356 176.766 80.2682 176.724 78.0849 176.892C75.9015 177.102 73.5502 177.648 72.2066 179.411C71.2828 180.587 70.9889 182.099 70.2331 183.358C68.5116 186.213 63.851 188.103 61.2897 186.045C59.2323 184.408 58.0147 181.763 58.0567 179.117C56.4191 181.133 52.5143 180.125 52.0524 177.564C51.8845 176.64 52.0524 175.59 51.5485 174.835C50.2889 172.903 46.9299 174.793 44.9985 173.533C42.4792 171.854 44.9565 167.025 42.5212 165.219C41.2615 164.296 39.3721 164.8 37.9865 164.044C34.8794 162.364 37.3567 156.906 35.0054 154.261C33.2419 152.329 29.6729 152.917 28.0354 150.86C25.936 148.172 29.0431 143.596 26.8177 141.034C25.978 140.069 24.5924 139.733 23.5847 138.935C21.3593 137.172 21.5692 133.855 21.7372 130.999C21.9052 128.144 21.4853 124.659 18.84 123.652C18.0843 123.358 17.2445 123.316 16.6147 122.854C14.3054 121.258 16.6147 117.185 14.8932 114.96C13.9275 113.742 12.038 113.616 10.9463 112.483C8.25911 109.67 12.7518 104.085 9.93861 101.398C9.3088 100.81 8.42706 100.516 7.71326 100.012C5.65586 98.4588 5.82381 95.3517 6.66357 92.9164C7.12543 91.5728 7.67127 89.8093 6.57959 88.8856C5.99176 88.3817 5.11002 88.3817 4.39623 88.0878C2.29684 87.1641 2.4228 84.141 3.30454 81.9996C4.18629 79.9002 5.48792 77.5909 4.60617 75.4915C3.55647 76.7091 1.33111 75.6594 0.911232 74.1059C0.407379 72.5943 1.12117 70.9988 1.75098 69.4872Z" fill="#F8EFC2"/>
<path d="M17.5382 27.7094C17.4962 28.6331 17.5802 29.8508 18.4619 30.1867C20.0155 29.3049 19.7216 27.0796 19.7635 25.3161C19.8055 23.0068 20.6453 20.7814 21.527 18.682C22.6187 16.1628 23.7944 13.6435 25.096 11.2082C25.7678 9.94856 28.665 5.16195 27.5313 3.77635C25.9357 1.84491 23.0806 8.39501 22.4927 9.57067C19.6796 15.239 17.9581 21.4112 17.5382 27.7094Z" fill="#FFB094"/>
<path d="M43.3608 4.11216C43.3189 3.90222 43.2769 3.65029 43.1509 3.48234C42.731 3.06246 42.0172 3.56632 41.6393 4.07017C39.7499 6.50546 37.9024 8.98274 36.097 11.502C33.5777 14.945 31.0584 18.7659 31.0584 23.0487C32.0661 22.2509 33.0738 21.4951 34.0815 20.6973C34.4594 20.4034 34.8373 20.1095 35.0892 19.7316C35.3412 19.3537 35.5091 18.8919 35.6351 18.43C36.3909 16.3306 37.6085 14.3992 38.8262 12.5517C40.4637 10.1164 43.3608 7.17727 43.3608 4.11216Z" fill="#FFB094"/>
<path d="M46.3418 73.1402C39.9176 74.2738 33.1996 73.644 27.1113 71.3767C24.1302 70.243 21.2331 68.6894 18.9657 66.4641C16.6984 64.1968 15.1028 61.1736 14.9769 57.9826C14.8089 53.5318 17.7901 49.1231 21.9888 47.6116C23.1225 47.1917 24.5921 46.7718 24.76 45.5542C24.886 44.5884 24.0462 43.7907 23.2065 43.3288C22.3667 42.9089 21.359 42.657 20.6872 41.9852C19.9734 41.3134 19.8055 40.0118 20.6032 39.5079C21.611 38.8781 23.2485 39.9278 23.9203 38.9621C24.4661 38.1223 23.4164 37.1986 22.5347 36.6527C21.6529 36.1489 20.8552 34.8053 21.6949 34.3014C21.9049 34.1755 22.1988 34.1335 22.4507 34.1335C25.6418 34.0495 28.5809 35.729 31.2682 37.4505C32.1919 38.0383 33.7454 38.5002 34.1233 37.4505C34.3752 36.7787 33.8294 36.1069 33.1996 35.771C32.5698 35.4351 31.856 35.2671 31.3941 34.7633C30.8903 34.2594 30.8903 33.2517 31.5201 32.9998C31.9399 32.8318 32.4018 33.1258 32.7797 33.3777C34.0813 34.2594 35.5089 35.1412 37.1045 35.2252C38.7 35.3091 40.4215 34.3014 40.5894 32.7059C40.5894 32.5379 40.5894 32.37 40.5894 32.202L42.5209 32.9578C51.4643 36.2329 60.3657 39.34 69.3091 42.615C71.9544 43.5807 74.6416 44.5884 76.9929 46.184C81.5696 49.2911 84.3408 54.3296 86.6081 59.3682C86.7761 59.746 86.944 60.1239 86.818 60.5018C86.6501 60.9637 86.1462 61.2156 85.6424 61.3836C80.8558 63.0211 75.7752 63.7349 70.7787 63.5249C75.3554 67.9337 82.3673 69.9911 88.4976 68.2276C85.9783 71.6706 81.6955 73.728 77.4128 73.518C72.5842 73.2661 68.2594 70.327 63.4308 69.7811C58.9801 69.2773 54.7393 70.8728 50.4146 72.1744C50.4146 72.3424 50.4566 72.5103 50.4566 72.6783C49.071 72.5943 47.6854 72.9302 46.3418 73.1402Z" fill="#FFB094"/>
<path d="M78.5047 57.9826C77.8749 56.891 77.2031 55.8413 76.4893 54.7916C76.1114 54.2457 75.6915 53.6579 75.1457 53.28C73.6761 52.1883 71.6607 52.5242 69.8972 52.1043C68.3437 51.7265 66.9161 50.6768 66.1183 49.2912C65.9924 49.0812 65.8664 48.8293 65.9084 48.6194C65.9924 47.9475 66.9161 47.9476 67.5879 48.0315C68.4696 48.1575 69.3514 48.1575 70.1911 48.0315C70.4851 47.9895 70.8629 47.8636 70.9049 47.5697C70.9049 47.3597 70.779 47.1918 70.653 47.0658C68.8895 45.3023 66.2863 44.6305 63.893 44.0007C58.0147 42.4471 52.2203 40.4317 46.636 38.0384C45.6702 37.6185 44.6625 37.1567 43.8648 36.4849C43.067 35.7711 42.4792 34.7634 42.5212 33.7137C42.5212 33.4617 42.5631 33.2518 42.6471 33.0419C51.5485 36.2749 60.366 39.382 69.2674 42.6151C71.9126 43.5808 74.5999 44.5885 76.9512 46.1841C81.5279 49.2912 84.2991 54.3297 86.5664 59.3682C86.7343 59.7461 86.9023 60.124 86.7763 60.5019C86.6084 60.9638 86.1045 61.2157 85.6007 61.3836C84.593 61.7196 83.5853 62.0135 82.5356 62.2654C82.0317 62.0974 81.5279 61.8455 81.108 61.5096C79.9743 60.5859 79.2605 59.2423 78.5047 57.9826Z" fill="white" fill-opacity="0.32"/>
<path d="M77.371 73.4341C72.5424 73.1821 68.2177 70.243 63.3891 69.6971C58.9384 69.1933 54.6976 70.7888 50.3729 72.0904C50.3729 72.2584 50.4148 72.4263 50.4148 72.5943C49.0712 72.5523 47.6856 72.8462 46.342 73.0981C39.9179 74.2318 33.1998 73.602 27.1116 71.3347C24.1305 70.201 21.2333 68.6474 18.966 66.4221C16.6986 64.1547 15.1031 61.1316 14.9771 57.9405C14.8092 54.1616 16.9505 50.4247 20.1836 48.4513C18.4201 52.3981 18.2102 56.7229 20.3516 60.6697C22.8288 65.2464 27.6154 68.3115 32.696 69.4452C37.7765 70.6209 43.109 70.075 48.1895 68.8574C53.5219 67.5977 58.8544 65.5823 64.2708 66.3381C69.4353 67.0519 74.054 70.159 79.2185 70.9568C81.5278 71.3347 83.9211 71.1667 86.1465 70.5789C83.6692 72.5523 80.5201 73.602 77.371 73.4341Z" fill="black" fill-opacity="0.08"/>
<path d="M40.6316 36.9886C39.12 37.8284 37.3145 37.7864 35.593 37.5765C35.887 39.13 34.5853 40.6416 33.0318 41.0195C31.5202 41.3554 29.8827 40.8095 28.5811 39.9278C27.0275 38.9201 25.5999 37.3665 23.7525 37.4505C23.6685 37.4505 23.5845 37.4505 23.5006 37.4925C23.2066 37.1566 22.8287 36.8627 22.4509 36.6527C21.5691 36.1489 20.7713 34.8053 21.6111 34.3014C21.821 34.1755 22.1149 34.1335 22.3669 34.1335C25.5579 34.0495 28.4971 35.729 31.1843 37.4505C32.1081 38.0383 33.6616 38.5002 34.0395 37.4505C34.2914 36.7787 33.7456 36.1069 33.1158 35.771C32.4859 35.4351 31.7721 35.2671 31.3103 34.7633C30.8064 34.2594 30.8064 33.2517 31.4362 32.9998C31.8561 32.8318 32.318 33.1258 32.6959 33.3777C33.9975 34.2594 35.4251 35.1412 37.0206 35.2252C38.6162 35.3091 40.3377 34.3014 40.5056 32.7059C40.5056 32.5379 40.5056 32.37 40.5056 32.202L42.4371 32.9578C42.605 32.9998 42.731 33.0838 42.8989 33.1258C42.8989 34.5533 41.8492 36.3168 40.6316 36.9886Z" fill="black" fill-opacity="0.08"/>
<path d="M50.1206 42.909C49.7008 45.3443 49.4908 47.8215 48.819 50.2149C48.1472 52.6082 46.8876 54.9175 44.8302 56.2611C42.9827 57.5207 40.6314 57.8566 38.406 57.6887C36.1387 57.5207 33.8713 56.8069 32.0239 55.4633C30.1764 54.1197 28.8328 52.0623 28.4969 49.837C28.329 48.5353 28.4129 47.0658 27.4892 46.142C26.8594 45.5122 25.8937 45.3443 25.1379 44.7984C24.718 44.5045 24.3401 43.9587 24.55 43.4548C24.76 42.951 25.3898 42.825 25.9356 42.783C34.0393 42.0692 42.059 40.1798 49.6588 37.1566C50.7924 36.6948 54.1095 35.5611 52.7659 37.7025C52.262 38.5002 51.4223 38.9621 51.0024 39.8858C50.5405 40.8096 50.2886 41.8593 50.1206 42.909Z" fill="black" fill-opacity="0.08"/>
<path d="M84.5089 175.968C82.4934 176.808 80.2261 176.766 78.0427 176.934C75.8594 177.144 73.508 177.69 72.1644 179.453C71.2407 180.629 70.9468 182.141 70.191 183.4C68.4695 186.255 63.8089 188.145 61.2476 186.087C59.1902 184.45 57.9725 181.805 58.0145 179.159C56.377 181.175 52.4721 180.167 52.0103 177.606C51.8423 176.682 52.0103 175.633 51.5064 174.877C50.2468 172.945 46.8878 174.835 44.9563 173.575C42.437 171.896 44.9143 167.067 42.479 165.262C41.2194 164.338 39.33 164.842 37.9444 164.086C34.8373 162.406 37.3145 156.948 34.9632 154.303C33.1997 152.371 29.6308 152.959 27.9932 150.902C25.8939 148.214 29.0009 143.638 26.7756 141.077C25.9358 140.111 24.5502 139.775 23.5425 138.977C21.3172 137.214 21.5271 133.897 21.6951 131.041C21.863 128.186 21.4431 124.701 18.7979 123.694C18.0421 123.4 17.2024 123.358 16.5725 122.896C14.2632 121.3 16.5725 117.227 14.851 115.002C13.8853 113.784 11.9959 113.658 10.9042 112.525C8.21697 109.712 12.7097 104.127 9.89648 101.44C9.26667 100.852 8.38492 100.558 7.67113 100.054C7.33522 99.8025 7.0833 99.5086 6.83137 99.1727C7.16727 99.0047 7.50317 98.8788 7.83907 98.7948C10.3164 98.207 12.7517 100.138 13.8014 102.448C14.851 104.757 14.935 107.36 15.3969 109.838C15.9007 112.315 16.9924 114.918 19.3018 116.052C21.821 117.269 25.306 116.43 27.1115 118.571C29.4208 121.258 26.8176 126.213 29.4208 128.564C31.3523 130.328 35.1312 128.144 34.5433 125.541C36.6007 126.339 36.7687 129.152 36.7267 131.377C36.6847 133.603 37.3565 136.458 39.5399 136.71C40.8835 136.878 42.1851 135.828 43.5287 136.038C45.7961 136.374 46.174 139.439 46.132 141.706C46.006 146.787 47.3496 152.833 52.0942 154.639C53.6478 155.226 55.4533 155.31 56.7129 156.402C58.6863 158.124 58.2245 161.189 57.8886 163.792C57.5527 166.353 58.0985 169.754 60.6178 170.342C62.2973 170.72 64.0608 169.502 64.7746 167.907C65.5304 166.353 65.5304 164.506 65.5304 162.784C66.9999 163.498 67.5458 165.262 67.7557 166.857C67.9237 168.453 67.8817 170.174 68.6375 171.602C69.3932 173.029 71.4087 173.953 72.6683 172.987C74.0119 171.938 74.1799 169.166 75.8594 169.334C77.287 169.46 77.4129 171.56 78.4626 172.483C79.4703 173.365 81.1498 172.987 82.0736 171.98C82.9973 171.014 83.3332 169.628 83.6691 168.327C83.4592 169.922 85.6005 170.804 87.1961 170.552C88.0778 170.426 88.9596 170.09 89.8413 169.964C89.7573 170.174 89.7153 170.342 89.6314 170.552C88.5817 172.777 86.8602 174.961 84.5089 175.968Z" fill="#F8EFC2"/>
<path d="M19.3017 66.842C21.0232 70.6629 24.2983 73.6021 27.8253 75.9114C31.3522 78.2207 35.1312 80.0682 38.6161 82.4615C40.5056 83.7631 42.3111 85.2747 43.2768 87.3321C42.7309 87.8779 41.6813 87.71 41.2194 88.2978C40.7155 88.9696 41.3454 89.9353 42.0591 90.3552C42.7729 90.7751 43.6967 91.027 44.1585 91.7408C44.8723 92.8325 44.1165 94.3861 44.6624 95.6037C45.3342 97.1153 47.3916 97.1992 49.0711 97.1153C50.7086 97.0733 52.892 97.6191 53.018 99.2567C53.1019 100.642 51.6744 102.154 52.5561 103.162C53.6478 104.379 56.377 102.49 57.1328 103.959C57.5527 104.799 56.7129 105.933 57.2167 106.73C57.5946 107.318 58.5184 107.318 59.0642 106.898C59.6101 106.479 59.904 105.807 60.1559 105.135C60.5338 104.169 60.9117 103.204 60.9117 102.196C60.9957 98.7948 57.3007 96.5694 56.251 93.3784C56.0831 92.8325 55.9991 92.2447 56.1671 91.6988C56.5869 90.4392 58.2245 90.0613 59.0222 89.0116C59.694 88.1299 59.694 86.9122 59.3161 85.8625C58.9382 84.8548 58.2245 83.9731 57.5107 83.1333C56.377 81.7897 55.2433 80.4461 54.1516 79.1025C52.3882 77.0031 50.5407 74.5678 50.8346 71.8386C40.1697 75.2816 28.2032 73.4761 19.3017 66.842Z" fill="#F8EFC2"/>
<path d="M90.765 165.597C90.975 165.597 91.1429 165.471 91.2269 165.304C91.8987 164.002 91.9827 162.364 91.4788 160.853C90.975 159.341 89.9253 158.082 88.6237 157.452C87.9938 157.158 87.322 156.906 86.6502 156.696C85.1387 156.192 83.6691 155.73 83.4592 154.471C83.4172 154.135 83.4172 153.799 83.4592 153.379C83.5011 152.917 83.5431 152.455 83.4592 151.951C83.1233 150.188 81.4437 149.642 79.8482 149.138C78.8825 148.802 77.9168 148.508 77.245 147.921C76.0693 146.913 75.9853 145.233 75.9013 143.47C75.8174 142.042 75.7334 140.615 75.1036 139.313C74.4738 138.095 73.4241 137.172 72.4164 136.29C71.1987 135.24 70.065 134.275 69.7711 132.889C69.6452 132.133 69.7711 131.335 69.9391 130.496C70.107 129.53 70.275 128.48 70.023 127.472C69.6032 125.961 68.3855 124.911 67.2099 123.904C65.8662 122.77 64.6906 121.762 64.9005 120.377C64.9425 119.999 65.1105 119.663 65.2784 119.243C65.4044 118.949 65.5723 118.613 65.6563 118.235C66.3701 115.674 64.5646 113.575 62.8011 111.559C61.1636 109.67 59.5681 107.864 60.1979 105.849C60.3239 105.513 60.4918 105.177 60.6598 104.841C60.8277 104.505 61.0377 104.169 61.1636 103.791C61.7514 102.112 61.2896 100.054 59.736 97.8291C59.4841 97.4512 59.1902 97.0733 58.9383 96.7374C58.0145 95.5198 57.1748 94.3861 56.7969 93.0425C56.5869 92.2867 56.5869 91.195 57.2587 90.6912C57.4687 90.5232 57.7626 90.4392 58.0565 90.3133C58.3924 90.1873 58.8123 90.0194 59.1482 89.7674C60.3658 88.8017 60.1979 87.0382 59.6521 85.6946C58.7703 83.5532 57.1328 81.7478 55.5792 80.0263C53.4379 77.633 51.3804 75.3656 51.3385 72.4265C51.3385 72.1325 51.0865 71.8806 50.7926 71.8806C50.4987 71.8806 50.2468 72.1325 50.2468 72.4265C50.2888 75.7855 52.5561 78.3048 54.7395 80.74C56.251 82.4196 57.8046 84.1411 58.6443 86.1145C59.0222 87.0382 59.2322 88.3398 58.4764 88.9277C58.2664 89.0956 57.9725 89.1796 57.6786 89.3056C57.3427 89.4315 56.9648 89.5575 56.6289 89.8514C55.5372 90.6912 55.4953 92.1607 55.7892 93.2944C56.209 94.848 57.1748 96.1496 58.0985 97.3672C58.3504 97.7031 58.6443 98.081 58.8963 98.4589C59.82 99.8025 60.7857 101.734 60.1979 103.455C60.0719 103.749 59.946 104.043 59.778 104.379C59.5681 104.757 59.3581 105.135 59.2322 105.555C58.3924 108.116 60.2399 110.216 62.0454 112.273C63.6829 114.162 65.2364 115.968 64.6906 117.941C64.6066 118.235 64.4806 118.487 64.3547 118.781C64.1447 119.201 63.9768 119.663 63.8928 120.167C63.5989 122.14 65.1105 123.442 66.5381 124.701C67.5878 125.625 68.7214 126.549 69.0153 127.766C69.2253 128.564 69.0573 129.404 68.9314 130.328C68.7634 131.209 68.5955 132.133 68.8054 133.099C69.1413 134.862 70.4849 136.038 71.7865 137.13C72.7942 137.969 73.718 138.767 74.2218 139.817C74.7677 140.909 74.8516 142.252 74.9356 143.554C75.0616 145.443 75.1456 147.417 76.6571 148.718C77.4969 149.432 78.5886 149.81 79.6383 150.146C81.0658 150.608 82.2835 151.028 82.5354 152.161C82.6194 152.497 82.5774 152.875 82.5354 153.253C82.4934 153.715 82.4514 154.135 82.5354 154.639C82.8713 156.528 84.8028 157.158 86.4823 157.704C87.1121 157.914 87.7839 158.124 88.3297 158.376C89.3794 158.879 90.2612 159.929 90.6811 161.147C91.1009 162.406 91.017 163.708 90.4711 164.758C90.3452 165.01 90.4291 165.346 90.723 165.471C90.5971 165.597 90.6811 165.597 90.765 165.597Z" fill="black" fill-opacity="0.01"/>
<path d="M82.9132 62.3074C82.9552 62.3074 82.9972 62.3074 83.0391 62.3074C83.3751 62.2234 83.585 61.9295 83.501 61.5936C82.7032 57.7307 80.9817 54.4556 78.1686 51.6844C77.9166 51.4325 77.5387 51.4325 77.3288 51.6844C77.0769 51.9364 77.0769 52.3142 77.3288 52.5242C79.974 55.1274 81.6116 58.1925 82.3254 61.8455C82.4093 62.0974 82.6613 62.3074 82.9132 62.3074Z" fill="#231F20"/>
<path d="M75.4393 52.7761C76.1111 52.7761 76.7409 52.7341 77.4127 52.5662C77.6227 52.5242 77.8746 52.4402 78.0425 52.2723C78.2105 52.1463 78.3365 51.9364 78.4204 51.8104C79.0503 50.6768 79.3862 50.0049 79.6801 48.7873C79.764 48.4514 79.5541 48.1575 79.2602 48.0735C78.9243 47.9895 78.6304 48.1995 78.5464 48.4934C78.2945 49.5851 77.9586 50.2149 77.4127 51.1806C77.4127 51.2226 77.3288 51.3066 77.3288 51.3066C77.3288 51.3066 77.2868 51.3486 77.1608 51.3486C75.9432 51.6425 74.6415 51.5165 73.172 51.3486C71.1985 51.0966 69.3091 50.8447 67.6716 49.963C67.3776 49.795 67.0417 49.6271 66.8318 49.3331C66.6638 49.1232 66.5799 48.8293 66.6219 48.6193C66.7058 48.2834 66.5379 47.9895 66.202 47.8636C65.8661 47.7796 65.5722 47.9475 65.4462 48.2834C65.2782 48.8713 65.4462 49.5431 65.8661 50.0469C66.244 50.5088 66.7058 50.8027 67.1257 51.0127C68.9732 51.9784 70.9466 52.2723 73.046 52.5242C73.8438 52.6922 74.6415 52.7761 75.4393 52.7761Z" fill="#231F20"/>
<path d="M90.1354 65.3305C90.1774 65.2885 90.2194 65.2045 90.1774 65.1625C90.1774 65.1206 90.0935 65.0786 90.0515 65.0366C89.7156 64.8266 89.3377 64.6167 89.0018 64.3648C88.9178 64.3228 88.8338 64.2388 88.7079 64.2808C88.6239 64.2808 88.5819 64.3648 88.4979 64.4488C87.9941 65.0366 87.4902 65.6244 86.9864 66.2122C87.0283 65.4145 87.1123 64.6587 87.2803 63.8609C86.4825 63.735 85.6847 63.609 84.929 63.483C84.803 63.483 84.677 63.441 84.593 63.525C84.4671 63.609 84.4251 63.7769 84.4251 63.9449C84.2991 64.7847 83.9632 65.5824 83.4174 66.2542C83.2914 65.7504 83.2494 65.2045 83.2914 64.7007C81.0241 65.2465 78.5888 65.3725 76.2795 64.9946C76.1955 64.9946 76.0695 64.9526 76.0275 65.0366C75.9855 65.0786 75.9855 65.1625 75.9436 65.2045C75.8596 65.6664 75.8176 66.0863 75.7336 66.5481C75.7336 66.6321 75.6916 66.7581 75.7336 66.8421C75.7756 66.926 75.9016 67.01 75.9855 67.052C76.3215 67.2199 76.6574 67.3459 77.0352 67.4719C78.4628 68.0177 80.0164 68.2277 81.5279 68.3956C83.2075 68.5636 84.929 68.6475 86.6505 68.4376C87.5322 68.3116 88.0361 68.2696 88.5819 67.5139C89.1697 66.7581 89.6316 66.0443 90.1354 65.3305Z" fill="white"/>
<path d="M75.8174 66.5481C75.8594 66.3802 75.8594 66.2122 75.9013 66.0443C75.9433 66.0023 75.9433 65.9603 75.9853 65.9183C76.9091 66.2962 77.8328 66.6321 78.7985 66.926C80.0162 67.3039 81.3178 67.5978 82.4934 67.2199C82.9553 67.052 83.4172 66.8001 83.5851 66.3382C83.921 67.01 84.6348 67.4719 85.3906 67.4719C86.1464 67.4719 86.8602 67.01 87.1961 66.2962C87.2801 66.5901 87.616 66.6321 87.9099 66.6321C88.6237 66.5481 89.2955 66.2542 89.8413 65.7504C89.7993 65.8343 89.7993 65.8763 89.7573 65.9603C89.4214 66.4642 89.0435 67.01 88.6657 67.5139C88.1198 68.2696 87.6579 68.3116 86.7342 68.4376C85.0547 68.6895 83.3332 68.6055 81.6117 68.3956C80.1001 68.2276 78.5466 68.0177 77.119 67.4719C76.7831 67.3459 76.4472 67.2199 76.1113 67.052C76.0273 66.968 75.9433 66.8421 75.9013 66.7161C75.8174 66.6321 75.8174 66.5901 75.8174 66.5481Z" fill="#D8D8D8"/>
<path d="M84.5087 68.7735C85.2645 68.7735 86.0203 68.7315 86.776 68.6475H86.86C87.6998 68.5215 88.2456 68.4376 88.8334 67.6818C89.3373 66.968 89.8412 66.2542 90.345 65.5404C90.387 65.4984 90.471 65.3305 90.429 65.1625C90.387 65.0366 90.261 64.9526 90.219 64.9106L89.1694 64.2388C89.0854 64.1968 88.9174 64.0708 88.7075 64.1128C88.5395 64.1548 88.4556 64.2808 88.3716 64.3228L87.3219 65.5404C87.3639 64.9946 87.4478 64.4487 87.5738 63.9029C87.5738 63.8609 87.5738 63.7769 87.5318 63.7349C87.4898 63.6929 87.4478 63.651 87.3639 63.651L85.0126 63.2731C84.8866 63.2731 84.6767 63.2311 84.5087 63.3151C84.2988 63.441 84.2568 63.7349 84.2148 63.9029C84.1308 64.5327 83.9209 65.1205 83.585 65.6664C83.543 65.3725 83.543 65.0366 83.543 64.7007C83.543 64.6167 83.501 64.5747 83.459 64.5327C83.417 64.4907 83.333 64.4907 83.2491 64.4907C81.0237 65.0366 78.6304 65.1625 76.3211 64.7846C76.2371 64.7846 76.0272 64.7426 75.8592 64.8686C75.7752 64.9526 75.7332 65.0785 75.7332 65.1625L75.5233 66.5061C75.5233 66.5901 75.4813 66.7581 75.5653 66.926C75.6493 67.094 75.8172 67.1779 75.9012 67.2199C76.2371 67.3879 76.615 67.5558 76.9509 67.6818C78.5044 68.2276 80.142 68.4796 81.5276 68.6055C82.4513 68.6895 83.459 68.7735 84.5087 68.7735ZM89.9251 65.2045C89.4213 65.9183 88.9174 66.6321 88.4136 67.3459C87.9517 67.9757 87.5738 68.0177 86.7341 68.1437H86.6501C84.8446 68.3956 82.9971 68.2696 81.6115 68.1017C80.2679 67.9757 78.6724 67.7658 77.1608 67.2199C76.8249 67.094 76.489 66.968 76.1531 66.8001C76.1111 66.8001 76.0272 66.7581 76.0272 66.7161C76.0272 66.6741 76.0272 66.5901 76.0272 66.5481L76.2371 65.2045C76.2371 65.2045 76.2371 65.2045 76.2371 65.1625H76.2791C78.5044 65.4984 80.8558 65.4145 83.0811 64.9106C83.0811 65.3305 83.1231 65.7923 83.2071 66.2122C83.2071 66.2962 83.2911 66.3802 83.375 66.3802C83.459 66.3802 83.543 66.3802 83.627 66.2962C84.1728 65.5824 84.5507 64.7426 84.6767 63.8609C84.6767 63.7769 84.7186 63.651 84.7606 63.609C84.8026 63.609 84.8866 63.609 84.9286 63.609L87.07 63.9449C86.902 64.6587 86.818 65.3725 86.818 66.0863C86.818 66.1702 86.86 66.2542 86.944 66.2962C87.028 66.3382 87.1539 66.2962 87.1959 66.2122L88.7075 64.4487C88.7075 64.4487 88.7495 64.3648 88.7915 64.3648C88.7915 64.3648 88.8334 64.4067 88.9174 64.4067L89.9251 65.2045ZM89.9671 65.1625L90.1351 65.3305L89.9671 65.2045V65.1625Z" fill="black" fill-opacity="0.59"/>
<path d="M50.7924 38.0803C50.4565 38.1643 50.1626 38.2903 49.9107 38.5002C49.5748 38.7941 49.4488 39.298 49.3649 39.7179C48.987 41.7333 48.987 43.7907 48.777 45.8061C48.5671 47.8215 48.1052 49.9209 47.0135 51.6424C45.1661 54.5396 41.5131 56.0511 38.1121 55.6313C34.7111 55.2114 31.646 52.986 29.8825 50.0469C29.1267 48.7452 28.5809 47.3177 28.203 45.8481C28.119 45.4702 27.9931 45.0923 27.7831 44.7984C27.2793 44.2106 26.3555 44.2106 25.5998 44.0846C24.802 43.9586 23.9202 43.3708 24.1302 42.615C24.2561 42.1951 24.718 41.9432 25.1379 41.9012C25.5578 41.8592 26.0196 41.9432 26.4395 41.9852C27.8251 42.1112 29.2107 41.7333 30.5543 41.3554C36.2647 39.7599 42.017 38.1643 47.7273 36.5688C49.5748 36.0649 51.5482 35.5611 53.3537 36.1909C54.0255 36.4428 54.7813 36.8627 55.2012 37.4505C54.6553 37.7444 53.6896 37.5345 53.0598 37.6185C52.262 37.7444 51.5482 37.8704 50.7924 38.0803Z" fill="#231F20"/>
<path d="M63.8511 187.473C64.2289 187.473 64.6068 187.431 65.0267 187.347C67.2521 186.969 69.5194 185.458 70.6111 183.652C70.947 183.064 71.2409 182.476 71.4509 181.847C71.7868 181.091 72.0807 180.377 72.5425 179.747C73.5502 178.446 75.3557 177.69 78.0429 177.438C78.5048 177.396 79.0087 177.354 79.4705 177.354C81.192 177.27 82.9975 177.144 84.677 176.43C86.9444 175.465 88.8338 173.365 90.0095 170.552C91.0172 168.075 91.3531 165.471 91.689 162.91C91.731 162.616 91.521 162.364 91.2271 162.322C90.9332 162.28 90.6813 162.49 90.6393 162.784C90.3034 165.261 89.9675 167.823 89.0438 170.174C87.9941 172.735 86.3145 174.625 84.2991 175.465C82.8296 176.094 81.192 176.178 79.4705 176.304C78.9667 176.346 78.5048 176.346 78.001 176.388C75.0198 176.64 72.9624 177.522 71.7448 179.075C71.1989 179.789 70.863 180.629 70.5271 181.427C70.2752 182.015 70.0653 182.56 69.7294 183.064C68.7636 184.66 66.8322 185.919 64.8588 186.255C63.935 186.423 62.5914 186.423 61.5417 185.584C59.6103 184.03 58.4346 181.553 58.5186 179.075C58.5186 178.866 58.3926 178.656 58.1827 178.572C57.9728 178.488 57.7208 178.572 57.5949 178.74C56.8391 179.663 55.5795 179.705 54.6977 179.495C53.774 179.243 52.7243 178.614 52.5143 177.438C52.4724 177.144 52.4304 176.85 52.4304 176.556C52.3884 175.884 52.3464 175.171 51.9265 174.499C51.0868 173.155 49.4912 173.281 48.0636 173.365C47.0139 173.449 45.9223 173.491 45.2085 173.029C44.1588 172.357 44.1588 170.888 44.1588 169.334C44.1588 167.655 44.1588 165.807 42.7312 164.716C41.9334 164.128 41.0097 164.044 40.0859 163.918C39.3722 163.834 38.7003 163.792 38.1545 163.498C36.7689 162.742 36.6849 161.021 36.6429 159.005C36.601 157.116 36.517 155.184 35.2993 153.841C34.3336 152.791 32.948 152.413 31.6044 152.077C30.3028 151.741 29.0851 151.405 28.3713 150.482C27.4896 149.348 27.6995 147.711 27.9095 145.989C28.1614 144.1 28.4133 142.084 27.1117 140.615C26.5659 139.985 25.8101 139.607 25.1383 139.229C24.6764 138.977 24.2145 138.767 23.8367 138.431C21.8212 136.836 22.0312 133.561 22.1991 130.957C22.3671 128.564 22.1571 124.323 18.9661 123.064C18.6721 122.938 18.3363 122.854 18.0423 122.77C17.5805 122.644 17.1606 122.56 16.8247 122.308C15.859 121.636 15.901 120.293 15.9849 118.781C16.0689 117.269 16.1529 115.716 15.1872 114.54C14.5993 113.784 13.7596 113.406 12.9618 113.071C12.29 112.777 11.6602 112.483 11.2403 112.021C10.1066 110.845 10.4845 108.956 10.9044 106.982C11.3663 104.799 11.8281 102.49 10.1906 100.936C9.77073 100.558 9.30888 100.306 8.84701 100.054C8.51111 99.8864 8.21719 99.7185 7.96526 99.5085C6.1178 98.1229 6.36972 95.1418 7.1255 93.0424C7.54538 91.8667 8.34315 89.6414 6.87357 88.4237C6.41171 88.0458 5.86587 87.9199 5.36201 87.7939C5.06809 87.7099 4.81617 87.668 4.56425 87.542C2.67479 86.7022 3.05269 83.8051 3.76648 82.1675C3.89244 81.8736 4.0184 81.5797 4.14436 81.2858C4.98412 79.3963 5.90786 77.255 5.0681 75.2396C4.98413 75.0716 4.85816 74.9456 4.64822 74.9037C4.48027 74.8617 4.27033 74.9456 4.14436 75.0716C3.80846 75.4495 3.3466 75.4495 3.01069 75.3655C2.25491 75.1976 1.58311 74.5677 1.41515 73.8959C1.03727 72.5103 1.70908 71.0408 2.29691 69.6132C3.0107 67.9337 3.59853 66.1702 2.92672 64.5327C2.75877 64.1128 2.50684 63.7349 2.25491 63.357C2.04498 63.0211 1.83504 62.7272 1.70908 62.3913C0.953293 60.5438 2.25491 58.9063 3.72449 57.0168C4.73219 55.7152 5.78189 54.3716 6.24376 52.86C6.57966 51.7684 6.57966 50.5507 6.57966 49.417C6.57966 47.7375 6.57966 46.142 7.62935 45.0923C8.00724 44.7144 8.55309 44.4205 9.09892 44.0846C9.98067 43.6227 10.8624 43.1189 11.3243 42.1532C11.9121 40.9355 11.4922 39.6759 11.1143 38.4582C10.8624 37.6605 10.6105 36.9467 10.6105 36.2329C10.6525 35.1832 11.2403 34.2175 11.8701 33.2097C11.9961 32.9998 12.1221 32.8319 12.206 32.6639C14.6833 28.6751 15.3551 23.9304 16.0269 19.3538C16.1949 18.2621 16.3628 17.1284 16.5308 16.0367C17.7484 8.89879 20.3517 4.15417 24.2985 1.9708C25.0123 1.55092 25.5582 1.42496 25.978 1.59291C26.8598 1.88682 26.9857 3.23043 26.8178 4.32212C26.3139 7.89108 24.6344 11.1661 23.0389 14.3152C20.8555 18.598 18.5882 23.0487 19.3859 28.1292C19.4279 28.4231 19.7218 28.6331 20.0158 28.5911C20.3097 28.5491 20.5196 28.2552 20.4776 27.9613C19.7218 23.2166 21.8212 19.1438 24.0046 14.7771C25.6421 11.544 27.3636 8.185 27.9095 4.44808C28.1194 2.89453 27.8255 1.08905 26.3559 0.585199C25.3902 0.249296 24.4245 0.711163 23.7947 1.04707C19.5539 3.39838 16.7827 8.39493 15.4811 15.8688C15.2711 16.9605 15.1032 18.1361 14.9772 19.2278C14.3054 23.6785 13.6336 28.2972 11.2823 32.1181C11.1563 32.286 11.0724 32.4959 10.9464 32.6639C10.2326 33.7556 9.51881 34.8893 9.47682 36.2329C9.43484 37.1146 9.72874 37.9964 10.0227 38.8361C10.4006 39.9278 10.6945 40.8935 10.3166 41.7333C9.98068 42.4051 9.26688 42.783 8.5111 43.2028C7.92327 43.5387 7.29345 43.8746 6.7896 44.3785C5.44598 45.7221 5.44599 47.6116 5.44599 49.417C5.44599 50.5087 5.44598 51.6004 5.15207 52.5661C4.73219 53.9097 3.76647 55.1694 2.80075 56.345C1.2472 58.3185 -0.39032 60.3759 0.617393 62.8112C0.785339 63.231 1.03727 63.6089 1.24721 63.9448C1.45715 64.2807 1.66708 64.5746 1.79305 64.9106C2.2969 66.1702 1.79305 67.6817 1.16323 69.1513C0.491425 70.6629 -0.264351 72.4264 0.19751 74.1479C0.491425 75.1976 1.49913 76.1213 2.59081 76.3732C3.13665 76.4992 3.64051 76.4572 4.10238 76.2473C4.3543 77.6749 3.6825 79.2704 3.01069 80.782C2.88473 81.0759 2.75877 81.3698 2.6328 81.7057C1.58311 84.3089 1.70908 87.458 4.01841 88.4657C4.35431 88.5917 4.64822 88.6757 4.98412 88.7596C5.404 88.8436 5.78189 88.9696 6.07581 89.1795C6.87358 89.8513 6.4537 91.2789 5.99183 92.6225C5.06809 95.1838 4.90014 98.5848 7.20947 100.306C7.54537 100.558 7.92326 100.768 8.25917 100.936C8.67905 101.146 9.05694 101.356 9.39285 101.65C10.6105 102.784 10.1906 104.673 9.77073 106.688C9.30887 108.872 8.847 111.097 10.3586 112.693C10.9464 113.323 11.7022 113.658 12.416 113.952C13.1298 114.288 13.8436 114.582 14.2634 115.128C14.9352 116.01 14.8932 117.269 14.8093 118.655C14.7253 120.376 14.6413 122.098 16.1109 123.106C16.6148 123.442 17.1186 123.568 17.6645 123.694C17.9584 123.777 18.2103 123.819 18.4622 123.945C21.0235 124.953 21.1494 128.648 21.0235 130.789C20.8555 133.645 20.6036 137.214 23.0809 139.145C23.5427 139.523 24.0886 139.775 24.5924 140.027C25.2223 140.363 25.8521 140.657 26.2719 141.16C27.2377 142.294 27.0277 143.932 26.8178 145.695C26.5659 147.543 26.3139 149.474 27.4896 150.986C28.4133 152.203 29.8829 152.581 31.3105 152.959C32.5701 153.295 33.7458 153.589 34.5016 154.429C35.4673 155.52 35.5093 157.242 35.5513 158.921C35.5933 161.063 35.6772 163.288 37.6087 164.338C38.3644 164.758 39.1622 164.8 39.96 164.884C40.7578 164.968 41.5135 165.052 42.1014 165.471C43.0671 166.227 43.0671 167.655 43.0671 169.208C43.0671 170.888 43.0671 172.819 44.5786 173.827C45.6283 174.499 46.93 174.415 48.1056 174.331C49.5752 174.247 50.4989 174.205 51.0028 174.961C51.2547 175.381 51.2967 175.884 51.3387 176.472C51.3387 176.808 51.3807 177.144 51.4227 177.522C51.6746 178.908 52.8083 179.999 54.4038 180.419C55.5375 180.713 56.6292 180.587 57.5109 180.083C57.7628 182.518 58.9805 184.828 60.8699 186.339C61.6677 187.137 62.7174 187.473 63.8511 187.473Z" fill="black" fill-opacity="0.01"/>
<path d="M28.5811 21.4951C28.833 21.4951 29.0849 21.2852 29.1269 21.0332C30.1766 14.0633 33.6616 8.81479 36.9786 4.61601C37.7764 3.6083 38.6582 2.60059 39.7918 2.13873C40.7995 1.76084 42.2271 1.92879 42.773 2.89451C43.0669 3.39836 43.1089 4.07017 42.9829 4.90992C42.605 7.0513 41.1774 8.89877 39.8338 10.7042C39.4559 11.2081 39.078 11.67 38.7421 12.1738C36.7687 14.945 35.593 17.3383 34.7533 20.2775C34.6693 20.5714 34.8373 20.8653 35.1312 20.9493C35.4251 21.0332 35.719 20.8653 35.803 20.5714C36.6007 17.7582 37.6924 15.4909 39.6239 12.8036C39.9598 12.2998 40.3377 11.8379 40.7156 11.3341C42.1431 9.44461 43.6547 7.47118 44.0746 5.07787C44.2845 3.98619 44.1586 3.06246 43.7387 2.34867C42.8989 0.879092 40.8835 0.585178 39.4559 1.17301C38.0703 1.71885 37.0626 2.85252 36.1809 3.98619C32.8218 8.31094 29.2109 13.6854 28.1192 20.9073C28.0772 21.2012 28.2872 21.4531 28.5811 21.4951C28.4971 21.4951 28.5391 21.4951 28.5811 21.4951Z" fill="black" fill-opacity="0.01"/>
<path d="M40.6317 74.3159C42.3952 74.3159 44.0747 74.1899 45.6703 73.896C47.8536 73.5181 50.037 72.8463 52.1784 72.1745C55.9993 70.9989 59.6102 69.8652 63.3891 70.2851C65.6145 70.537 67.7979 71.3348 69.8973 72.0905C72.2906 72.9723 74.7678 73.854 77.4131 74.022C81.8218 74.2319 86.3565 72.0905 88.9597 68.5216C89.0857 68.3536 89.0857 68.1017 88.9597 67.8918C88.8338 67.7238 88.5818 67.6398 88.3719 67.6818C83.0814 69.1934 76.7833 67.7238 72.2486 64.0709C76.8672 64.1129 81.4439 63.3571 85.8526 61.8455C86.2305 61.7196 87.1123 61.4256 87.3642 60.6279C87.5321 60.04 87.2802 59.4522 87.1542 59.1163C84.9709 54.3297 82.1157 48.9553 77.3291 45.7222C74.9358 44.0847 72.1646 43.077 69.5194 42.1112C64.6488 40.3478 59.7362 38.5843 54.9916 36.8628C50.247 35.1832 45.3344 33.4198 40.4638 31.6143C40.1699 31.5303 39.876 31.6563 39.792 31.9502C39.708 32.2441 39.834 32.538 40.1279 32.622C44.9985 34.3855 49.911 36.149 54.6557 37.8705C59.4003 39.55 64.3129 41.3135 69.1835 43.1189C71.7867 44.0847 74.4319 45.0504 76.7413 46.6039C81.3179 49.711 84.0891 54.9175 86.1885 59.5782C86.3145 59.8721 86.4405 60.124 86.3565 60.334C86.2725 60.5859 85.8946 60.7538 85.5587 60.8378C80.8141 62.4334 75.8595 63.1471 70.863 62.9372C70.611 62.9372 70.4431 63.0632 70.3591 63.2731C70.2751 63.483 70.3171 63.735 70.4851 63.8609C74.8938 68.1017 81.4019 70.0751 87.1542 69.0674C84.719 71.6287 81.066 73.1402 77.539 72.9303C75.0618 72.8043 72.7944 71.9646 70.3591 71.0828C68.1758 70.2851 65.9504 69.4873 63.5991 69.2354C59.6102 68.8155 55.7054 69.9912 51.9684 71.1668C49.911 71.7966 47.7277 72.4684 45.6283 72.8463C41.8494 73.5181 37.6506 73.3502 32.78 72.3845C27.1956 71.2508 23.0388 69.3613 20.0997 66.6741C16.4467 63.3151 14.8092 58.3185 15.9849 54.2457C16.6567 51.9784 18.4202 49.963 20.7295 48.8713C22.7029 47.9476 24.7603 47.8636 26.4818 48.5774C26.7338 48.7033 27.0697 48.5774 27.1956 48.2835C27.3216 48.0315 27.1956 47.6956 26.9017 47.5697C24.8443 46.6879 22.493 46.8139 20.2676 47.8636C17.7064 49.0812 15.691 51.3486 14.9352 53.9098C13.6336 58.3605 15.3971 63.777 19.3439 67.4299C22.451 70.2851 26.7338 72.2585 32.5281 73.4342C35.3833 74.022 38.0705 74.3159 40.6317 74.3159Z" fill="#783521" fill-opacity="0.01"/>
<path d="M39.0362 87.8359C39.9179 87.8359 40.7577 87.416 41.3875 86.6602C41.7654 86.1984 42.0173 85.6525 42.1013 85.1067C42.2692 85.2746 42.4372 85.5266 42.6051 85.7365C43.067 86.3243 43.5709 86.9961 44.3686 87.2481C44.9565 87.458 45.6283 87.374 46.2161 86.9961C46.9299 86.5763 47.4757 85.8205 47.6437 85.0227C47.9376 83.5951 47.3078 82.1675 46.8039 81.2438C46.678 80.9919 46.3421 80.8659 46.0901 81.0339C45.8382 81.1598 45.7122 81.4957 45.8802 81.7477C46.3001 82.5454 46.8459 83.7211 46.594 84.8128C46.468 85.3166 46.1321 85.8205 45.6702 86.0724C45.4183 86.1984 45.0824 86.3243 44.7045 86.1984C44.2007 86.0304 43.8648 85.5686 43.4449 85.0647C42.983 84.4769 42.4792 83.8051 41.6814 83.5531C41.5135 83.5112 41.3035 83.5531 41.1356 83.6791C41.0096 83.8051 40.9256 84.015 41.0096 84.2249C41.1776 84.8128 41.0096 85.4426 40.5477 85.9884C40.1279 86.5343 39.498 86.8282 38.9102 86.7862C38.3224 86.7442 37.7765 86.3663 37.3986 85.7785C37.0208 85.1907 36.9788 84.5189 37.1887 83.973C37.3147 83.7211 37.1887 83.3852 36.8948 83.2592C36.6429 83.1333 36.307 83.2592 36.181 83.5531C35.8031 84.3929 35.8871 85.4426 36.4329 86.3243C36.9788 87.2061 37.8605 87.7939 38.7842 87.8359C38.9102 87.8359 38.9942 87.8359 39.0362 87.8359Z" fill="black" fill-opacity="0.59"/>
<path d="M25.012 100.474C25.054 100.474 25.096 100.474 25.138 100.474C26.6076 100.39 27.5313 99.0047 27.7832 97.6611C28.0351 96.4434 27.9092 95.0998 27.4053 93.9661C27.2794 93.7142 26.9854 93.5463 26.6915 93.6722C26.4396 93.7982 26.2717 94.0921 26.3976 94.386C26.8175 95.3517 26.9015 96.4434 26.6915 97.4511C26.5236 98.3749 25.8938 99.3826 25.012 99.4246C24.5502 99.4246 24.0463 99.1726 23.6684 98.7528C23.3745 98.3749 23.1226 97.871 22.9546 97.1572V97.1152C22.8706 96.8213 22.6187 96.6534 22.3248 96.7373C22.0309 96.8213 21.8629 97.0733 21.9049 97.3672V97.4092C21.9469 97.7031 21.779 97.913 21.695 98.039C21.443 98.2909 21.0652 98.4588 20.7713 98.4169C20.0575 98.2909 19.5536 97.5351 19.4276 96.8633C19.3017 96.1495 19.5536 95.4777 20.0155 95.0998C20.2674 94.9319 20.2674 94.596 20.0994 94.344C19.9315 94.1341 19.5956 94.0921 19.3437 94.2601C18.5879 94.8479 18.21 95.9396 18.3359 97.0313C18.5039 98.1229 19.3017 99.2986 20.5613 99.4666C21.1911 99.5505 21.8629 99.2986 22.3668 98.8367C22.4927 99.0467 22.6187 99.2566 22.7867 99.4666C23.4585 100.096 24.2143 100.474 25.012 100.474Z" fill="black" fill-opacity="0.59"/>
<path d="M46.4259 110.215C46.7618 110.215 47.1397 110.131 47.4756 110.006C48.3573 109.67 49.1131 108.872 49.407 108.032C49.8689 106.688 49.533 105.093 48.5672 103.581C48.3993 103.329 48.0634 103.245 47.8115 103.413C47.5595 103.581 47.4756 103.917 47.6435 104.169C48.4413 105.429 48.7352 106.688 48.3993 107.696C48.1893 108.284 47.6855 108.788 47.0977 109.04C46.6358 109.208 46.1739 109.208 45.796 108.998C45.2922 108.704 44.9563 108.158 44.6624 107.486C44.6204 107.318 44.5364 107.108 44.4524 106.982C44.2845 106.772 43.9906 106.688 43.7386 106.814C43.4867 106.94 43.4027 107.234 43.4867 107.486C43.5287 107.612 43.5707 107.696 43.6127 107.822C43.6547 108.032 43.5707 108.284 43.4027 108.41C43.1508 108.578 42.7309 108.536 42.563 108.326C42.395 108.116 42.0591 108.074 41.8072 108.242C41.5973 108.41 41.5553 108.746 41.7232 108.998C42.2691 109.67 43.3188 109.796 44.0326 109.292C44.1165 109.208 44.2005 109.166 44.2845 109.082C44.5364 109.46 44.8723 109.754 45.2922 110.006C45.6701 110.131 46.048 110.215 46.4259 110.215Z" fill="black" fill-opacity="0.59"/>
<path d="M27.6575 124.869H27.6995C28.5392 124.827 29.1271 124.071 29.337 123.316C29.421 123.064 29.421 122.812 29.463 122.56C29.505 122.35 29.505 122.182 29.5469 122.014C29.8409 122.266 30.0928 122.602 30.3447 122.938C30.8486 123.61 31.3944 124.323 32.3181 124.449C33.0739 124.575 33.8717 124.197 34.3755 123.526C34.7534 123.064 35.0054 122.434 35.1313 121.636C35.3413 120.251 35.2573 118.865 34.7954 117.563C34.7114 117.269 34.3755 117.143 34.1236 117.227C33.8297 117.311 33.7037 117.647 33.7877 117.899C34.1656 119.033 34.2916 120.293 34.0816 121.468C33.9557 122.098 33.7877 122.56 33.5358 122.896C33.2419 123.274 32.822 123.484 32.4441 123.4C31.9402 123.316 31.6043 122.854 31.1845 122.308C30.8066 121.804 30.3867 121.258 29.7569 120.922C29.337 120.712 29.0851 120.838 28.9171 120.922C28.7072 121.048 28.6232 121.258 28.5812 121.342C28.4553 121.72 28.3713 122.098 28.3293 122.434C28.2873 122.644 28.2873 122.896 28.2033 123.064C28.1194 123.442 27.8674 123.82 27.5735 123.82C27.2796 123.82 26.9857 123.526 26.6918 122.896C26.5658 122.644 26.2299 122.518 25.978 122.644C25.3482 122.938 24.8863 123.022 24.5924 122.854C24.2145 122.644 24.1725 122.098 24.2985 121.678C24.5084 121.132 24.9703 120.712 25.4321 120.335C25.6421 120.125 25.6841 119.789 25.5161 119.579C25.3062 119.369 24.9703 119.327 24.7603 119.495C24.2145 119.957 23.5847 120.544 23.2908 121.3C22.9968 122.14 23.2068 123.316 24.0885 123.778C24.7183 124.113 25.3902 123.987 25.978 123.778C26.3559 124.281 26.8597 124.869 27.6575 124.869Z" fill="black" fill-opacity="0.59"/>
<path d="M57.2586 132.973C57.6785 132.973 58.1404 132.847 58.4763 132.553C58.7282 132.343 58.9382 132.091 59.0641 131.797C59.1901 131.881 59.358 131.965 59.526 132.007C60.1978 132.217 60.9956 131.965 61.4154 131.419C61.8353 130.873 61.8773 130.16 61.8353 129.614C61.7513 128.186 61.3315 126.759 60.6177 125.541C60.5337 125.415 60.3657 125.079 59.9879 125.037C59.6939 124.995 59.358 125.163 59.2321 125.457C59.1061 125.709 59.1481 126.003 59.358 126.213C59.484 126.339 59.652 126.381 59.8199 126.339C60.3658 127.388 60.7016 128.522 60.7856 129.698C60.8276 130.076 60.7856 130.538 60.5757 130.789C60.4077 130.999 60.1138 131.083 59.8619 130.999C59.61 130.915 59.4 130.664 59.4 130.37C59.4 130.076 59.1061 129.866 58.8542 129.866C58.5603 129.866 58.3083 130.118 58.3503 130.412C58.3503 130.957 58.1824 131.419 57.8465 131.671C57.5526 131.923 57.0487 131.923 56.7968 131.671C56.6288 131.503 56.5449 131.209 56.4609 130.915C56.3769 130.58 56.2509 130.16 55.999 129.824C55.8311 129.572 55.4952 129.53 55.2432 129.74C54.9913 129.908 54.9493 130.244 55.1593 130.496C55.2852 130.664 55.3692 130.957 55.4532 131.209C55.5791 131.629 55.7051 132.091 56.041 132.427C56.3349 132.805 56.7968 132.973 57.2586 132.973Z" fill="black" fill-opacity="0.59"/>
<path d="M44.2005 148.55C44.4944 148.55 44.7464 148.508 44.9983 148.382C45.4602 148.172 45.88 147.795 46.2159 147.207C47.0977 145.737 47.2656 143.806 46.5938 142.21C46.4679 141.916 46.174 141.79 45.88 141.916C45.5861 142.042 45.4602 142.336 45.5861 142.63C46.132 143.932 46.006 145.443 45.2922 146.661C45.0403 147.039 44.8303 147.291 44.5364 147.417C44.0326 147.627 43.4028 147.333 43.0249 146.955C42.563 146.451 42.3531 145.695 42.1851 145.065C42.1011 144.813 41.9332 144.646 41.6393 144.646C41.3873 144.646 41.1774 144.855 41.1354 145.107C41.0514 145.611 40.4216 145.989 39.8338 145.905C39.246 145.821 38.7001 145.317 38.3642 144.646C38.2383 144.352 38.1123 143.974 38.1963 143.554C38.2803 143.26 38.4902 143.008 38.7001 142.924C38.994 142.84 39.162 142.546 39.078 142.294C38.994 142 38.7001 141.832 38.4482 141.916C37.8184 142.084 37.3145 142.63 37.1466 143.344C37.0206 143.89 37.1046 144.478 37.3985 145.065C37.8604 146.073 38.7421 146.787 39.6659 146.955C40.3377 147.081 41.0095 146.829 41.5133 146.451C41.6813 146.913 41.9332 147.333 42.2691 147.669C42.7729 148.214 43.5287 148.55 44.2005 148.55Z" fill="black" fill-opacity="0.59"/>
<path d="M15.061 75.4915C15.7328 75.4915 16.4466 75.1137 16.9505 74.4838C17.8742 73.3082 17.8742 71.7966 17.8322 70.2431C17.8322 69.9492 17.5803 69.6972 17.2864 69.7392C16.9925 69.7392 16.7825 69.9911 16.7825 70.2851C16.8245 71.6287 16.8245 72.9303 16.1527 73.854C15.8588 74.2319 15.397 74.5258 14.9351 74.4418C14.5152 74.3579 14.1793 73.896 13.8434 73.0563C13.7594 72.8883 13.6335 72.7623 13.4235 72.7203C13.2136 72.6784 13.0456 72.7623 12.9197 72.9303C12.5838 73.3502 12.2479 73.7281 11.87 73.812C11.3661 73.938 10.8623 73.5181 10.6943 73.0563C10.5264 72.5524 10.6523 71.8806 11.0722 71.2928C11.2402 71.0408 11.1562 70.7049 10.9462 70.537C10.6943 70.369 10.3584 70.453 10.1905 70.6629C9.60262 71.5027 9.43468 72.5104 9.68661 73.3502C10.0225 74.3999 11.1562 75.0717 12.1219 74.8197C12.5418 74.7358 12.9197 74.4838 13.1716 74.1899C13.4655 74.6938 13.9274 75.2816 14.6412 75.4496C14.8091 75.4915 14.9351 75.4915 15.061 75.4915Z" fill="black" fill-opacity="0.59"/>
<path d="M64.9005 153.337C64.9425 153.337 65.0265 153.337 65.0685 153.337C66.4541 153.211 67.3358 151.825 67.3778 150.524C67.3778 150.44 67.3778 150.314 67.3778 150.23C67.3778 149.978 67.3778 149.768 67.4198 149.6C67.4618 149.432 67.5877 149.348 67.6297 149.348C67.6717 149.348 67.7977 149.432 67.8817 149.516C67.9656 149.558 68.0496 149.642 68.1336 149.684C69.0153 150.23 70.275 149.936 70.9468 149.054C71.4506 148.382 71.6606 147.417 71.5346 146.367C71.4506 145.737 71.2407 145.107 70.9888 144.519C70.8628 144.268 70.5269 144.142 70.275 144.268C70.023 144.394 69.8971 144.729 70.023 144.981C70.275 145.443 70.4009 145.947 70.4849 146.493C70.5269 146.955 70.5689 147.795 70.107 148.382C69.7711 148.802 69.1413 149.054 68.6794 148.76C68.6374 148.718 68.5535 148.676 68.5115 148.634C68.3015 148.466 68.0496 148.298 67.7137 148.256C67.0419 148.172 66.5381 148.718 66.3701 149.264C66.2861 149.6 66.2861 149.936 66.2861 150.23C66.2861 150.314 66.2861 150.398 66.2861 150.482C66.2441 151.322 65.7403 152.203 64.9845 152.287C64.4806 152.329 63.9768 151.993 63.6409 151.489C63.263 150.944 63.137 150.23 62.9691 149.558C62.8851 149.264 62.6332 149.096 62.3393 149.138C62.0454 149.222 61.8774 149.474 61.9194 149.768C62.0873 150.482 62.2553 151.322 62.7172 152.035C63.221 152.833 64.0608 153.337 64.9005 153.337Z" fill="black" fill-opacity="0.59"/>
<path d="M71.9123 167.529C72.7941 167.529 73.4239 166.899 73.8858 166.311C73.8858 166.311 73.8857 166.311 73.9277 166.311C74.3896 166.605 75.0194 166.647 75.4393 166.353C75.6492 166.227 75.8172 166.017 75.9851 165.807C76.573 166.521 77.4547 167.025 78.3784 166.899C79.3862 166.773 80.3099 165.975 80.6458 164.884C80.9817 163.918 80.8557 162.91 80.7298 162.028C80.4358 160.139 79.764 158.879 78.6724 158.207C78.4204 158.04 78.0845 158.124 77.9166 158.375C77.7486 158.627 77.8326 158.963 78.0845 159.131C78.8823 159.635 79.3862 160.643 79.6381 162.196C79.764 162.91 79.848 163.792 79.5961 164.548C79.3862 165.135 78.8823 165.765 78.2105 165.849C77.3287 165.933 76.531 165.052 76.2371 164.17C76.1531 163.918 75.9012 163.75 75.6492 163.834C75.3973 163.876 75.1874 164.128 75.2294 164.38C75.2294 164.758 75.1874 165.261 74.8935 165.429C74.8515 165.471 74.7255 165.471 74.6415 165.429C74.5576 165.387 74.5156 165.345 74.4736 165.345C74.5156 165.093 74.3476 164.842 74.1377 164.758C73.8857 164.674 73.6338 164.758 73.5079 165.01C72.92 166.017 72.3742 166.479 71.8703 166.395C71.1985 166.269 70.9466 165.219 70.8206 164.38C70.7787 164.086 70.5267 163.876 70.2328 163.918C69.9389 163.96 69.729 164.212 69.7709 164.506C69.9809 166.269 70.6107 167.277 71.7024 167.445C71.7024 167.529 71.7864 167.529 71.9123 167.529Z" fill="black" fill-opacity="0.59"/>
<path d="M26.6915 31.9081C27.4472 32.076 28.287 32.3699 28.8748 31.9081C29.1687 31.6981 29.2947 31.3202 29.5466 31.0683C29.9665 30.5645 30.6803 30.3545 31.3521 30.3965C32.0239 30.4385 32.6537 30.6904 33.2416 30.9843C33.6195 31.1943 34.0393 31.4042 34.4592 31.4462C34.8791 31.5302 35.3829 31.4042 35.6769 31.0683C36.1387 30.5645 35.9288 29.6407 36.4746 29.2209C36.8105 28.9269 37.4403 28.885 37.5663 28.4231C37.1464 28.2131 36.6006 28.2131 36.2227 28.4651C35.9288 28.633 35.6349 28.9269 35.299 28.801C35.173 28.759 35.131 28.633 35.047 28.549C34.6272 27.7933 34.6691 26.8695 34.9631 26.0718C35.257 25.274 35.8028 24.6022 36.3907 23.9724C37.6503 22.5868 39.0779 21.3271 40.6314 20.2774C41.3872 19.7736 42.4369 19.3537 43.0667 19.9415C43.1927 20.0675 43.3186 20.2355 43.3186 20.4034C43.3186 20.5294 43.2347 20.6973 43.1507 20.8233C42.4789 21.957 41.2192 22.5868 40.1276 23.2166C38.9939 23.8884 37.8602 24.7282 37.4823 25.9878C38.658 25.8618 39.3298 24.6022 40.4215 24.1823C40.7574 24.0564 41.1353 24.0144 41.5132 24.0144C42.8568 23.9724 44.2004 24.2663 45.418 24.7701C45.7539 24.9381 46.1318 25.148 46.2998 25.4839C46.4677 25.9038 46.2578 26.3657 45.9219 26.6596C45.586 26.9535 45.1661 27.1215 44.7462 27.2474C42.8568 27.9612 41.0513 28.9689 39.4138 30.1866C39.3298 30.2705 39.2038 30.3545 39.1618 30.4805C39.0779 30.7744 39.4138 31.0263 39.6237 31.1943C40.5894 32.034 40.2535 33.7975 39.2038 34.5113C38.1541 35.2671 36.7266 35.1831 35.4669 34.8052C34.2493 34.4273 33.1156 33.7555 31.898 33.3357C31.5621 33.2097 31.0582 33.2097 31.0162 33.5876C31.0162 33.7136 31.0582 33.8395 31.1002 33.9235C31.604 34.9732 32.3598 35.8969 33.3255 36.6107C33.6614 36.8626 34.0813 37.2825 33.8714 37.6604C33.6614 37.9963 33.1576 37.9123 32.8217 37.7864C31.814 37.4085 30.8063 37.0306 29.7986 36.6527C29.2527 36.4428 28.6649 36.2328 28.1191 35.9389C27.3633 35.519 26.6915 34.8892 25.8517 34.5533C24.928 34.1754 23.9203 34.2174 22.9545 34.1754C22.0728 34.1754 21.275 34.0075 22.0308 33.1257C23.1645 32.034 25.2219 31.6142 26.6915 31.9081Z" fill="#F8EFC2"/>
<path d="M33.2838 38.7942C33.5357 38.7942 33.9556 38.7522 34.2915 38.4583C34.5434 38.2484 34.6274 37.9545 34.6274 37.6186C34.6274 37.0307 34.2075 36.4849 33.8296 36.191L33.4937 35.8971C32.738 35.2673 31.8982 34.5535 31.6883 33.7977C31.9402 33.9236 32.2341 34.0916 32.486 34.2176C33.4098 34.7214 34.3755 35.2673 35.4252 35.6032C37.2726 36.149 39.582 36.023 40.5477 34.3855C41.0515 33.5457 41.0096 32.2021 40.4217 31.1524C40.2538 30.8585 40.0858 30.6066 39.8759 30.4387L45.6702 27.5415C46.0061 27.3735 46.552 27.0796 46.8039 26.5338C47.2238 25.5261 46.384 24.5604 45.3763 24.0985C43.7808 23.4267 41.9753 23.3427 40.2958 23.8466C40.9676 23.3427 41.6814 22.8808 42.4371 22.461L42.4791 22.419C42.899 22.209 43.4029 21.9151 43.6968 21.4113C43.9067 21.0334 43.9487 20.5715 43.8227 20.1096C43.6548 19.5638 43.2349 19.06 42.7311 18.808C41.9333 18.3881 41.0096 18.4721 40.2118 18.5561C36.013 19.1859 32.1081 21.2853 29.3369 24.4764L29.127 20.9074C29.043 19.3959 28.5392 18.5141 27.6574 18.2622C26.7757 18.0103 25.81 18.5561 25.1382 19.6898C24.4664 20.7815 24.0465 21.9571 23.6266 23.1328C23.4167 23.7206 23.2067 24.3504 22.9548 24.9802C22.241 26.6178 21.4432 27.4155 19.8897 28.0034C19.5958 28.0873 19.4698 28.4232 19.5958 28.6752C19.6797 28.9691 20.0156 29.095 20.2676 28.9691C22.115 28.2973 23.1228 27.2896 23.9625 25.3581C24.2144 24.7283 24.4664 24.0985 24.6763 23.4687C25.0962 22.293 25.4741 21.2013 26.0619 20.2356C26.3978 19.6898 26.9016 19.1439 27.4055 19.2699C27.9094 19.3959 28.0773 20.2776 28.1193 20.9494L28.2872 25.946C28.2872 26.1559 28.4552 26.3658 28.6651 26.4078C28.8751 26.4918 29.127 26.4078 29.253 26.1979C31.8982 22.6709 35.929 20.2776 40.3378 19.6058C41.0096 19.5218 41.6814 19.4378 42.2272 19.7318C42.4791 19.8577 42.6891 20.1096 42.7731 20.4036C42.815 20.5295 42.857 20.6975 42.7311 20.8654C42.6051 21.1174 42.2692 21.2853 41.9333 21.4533L41.8913 21.4952C39.624 22.6709 37.6505 24.4344 36.2229 26.5338C36.055 26.7857 36.139 27.1216 36.3489 27.2896C36.6008 27.4575 36.8948 27.4155 37.1047 27.1636C38.8262 24.8543 42.2692 23.9305 44.9144 25.0642C45.4183 25.2741 45.9221 25.778 45.7962 26.0719C45.7122 26.2399 45.4603 26.4078 45.1664 26.5338L38.4063 29.8928C38.1964 30.0188 38.0704 30.2707 38.1124 30.4806C38.1544 30.7326 38.3643 30.9005 38.6163 30.9005C39.0361 30.9005 39.372 31.4044 39.456 31.5723C39.8339 32.2861 39.9179 33.2098 39.582 33.7137C38.9102 34.8474 37.1047 34.8894 35.6771 34.4695C34.7114 34.1756 33.8716 33.6717 32.9479 33.1679C32.444 32.8739 31.8982 32.58 31.3524 32.3281C31.2264 32.2441 31.0584 32.2441 30.8905 32.3281C30.7645 32.3701 30.6386 32.4961 30.5966 32.664C30.0507 34.3435 31.5623 35.6032 32.738 36.6109L33.0739 36.9048C33.3258 37.1147 33.4937 37.4086 33.4937 37.5766C33.4937 37.6186 33.4098 37.6606 33.1158 37.6606C31.8562 37.6186 30.7225 36.8208 29.5889 35.981C29.127 35.6451 28.6651 35.3092 28.1613 35.0153C26.1039 33.7977 23.5426 33.3358 21.1913 33.7557C20.8974 33.7977 20.7294 34.0916 20.7714 34.3855C20.8134 34.6794 21.1073 34.8474 21.4012 34.8054C23.5006 34.4275 25.768 34.8054 27.6154 35.9391C28.0773 36.233 28.5392 36.5269 29.001 36.8628C30.2607 37.7445 31.5203 38.6683 33.1158 38.7103C33.1578 38.7942 33.1998 38.7942 33.2838 38.7942Z" fill="black" fill-opacity="0.01"/>
<path d="M127.629 144.564C129.224 141.136 126.863 136.504 123.168 135.716C121.771 133.361 118.906 131.957 116.181 132.319C113.456 132.68 111.042 134.752 110.278 137.377C108.22 135.865 105.598 138.161 104.085 140.219C103.045 141.622 102.043 143.044 100.984 144.484C98.5999 144.359 96.2455 145.756 95.1458 147.834C94.8423 148.434 94.5947 149.108 94.011 149.425C93.3709 149.759 92.6212 149.474 91.908 149.395C90.2191 149.199 88.4484 150.279 87.802 151.834C85.5896 151.184 83.2556 152.262 81.2218 153.397C78.9059 154.624 76.3443 156.151 75.7491 158.72C72.9885 158.781 70.7753 161.943 71.6633 164.558C71.9406 165.405 72.5001 166.158 73.0222 166.893C76.0429 171.059 79.3818 175.432 84.2552 177.147C89.1472 178.918 94.6183 177.594 99.3426 175.422C102.279 174.085 105.198 172.316 106.79 169.545C109.987 168.528 112.74 166.251 114.333 163.293C113.827 162.99 114.366 164.063 114.912 163.915C117.695 163.159 120.164 161.257 121.586 158.729C124.22 157.71 126.938 154.851 128.21 152.247C128.912 150.767 129.594 149.606 129.321 147.915C129.286 147.427 127.705 144.414 127.629 144.564Z" fill="#F8EFC2"/>
<path d="M127.629 144.564C127.705 144.414 129.305 147.389 129.378 147.897C129.632 149.625 128.95 150.786 128.266 152.229C127.014 154.795 124.333 157.673 121.642 158.711C120.183 161.219 117.751 163.141 114.968 163.897C114.686 163.989 114.387 163.744 114.276 163.499C114.314 163.424 114.352 163.349 114.389 163.274C114.127 163.141 114.145 163.292 114.276 163.499C112.703 166.326 109.987 168.528 106.884 169.545C105.273 172.354 102.354 174.123 99.4367 175.422C94.6938 177.539 89.2227 178.863 84.3493 177.148C79.776 175.491 76.529 171.493 73.6012 167.516C74.5624 166.826 75.5606 166.249 76.6142 165.842C75.7825 166.926 76.7122 168.715 78.0627 169.022C79.4131 169.33 80.8072 168.436 81.5266 167.294C81.3525 168.288 81.9101 169.418 82.847 169.798C83.784 170.178 84.9875 169.846 85.5551 169.004C85.5124 170.018 86.2961 170.98 87.253 171.135C88.2473 171.309 89.3024 170.62 89.5889 169.682C90.2593 170.775 91.7031 171.176 92.9255 170.807C94.148 170.438 95.0732 169.447 95.6797 168.342C96.0022 167.706 96.3251 166.975 96.9838 166.697C97.567 166.474 98.2417 166.722 98.8615 166.706C101.322 166.587 102.018 162.704 104.405 162.265C104.931 162.155 105.494 162.252 106.02 162.142C107.036 161.903 107.623 160.93 108.471 160.277C109.791 159.251 111.575 159.072 113.137 158.498C114.698 157.924 116.283 156.467 115.935 154.832C116.585 156.244 118.898 155.579 119.75 154.269C120.506 153.24 122.793 150.398 123.211 149.386C124.2 146.875 121.722 146.75 121.433 144.438C121.145 142.127 123.712 139.474 126.127 137.308C127.882 139.138 128.75 142.166 127.629 144.564Z" fill="#F8EFC2"/>
<path d="M82.4344 177.025C82.9588 177.291 83.5022 177.519 84.0645 177.71C88.4131 179.253 93.6362 178.697 99.6213 175.986C102.012 174.891 105.401 173.124 107.238 170.054C110.191 169.055 112.755 167.059 114.402 164.457C114.627 164.571 114.852 164.591 115.134 164.498C118.03 163.706 120.556 161.785 122.09 159.22C124.95 158.033 127.613 155.004 128.809 152.551L128.98 152.213C129.644 150.902 130.232 149.647 129.997 147.881C130.016 147.843 129.089 145.585 128.343 144.549C129.028 142.825 128.85 140.758 127.94 138.932C126.991 137.087 125.384 135.708 123.583 135.267C122.037 132.837 118.983 131.432 116.165 131.793C113.459 132.117 111.046 134.095 110.019 136.587C109.044 136.188 107.936 136.333 106.749 137.003C105.337 137.84 104.241 139.168 103.674 139.916L100.762 143.901C98.2641 143.907 95.8154 145.397 94.6962 147.607C94.6393 147.719 94.6014 147.794 94.5445 147.906C94.3169 148.356 94.1082 148.768 93.7881 148.935C93.4681 149.103 93.0366 149.025 92.5676 148.929C92.3988 148.891 92.1736 148.871 92.0048 148.832C90.2219 148.635 88.3579 149.621 87.5237 151.175C85.2913 150.751 83.0892 151.754 80.999 152.907C78.683 154.135 76.1589 155.68 75.32 158.174C74.0046 158.355 72.7238 159.118 71.8536 160.372C70.8891 161.719 70.6178 163.37 71.1175 164.799C71.4318 165.759 72.0098 166.569 72.5507 167.267C75.0684 170.66 78.1266 174.844 82.4344 177.025ZM113.562 163.514C112.009 166.116 109.539 168.113 106.642 168.999L106.417 169.073L106.303 169.298C104.654 172.181 101.435 173.893 99.1197 174.932C93.4356 177.513 88.4942 178.07 84.4643 176.641C79.6473 174.908 76.2344 170.309 73.5119 166.577C73.0084 165.898 72.4864 165.163 72.246 164.43C71.8757 163.395 72.1077 162.101 72.864 161.072C73.583 160.024 74.713 159.372 75.8021 159.359L76.2716 159.361L76.4053 158.912C76.9616 156.605 79.2596 155.227 81.5755 153.999C83.6278 152.921 85.736 151.917 87.7048 152.491L88.2296 152.663L88.4388 152.157C88.9714 150.826 90.4783 149.895 91.9046 150.052C92.0734 150.091 92.2048 150.11 92.3926 150.111C92.9929 150.227 93.687 150.343 94.3836 149.99C95.0802 149.637 95.3652 148.981 95.6498 148.419C95.6877 148.344 95.7446 148.232 95.7825 148.157C96.75 146.246 98.9346 145 101.037 145.123L101.356 145.143L104.59 140.616C105.385 139.512 106.385 138.559 107.27 138.019C108.325 137.424 109.189 137.391 109.918 137.901L110.611 138.393L110.84 137.568C111.547 135.149 113.735 133.245 116.253 132.92C118.733 132.576 121.375 133.866 122.64 136.013L122.771 136.221L123.034 136.259C124.609 136.587 126.012 137.721 126.83 139.358C127.647 140.996 127.713 142.818 127.067 144.279L127.611 144.508L127.702 145.071C127.458 145.089 127.289 144.957 127.214 144.919C127.476 145.239 128.666 147.536 128.776 147.969C128.976 149.34 128.463 150.352 127.875 151.607L127.704 151.944C126.585 154.248 124.054 157.108 121.42 158.127L121.231 158.22L121.137 158.408C119.829 160.711 117.623 162.464 115.065 163.24L115.179 163.015L114.674 162.712C114.168 162.409 113.848 162.67 113.753 162.764C113.678 162.914 113.507 163.157 113.562 163.514Z" fill="black" fill-opacity="0.01"/>
<path fill-rule="evenodd" clip-rule="evenodd" d="M70.8411 162.808L71.9842 163.387C72.0437 162.692 72.3087 161.979 72.7624 161.362C73.4813 160.314 74.6113 159.662 75.7005 159.649L76.1699 159.652L76.3036 159.202C76.86 156.895 79.1579 155.517 81.4738 154.29C82.6307 153.682 83.8053 153.097 84.9627 152.806L85.6733 151.403C84.0422 151.578 82.4393 152.346 80.8973 153.197C78.5814 154.425 76.0573 155.971 75.2183 158.464C73.9029 158.645 72.6221 159.408 71.752 160.662C71.2775 161.324 70.9708 162.061 70.8411 162.808Z" fill="black" fill-opacity="0.59"/>
<path d="M136.837 117.646C137.841 115.849 138.752 114.051 139.681 112.215C140.117 111.353 140.535 110.529 140.971 109.668C141.199 109.218 141.426 108.769 141.654 108.319C142.565 106.334 142.99 104.101 142.888 101.885C144.338 101.066 146.209 102.484 146.52 104.1C146.831 105.717 146.09 107.366 145.388 108.845C147.676 109.345 150.432 110.223 150.965 112.517C151.424 114.491 149.799 116.492 147.825 117.045C145.869 117.561 143.788 116.93 141.972 115.964C138.688 126.537 132.161 136.081 123.525 143.003C121.376 144.739 116.771 145.466 117.938 141.303C118.569 139.035 121.879 138.075 123.426 136.599C128.861 131.445 133.217 124.143 136.837 117.646Z" fill="#FFB094"/>
<path opacity="0.5" d="M139.864 116.779C139.868 116.028 139.74 115.257 139.838 114.507C139.936 113.756 140.203 112.95 140.806 112.502C141.848 114.254 143.814 115.391 145.86 115.533C147.719 115.674 149.449 115.044 150.919 114C150.537 115.406 149.253 116.639 147.787 117.026C145.831 117.542 143.75 116.911 141.934 115.945C139.986 122.3 136.819 128.274 132.737 133.549C134.895 130.03 136.941 126.453 138.501 122.631C139.242 120.794 139.872 118.807 139.864 116.779Z" fill="#C43433"/>
<path d="M142.511 105.883C142.837 104.589 142.956 103.237 142.906 101.941C144.357 101.122 146.227 102.54 146.538 104.157C146.648 104.683 146.627 105.19 146.568 105.678C145.758 106.162 144.309 106.699 142.511 105.883Z" fill="#0A0707"/>
<path d="M123.658 50.9915C124.433 48.9228 126.739 47.8743 128.807 48.6494L160.041 60.3538C162.11 61.1289 163.159 63.4343 162.383 65.503L143.298 116.434C142.523 118.503 140.218 119.551 138.149 118.776L106.915 107.072C104.846 106.296 103.798 103.991 104.573 101.922L123.658 50.9915Z" fill="#FFB17A"/>
<g filter="url(#filter0_d_1226_5079)">
<path d="M117.749 53.252C118.321 51.1181 120.515 49.8518 122.648 50.4236L154.867 59.0565C157.001 59.6283 158.267 61.8217 157.695 63.9555L143.618 116.492C143.047 118.625 140.853 119.892 138.719 119.32L106.501 110.687C104.367 110.115 103.101 107.922 103.672 105.788L117.749 53.252Z" fill="#F5EFDF"/>
</g>
<rect x="125.756" y="56.587" width="24.1608" height="22.9349" rx="11.4675" transform="rotate(15 125.756 56.587)" fill="url(#paint0_linear_1226_5079)"/>
<path d="M128.048 72.5089C127.8 72.7964 127.107 72.6428 126.514 72.1783C125.921 71.7139 125.628 71.0884 125.875 70.8009C126.123 70.5135 126.816 70.667 127.409 71.1315C128.018 71.6002 128.296 72.2214 128.048 72.5089Z" fill="white" fill-opacity="0.42"/>
<path d="M137.847 75.1345C137.918 75.5073 138.595 75.7209 139.34 75.6151C140.086 75.5093 140.653 75.1143 140.582 74.7415C140.511 74.3687 139.834 74.1551 139.089 74.2609C138.343 74.3667 137.776 74.7616 137.847 75.1345Z" fill="white" fill-opacity="0.42"/>
<path fill-rule="evenodd" clip-rule="evenodd" d="M126.705 68.7876C126.837 68.8229 126.917 68.9524 126.884 69.0767C126.616 70.0768 127.265 71.109 128.314 71.3899C129.364 71.6714 130.457 71.1036 130.724 70.1056C130.757 69.9813 130.891 69.9092 131.023 69.9446C131.155 69.9799 131.235 70.1094 131.202 70.2337C130.866 71.4868 129.501 72.1905 128.193 71.8401C126.883 71.4891 126.071 70.1995 126.406 68.9486C126.439 68.8243 126.573 68.7522 126.705 68.7876Z" fill="#010101" fill-opacity="0.68"/>
<path fill-rule="evenodd" clip-rule="evenodd" d="M136.552 71.426C136.684 71.4613 136.764 71.5908 136.731 71.7151C136.463 72.7142 137.111 73.7471 138.177 74.0326C139.24 74.3174 140.303 73.7453 140.571 72.7441C140.605 72.6197 140.739 72.5476 140.871 72.583C141.003 72.6184 141.083 72.7478 141.049 72.8721C140.714 74.122 139.383 74.8383 138.056 74.4828C136.731 74.1278 135.918 72.839 136.253 71.587C136.286 71.4627 136.42 71.3906 136.552 71.426Z" fill="#010101" fill-opacity="0.68"/>
<path d="M133.524 72.5931C132.552 72.3326 131.522 73.0538 131.361 73.6541C131.321 73.8042 131.341 73.922 131.412 74.0377C131.531 74.2305 131.826 74.2773 132.217 74.2855C132.468 74.3045 132.755 74.317 133.042 74.3939C133.328 74.4707 133.583 74.6033 133.81 74.7124C133.989 74.8087 134.141 74.8814 134.268 74.9155C134.555 74.9924 134.79 74.8785 134.867 74.5934C135.032 73.9781 134.48 72.8492 133.524 72.5931Z" fill="black" fill-opacity="0.88"/>
<rect opacity="0.76" x="128.645" y="88.177" width="10.0808" height="1.64921" rx="0.824606" transform="rotate(15 128.645 88.177)" fill="#522705"/>
<rect opacity="0.76" x="121.06" y="86.1447" width="6.54403" height="1.64921" rx="0.824606" transform="rotate(15 121.06 86.1447)" fill="#522705"/>
<g opacity="0.5">
<rect x="113.849" y="93.6954" width="8.50488" height="0.928913" rx="0.464456" transform="rotate(15 113.849 93.6954)" fill="#522705"/>
<rect x="113.269" y="95.8601" width="8.50488" height="0.928913" rx="0.464456" transform="rotate(15 113.269 95.8601)" fill="#522705"/>
<rect x="124.539" y="96.5599" width="11.2514" height="0.928913" rx="0.464456" transform="rotate(15 124.539 96.5599)" fill="#522705"/>
<rect x="123.958" y="98.7245" width="16.8891" height="0.928913" rx="0.464456" transform="rotate(15 123.958 98.7245)" fill="#522705"/>
<rect x="114.642" y="91.5879" width="4.72707" height="0.928913" rx="0.464456" transform="rotate(15 114.642 91.5879)" fill="#522705"/>
<rect x="125.119" y="94.3951" width="9.19481" height="0.928913" rx="0.464456" transform="rotate(15 125.119 94.3951)" fill="#522705"/>
<rect x="135.987" y="97.3071" width="3.31326" height="0.928913" rx="0.464456" transform="rotate(15 135.987 97.3071)" fill="#522705"/>
</g>
<path d="M148.157 110.812L144.651 116.991C144.651 116.991 139.641 116.29 140.621 112.032C140.602 112.069 140.99 109.63 148.157 110.812Z" fill="#0A0707"/>
<path d="M148.157 110.812C148.157 110.812 149.432 111.176 149.728 111.985C149.728 111.985 149.286 110.349 147.294 110.658" fill="#0A0707"/>
<path d="M116.556 136.133C118.134 135.896 118.268 139.071 117.229 140.286C118.582 140.124 119.835 141.088 120.411 142.274C120.987 143.46 121.093 144.831 121.067 146.183C121.066 146.371 121.084 146.521 120.99 146.708C122.342 146.734 123.654 147.116 124.796 147.836C124.796 147.836 120.029 151.022 115.779 144.823C111.605 138.567 114.564 136.442 116.556 136.133Z" fill="#F8EFC2"/>
<path d="M120.762 147.252C120.836 147.29 120.911 147.327 121.005 147.328C122.226 147.334 123.444 147.716 124.493 148.341C124.773 148.53 125.15 148.438 125.301 148.139C125.49 147.858 125.398 147.482 125.099 147.33C124.05 146.705 122.851 146.286 121.65 146.148C121.657 144.74 121.589 143.294 120.92 142.013C120.325 140.865 119.296 140.015 118.19 139.784C118.38 139.221 118.459 138.602 118.349 137.982C118.204 136.967 117.645 136.119 116.802 135.645C116.503 135.494 116.146 135.548 115.994 135.848C115.805 136.129 115.897 136.505 116.196 136.656C116.702 136.959 117.037 137.506 117.165 138.182C117.256 138.84 117.121 139.478 116.762 139.908C116.611 140.114 116.572 140.376 116.702 140.584C116.832 140.791 117.057 140.905 117.301 140.887C118.447 140.761 119.457 141.649 119.884 142.571C120.423 143.645 120.51 144.959 120.485 146.217C120.485 146.311 120.503 146.462 120.465 146.537C120.37 146.724 120.406 146.931 120.518 147.081C120.593 147.119 120.687 147.214 120.762 147.252Z" fill="black" fill-opacity="0.59"/>
<path d="M116.453 156.224C116.566 156.281 116.678 156.338 116.81 156.357C117.447 156.492 118.162 156.289 118.672 155.747C119.181 155.205 119.373 154.455 119.17 153.834C119.059 153.496 118.759 153.344 118.42 153.455C118.101 153.529 117.93 153.866 118.041 154.204C118.115 154.43 118.02 154.711 117.812 154.935C117.642 155.085 117.36 155.271 117.116 155.195C116.872 155.118 116.686 154.836 116.649 154.629C116.612 154.516 116.613 154.422 116.632 154.291C116.821 154.104 116.935 153.879 117.011 153.636C117.088 153.392 116.995 153.11 116.789 152.959C116.584 152.807 116.283 152.843 116.076 152.974C115.906 153.123 115.755 153.329 115.641 153.554C115.509 153.628 115.321 153.627 115.265 153.646C114.889 153.644 114.458 153.472 114.347 153.134C114.218 152.739 114.37 152.345 114.502 152.177C114.768 151.746 115.201 151.448 115.671 151.357C115.821 151.339 115.859 151.358 115.859 151.358C116.177 151.472 116.497 151.305 116.612 150.986C116.726 150.667 116.559 150.347 116.24 150.233C115.921 150.119 115.658 150.174 115.47 150.173C114.662 150.281 113.908 150.841 113.492 151.571C113.113 152.226 113.053 152.902 113.256 153.523C113.515 154.313 114.376 154.843 115.334 154.81C115.39 154.792 115.484 154.792 115.522 154.811L115.54 154.867C115.612 155.469 115.966 155.978 116.453 156.224Z" fill="black" fill-opacity="0.59"/>
<path d="M105.363 151.173C105.887 151.438 106.563 151.404 107.129 151.031C107.694 150.659 107.96 150.041 107.794 149.439C107.721 149.119 107.383 148.948 107.064 149.022C106.744 149.095 106.574 149.433 106.647 149.752C106.684 149.865 106.533 149.977 106.458 150.033C106.251 150.163 105.987 150.218 105.819 150.086C105.651 149.954 105.577 149.728 105.578 149.54C105.56 149.296 105.637 149.052 105.75 148.827C105.845 148.734 105.902 148.622 105.996 148.528C106.166 148.285 106.112 147.928 105.869 147.758C105.625 147.587 105.287 147.605 105.079 147.829C104.985 147.922 104.891 148.016 104.834 148.128C104.645 148.315 104.4 148.426 104.119 148.425C103.724 148.46 103.368 148.327 103.163 148.082C102.958 147.837 102.866 147.461 102.961 147.086C103.057 146.711 103.265 146.392 103.566 146.263C103.698 146.188 103.905 146.245 103.979 146.283C103.978 146.565 104.221 146.829 104.54 146.85C104.859 146.87 105.161 146.646 105.2 146.29C105.221 145.877 105.073 145.519 104.717 145.292C104.268 144.97 103.63 144.93 103.084 145.171C102.463 145.468 101.971 146.067 101.817 146.836C101.663 147.605 101.847 148.357 102.295 148.866C102.743 149.375 103.493 149.661 104.244 149.571C104.301 149.552 104.395 149.553 104.451 149.534C104.451 149.534 104.432 149.572 104.47 149.591C104.504 150.173 104.746 150.625 105.139 150.965C105.176 151.078 105.25 151.116 105.363 151.173Z" fill="black" fill-opacity="0.59"/>
<path d="M105.898 164.057C106.347 164.285 106.91 164.381 107.493 164.253C108.32 164.107 109.017 163.566 109.284 162.854C109.398 162.535 109.231 162.215 108.969 162.082C108.65 161.968 108.292 162.116 108.197 162.397C108.083 162.716 107.725 162.958 107.292 163.069C106.879 163.142 106.466 163.027 106.224 162.763C105.981 162.499 105.908 162.085 106.023 161.673C106.137 161.26 106.402 160.924 106.741 160.813C107.06 160.739 107.231 160.402 107.12 160.063C107.046 159.744 106.709 159.573 106.371 159.684C105.637 159.924 105.052 160.522 104.823 161.347C104.593 162.172 104.776 163.018 105.299 163.566C105.467 163.792 105.673 163.943 105.898 164.057Z" fill="black" fill-opacity="0.59"/>
<path d="M95.3998 156.905C95.5122 156.962 95.6246 157.019 95.7184 157.02C96.2433 157.191 96.8446 157.119 97.3714 156.915C97.5378 157.423 97.9299 157.857 98.342 158.066C98.8664 158.331 99.4862 158.316 100.051 158.037C100.616 157.758 100.994 157.291 101.147 156.709C101.224 156.372 101 156.07 100.7 156.012C100.362 155.935 100.06 156.159 100.003 156.459C99.9452 156.666 99.794 156.871 99.5493 156.983C99.3046 157.094 99.0604 157.112 98.8731 157.017C98.6858 156.922 98.518 156.696 98.4815 156.489C98.4635 156.339 98.4455 156.189 98.4839 156.02C98.5408 155.907 98.5977 155.795 98.6736 155.645C98.8064 155.383 98.6954 155.044 98.4332 154.912C98.171 154.779 97.8704 154.815 97.6627 155.039C97.5493 155.17 97.4924 155.282 97.4165 155.432C97.114 155.844 96.5307 156.066 96.0623 155.876C95.7811 155.781 95.5568 155.573 95.4269 155.272C95.278 155.008 95.2795 154.726 95.3558 154.483C95.4322 154.239 95.6774 154.034 95.9595 153.941C96.2416 153.849 96.5043 153.888 96.6916 153.983C96.9723 154.172 97.3483 154.08 97.5186 153.837C97.7078 153.556 97.6158 153.18 97.3726 153.01C96.8861 152.669 96.2104 152.609 95.5897 152.813C94.969 153.016 94.4407 153.502 94.2501 154.064C94.0594 154.626 94.0751 155.246 94.3538 155.811C94.5767 156.3 94.9503 156.678 95.3998 156.905Z" fill="black" fill-opacity="0.59"/>
<path d="M87.0232 160.994C87.8098 161.392 88.8615 161.36 89.9531 160.877C90.2542 160.747 90.3875 160.391 90.2576 160.09C90.1277 159.789 89.7716 159.656 89.4705 159.786C89.0001 159.971 88.1347 160.286 87.4794 159.907C87.2547 159.793 87.0873 159.473 87.0702 159.135C87.0897 159.004 87.0906 158.816 87.2225 158.741C87.4861 158.593 87.5819 158.217 87.433 157.954C87.2842 157.69 86.9281 157.557 86.6644 157.706C86.4762 157.799 86.2514 157.685 86.1016 157.609C85.9707 157.496 85.7839 157.307 85.8413 157.101C85.8612 156.875 86.0684 156.745 86.2377 156.69C86.407 156.634 86.6512 156.617 86.8195 156.749C87.0813 156.976 87.4194 156.959 87.646 156.697C87.8727 156.435 87.8556 156.097 87.5939 155.87C87.1454 155.455 86.4512 155.339 85.8115 155.58C85.1718 155.82 84.7185 156.344 84.6217 156.907C84.5435 157.526 84.8033 158.128 85.3457 158.544C85.514 158.676 85.6639 158.752 85.8701 158.81C85.8507 158.941 85.8502 159.035 85.8307 159.166C85.8459 159.88 86.2366 160.595 86.8169 160.936C86.9483 160.956 86.9857 160.975 87.0232 160.994Z" fill="black" fill-opacity="0.59"/>
<path d="M114.37 163.312C114.332 163.386 114.294 163.461 114.256 163.536C114.126 163.329 114.108 163.179 114.37 163.312Z" fill="#F8EFC2"/>
<path d="M317.582 147.212C320.121 153.434 320.587 158.217 317.582 162.824H309.962C311.242 160.4 312.882 158.182 312.882 153.219C312.882 142.838 304.532 138.004 300.002 132.391C308.39 133.952 315.861 142.997 317.582 147.212Z" fill="#266337"/>
<path d="M305.944 142.024C300.816 151.237 301.343 158.217 304.348 162.824H315.068C313.787 160.4 311.678 155.07 311.678 148.978C311.678 144.192 319.47 132.631 324 127.018C315.562 130.143 308.158 138.047 305.944 142.024Z" fill="#65D083"/>
<line x1="-0.0786133" y1="163.243" x2="327" y2="163.243" stroke="black"/>
</g>
<defs>
<filter id="filter0_d_1226_5079" x="103.535" y="50.2863" width="56.2974" height="69.171" filterUnits="userSpaceOnUse" color-interpolation-filters="sRGB">
<feFlood flood-opacity="0" result="BackgroundImageFix"/>
<feColorMatrix in="SourceAlpha" type="matrix" values="0 0 0 0 0 0 0 0 0 0 0 0 0 0 0 0 0 0 127 0" result="hardAlpha"/>
<feMorphology radius="2" operator="erode" in="SourceAlpha" result="effect1_dropShadow_1226_5079"/>
<feOffset dx="3"/>
<feGaussianBlur stdDeviation="0.5"/>
<feComposite in2="hardAlpha" operator="out"/>
<feColorMatrix type="matrix" values="0 0 0 0 0 0 0 0 0 0 0 0 0 0 0 0 0 0 0.11 0"/>
<feBlend mode="normal" in2="BackgroundImageFix" result="effect1_dropShadow_1226_5079"/>
<feBlend mode="normal" in="SourceGraphic" in2="effect1_dropShadow_1226_5079" result="shape"/>
</filter>
<linearGradient id="paint0_linear_1226_5079" x1="137.837" y1="56.587" x2="137.837" y2="79.522" gradientUnits="userSpaceOnUse">
<stop stop-color="#F78A3B"/>
<stop offset="1" stop-color="#FFBE72"/>
</linearGradient>
<clipPath id="clip0_1226_5079">
<rect width="324" height="163" fill="white" transform="translate(0 0.5)"/>
</clipPath>
</defs>
</svg>
