<svg xmlns="http://www.w3.org/2000/svg" width="38" height="38" viewBox="0 0 38 38" fill="none">
  <circle cx="19.0031" cy="19" r="17.9461" fill="white" stroke="black" stroke-width="0.6"/>
  <mask id="mask0_744_638" style="mask-type:alpha" maskUnits="userSpaceOnUse" x="1" y="1" width="36" height="36">
    <circle cx="19.0031" cy="19" r="17.6461" fill="#D9D9D9"/>
  </mask>
  <g mask="url(#mask0_744_638)">
    <path d="M23.2308 19.5437C23.1714 19.5464 23.1175 19.5791 23.0876 19.6304C23.0576 19.6817 23.0558 19.7447 23.0826 19.7977C23.4203 20.4637 23.8075 21.1105 24.204 21.7602C24.2617 21.8547 24.3196 21.9492 24.3776 22.0439C24.719 22.6017 25.0633 23.1643 25.3897 23.7512C26.152 25.1218 26.8102 26.6145 27.077 28.4353C27.3526 30.3166 27.4366 32.0949 27.0774 34.3139C26.9647 35.01 26.6876 35.5262 26.2995 35.9173C25.9093 36.3105 25.3983 36.5856 24.8063 36.7832C23.7845 37.1243 22.558 37.2247 21.3598 37.3228C21.16 37.3391 20.961 37.3554 20.7638 37.3727C18.8618 37.5399 16.6957 37.297 14.7964 36.9056C12.895 36.5137 11.2798 35.9767 10.4784 35.5663C9.60033 35.1166 9.20109 34.6602 9.07905 34.2294C8.95784 33.8016 9.09496 33.3446 9.42251 32.8547C9.74991 32.3651 10.3865 31.6773 11.22 31.0161C12.0523 30.3557 13.0711 29.7297 14.1586 29.3554C16.5242 28.541 17.8807 28.5611 19.1283 28.5795C19.3113 28.5823 19.4919 28.5849 19.673 28.5849C19.7375 28.5849 19.7968 28.5494 19.8273 28.4926C19.8577 28.4357 19.8544 28.3667 19.8187 28.313C19.3307 27.5799 18.9352 26.4968 18.6329 25.2064C18.3313 23.9191 18.1253 22.4384 18.0095 20.9197L18.0027 20.8309C17.9151 19.6835 17.835 18.6332 17.8176 17.7102C17.8001 16.7857 17.846 16.0023 18.0044 15.386C18.1384 14.8652 18.3797 14.5403 18.6996 14.3207C19.0263 14.0964 19.4488 13.9722 19.9628 13.8824C20.7734 13.7408 22.1721 13.6566 23.5841 13.6355C24.9956 13.6144 26.4022 13.6566 27.2277 13.7636C27.8808 13.8482 28.7142 14.0933 29.4244 14.5176C30.1356 14.9424 30.7016 15.533 30.8676 16.3013C31.0361 17.0804 30.8361 17.6551 30.4465 18.0923C30.0489 18.5384 29.443 18.8524 28.7871 19.071C28.2778 19.2408 27.3092 19.3422 26.2414 19.409C25.5227 19.454 24.7738 19.4827 24.1099 19.5081C23.7934 19.5203 23.4962 19.5317 23.2308 19.5437Z" fill="#FFDF6E" stroke="black" stroke-width="0.35" stroke-linejoin="round"/>
    <path d="M19.6592 15.8661C19.6592 16.5119 20.0975 17.4251 21.1698 17.4619C22.3038 17.5008 22.8037 16.4234 22.8037 15.7911" stroke="black" stroke-width="0.4" stroke-linecap="round"/>
    <path d="M27.2397 17.2521C27.2398 17.916 27.7441 18.8548 28.9779 18.8926" stroke="black" stroke-width="0.4" stroke-linecap="round"/>
    <path d="M12.2549 9.12941C12.4314 9.31851 12.8512 9.71732 13.3661 10.2064C13.7604 10.581 14.2105 11.0086 14.6498 11.4356C15.1597 11.9311 15.6578 12.4284 16.047 12.8494C16.2417 13.06 16.4074 13.2497 16.533 13.4093C16.662 13.5732 16.7377 13.6918 16.7659 13.7633C16.784 13.8092 16.7779 13.8379 16.7587 13.8666C16.7332 13.9046 16.6744 13.9542 16.5624 14.0003C16.3397 14.0918 15.9748 14.1413 15.5145 14.11C14.5995 14.0479 13.3694 13.6708 12.2853 12.7859C11.2295 11.9241 11.0451 10.7492 11.2375 9.9204C11.3349 9.50086 11.5229 9.19437 11.7167 9.05406C11.8106 8.98604 11.8986 8.96168 11.9779 8.96934C12.0568 8.97697 12.1516 9.01872 12.2549 9.12941Z" fill="#FF965A" stroke="black" stroke-width="0.35" stroke-linejoin="round"/>
    <path d="M14.9312 9.84647C15.0711 9.97699 15.306 10.2298 15.5819 10.5268C15.7732 10.7326 15.9841 10.9596 16.1967 11.1817C16.4602 11.4571 16.7297 11.7289 16.9771 11.9553C17.2275 12.1844 17.4447 12.3569 17.605 12.4432C17.6455 12.465 17.6575 12.457 17.6656 12.4517C17.6659 12.4515 17.6662 12.4512 17.6665 12.451C17.6898 12.4358 17.7303 12.3897 17.7692 12.2844C17.8451 12.0783 17.8808 11.7377 17.8472 11.3291C17.7802 10.5121 17.4452 9.5134 16.7493 8.91695C16.2027 8.4484 15.5935 8.55292 15.1942 8.85519C14.9922 9.00802 14.8559 9.20342 14.808 9.38557C14.762 9.56052 14.796 9.72023 14.9312 9.84647Z" fill="#FF965A" stroke="black" stroke-width="0.35" stroke-linejoin="round"/>
  </g>
</svg>