<svg width="37" height="37" viewBox="0 0 37 37" fill="none" xmlns="http://www.w3.org/2000/svg">
<circle cx="18.6464" cy="18.2926" r="17.9461" fill="white" stroke="black" stroke-width="0.6"/>
<mask id="mask0_1262_3597" style="mask-type:alpha" maskUnits="userSpaceOnUse" x="1" y="0" width="36" height="36">
<circle cx="18.6461" cy="18.2926" r="17.6461" fill="#D9D9D9"/>
</mask>
<g mask="url(#mask0_1262_3597)">
<path d="M22.8736 18.8366C22.8142 18.8393 22.7603 18.8719 22.7304 18.9232C22.7004 18.9745 22.6986 19.0376 22.7255 19.0905C23.0631 19.7565 23.4503 20.4033 23.8469 21.053C23.9045 21.1475 23.9624 21.2421 24.0204 21.3368C24.3618 21.8946 24.7061 22.4572 25.0325 23.044C25.7948 24.4147 26.4531 25.9074 26.7198 27.7281C26.9954 29.6095 27.0795 31.3877 26.7202 33.6068C26.6075 34.3029 26.3305 34.8191 25.9424 35.2101C25.5522 35.6033 25.0411 35.8784 24.4491 36.0761C23.4274 36.4172 22.2008 36.5176 21.0026 36.6156C20.8028 36.632 20.6038 36.6482 20.4066 36.6656C18.5046 36.8327 16.3385 36.5899 14.4392 36.1984C12.5379 35.8065 10.9226 35.2696 10.1213 34.8592C9.24315 34.4094 8.84391 33.953 8.72187 33.5223C8.60067 33.0945 8.73778 32.6374 9.06533 32.1476C9.39274 31.658 10.0293 30.9702 10.8628 30.3089C11.6951 29.6486 12.7139 29.0226 13.8014 28.6482C16.167 27.8339 17.5235 27.8539 18.7711 27.8724C18.9541 27.8751 19.1347 27.8778 19.3158 27.8778C19.3804 27.8778 19.4396 27.8423 19.4701 27.7854C19.5006 27.7285 19.4973 27.6595 19.4615 27.6058C18.9735 26.8727 18.578 25.7897 18.2757 24.4992C17.9741 23.2119 17.7681 21.7313 17.6523 20.2126L17.6455 20.1237C17.5579 18.9763 17.4779 17.9261 17.4604 17.0031C17.4429 16.0785 17.4888 15.2951 17.6473 14.6789C17.7812 14.158 18.0225 13.8332 18.3424 13.6136C18.6691 13.3893 19.0916 13.2651 19.6056 13.1753C20.4163 13.0337 21.8149 12.9494 23.2269 12.9283C24.6384 12.9072 26.0451 12.9495 26.8705 13.0564C27.5236 13.141 28.357 13.3861 29.0672 13.8104C29.7784 14.2353 30.3444 14.8259 30.5105 15.5941C30.6789 16.3733 30.479 16.948 30.0893 17.3852C29.6917 17.8313 29.0859 18.1452 28.43 18.3639C27.9206 18.5336 26.952 18.635 25.8842 18.7018C25.1655 18.7468 24.4166 18.7755 23.7527 18.801C23.4362 18.8131 23.139 18.8245 22.8736 18.8366Z" fill="#FFDF6E" stroke="black" stroke-width="0.35" stroke-linejoin="round"/>
<path d="M19.3022 15.159C19.3023 15.8047 19.7406 16.7179 20.8128 16.7547C21.9468 16.7936 22.4468 15.7163 22.4468 15.084" stroke="black" stroke-width="0.4" stroke-linecap="round"/>
<path d="M26.8828 16.5449C26.8828 17.2088 27.3872 18.1476 28.6209 18.1855" stroke="black" stroke-width="0.4" stroke-linecap="round"/>
<path d="M11.898 8.42238C12.0745 8.61147 12.4943 9.01028 13.0091 9.4994C13.4035 9.87402 13.8536 10.3016 14.2928 10.7285C14.8027 11.2241 15.3009 11.7214 15.6901 12.1424C15.8848 12.353 16.0504 12.5427 16.176 12.7022C16.3051 12.8662 16.3808 12.9848 16.409 13.0563C16.4271 13.1022 16.421 13.1308 16.4018 13.1595C16.3763 13.1976 16.3175 13.2472 16.2054 13.2932C15.9827 13.3848 15.6179 13.4343 15.1576 13.403C14.2425 13.3409 13.0125 12.9637 11.9283 12.0788C10.8725 11.2171 10.6882 10.0422 10.8806 9.21337C10.978 8.79383 11.166 8.48734 11.3598 8.34703C11.4537 8.27901 11.5417 8.25464 11.6209 8.26231C11.6999 8.26994 11.7946 8.31168 11.898 8.42238Z" fill="#FF965A" stroke="black" stroke-width="0.35" stroke-linejoin="round"/>
<path d="M14.5745 9.13956C14.7144 9.27008 14.9493 9.52292 15.2252 9.81988C15.4165 10.0257 15.6274 10.2527 15.84 10.4748C16.1035 10.7502 16.373 11.022 16.6204 11.2484C16.8708 11.4775 17.088 11.65 17.2483 11.7363C17.2888 11.7581 17.3008 11.7501 17.3089 11.7448C17.3092 11.7445 17.3095 11.7443 17.3098 11.7441C17.3332 11.7289 17.3737 11.6828 17.4125 11.5775C17.4885 11.3714 17.5241 11.0307 17.4905 10.6222C17.4235 9.80517 17.0885 8.80649 16.3926 8.21004C15.846 7.74149 15.2368 7.84601 14.8375 8.14828C14.6356 8.30111 14.4993 8.49651 14.4513 8.67866C14.4053 8.85361 14.4393 9.01332 14.5745 9.13956Z" fill="#FF965A" stroke="black" stroke-width="0.35" stroke-linejoin="round"/>
</g>
</svg>
