<svg width="37" height="37" viewBox="0 0 37 37" fill="none" xmlns="http://www.w3.org/2000/svg">
<circle cx="18.6464" cy="18.7599" r="17.9461" fill="white" stroke="black" stroke-width="0.6"/>
<mask id="mask0_937_8754" style="mask-type:alpha" maskUnits="userSpaceOnUse" x="1" y="1" width="36" height="36">
<circle cx="18.6461" cy="18.7599" r="17.6461" fill="#D9D9D9"/>
</mask>
<g mask="url(#mask0_937_8754)">
<path d="M22.8736 19.3034C22.8142 19.3061 22.7603 19.3387 22.7304 19.39C22.7004 19.4413 22.6986 19.5043 22.7255 19.5573C23.0631 20.2233 23.4503 20.8701 23.8469 21.5198C23.9045 21.6143 23.9624 21.7089 24.0204 21.8036C24.3618 22.3614 24.7061 22.924 25.0325 23.5108C25.7948 24.8815 26.4531 26.3742 26.7198 28.1949C26.9954 30.0763 27.0795 31.8545 26.7202 34.0736C26.6075 34.7696 26.3305 35.2859 25.9424 35.6769C25.5522 36.0701 25.0411 36.3452 24.4491 36.5429C23.4274 36.884 22.2008 36.9843 21.0026 37.0824C20.8028 37.0988 20.6038 37.115 20.4066 37.1324C18.5046 37.2995 16.3385 37.0567 14.4392 36.6652C12.5379 36.2733 10.9226 35.7364 10.1213 35.326C9.24315 34.8762 8.84391 34.4198 8.72187 33.9891C8.60067 33.5613 8.73778 33.1042 9.06533 32.6144C9.39274 32.1248 10.0293 31.437 10.8628 30.7757C11.6951 30.1154 12.7139 29.4894 13.8014 29.115C16.167 28.3007 17.5235 28.3207 18.7711 28.3392C18.9541 28.3419 19.1347 28.3446 19.3158 28.3446C19.3804 28.3446 19.4396 28.3091 19.4701 28.2522C19.5006 28.1953 19.4973 28.1263 19.4615 28.0726C18.9735 27.3395 18.578 26.2565 18.2757 24.966C17.9741 23.6787 17.7681 22.1981 17.6523 20.6794L17.6455 20.5905C17.5579 19.4431 17.4779 18.3929 17.4604 17.4699C17.4429 16.5453 17.4888 15.7619 17.6473 15.1457C17.7812 14.6248 18.0225 14.3 18.3424 14.0804C18.6691 13.8561 19.0916 13.7319 19.6056 13.6421C20.4163 13.5005 21.8149 13.4162 23.2269 13.3951C24.6384 13.374 26.0451 13.4163 26.8705 13.5232C27.5236 13.6078 28.357 13.8529 29.0672 14.2772C29.7784 14.7021 30.3444 15.2927 30.5105 16.0609C30.6789 16.8401 30.479 17.4148 30.0893 17.8519C29.6917 18.2981 29.0859 18.612 28.43 18.8307C27.9206 19.0004 26.952 19.1018 25.8842 19.1686C25.1655 19.2136 24.4166 19.2423 23.7527 19.2678C23.4362 19.2799 23.139 19.2913 22.8736 19.3034Z" fill="#FFDF6E" stroke="black" stroke-width="0.35" stroke-linejoin="round"/>
<path d="M19.3022 15.6258C19.3023 16.2715 19.7406 17.1847 20.8128 17.2215C21.9468 17.2604 22.4468 16.1831 22.4468 15.5508" stroke="black" stroke-width="0.4" stroke-linecap="round"/>
<path d="M26.8828 17.0122C26.8828 17.6761 27.3872 18.6149 28.6209 18.6527" stroke="black" stroke-width="0.4" stroke-linecap="round"/>
<path d="M11.898 8.88918C12.0745 9.07827 12.4943 9.47708 13.0091 9.9662C13.4035 10.3408 13.8536 10.7684 14.2928 11.1953C14.8027 11.6909 15.3009 12.1882 15.6901 12.6092C15.8848 12.8198 16.0504 13.0095 16.176 13.169C16.3051 13.333 16.3808 13.4516 16.409 13.5231C16.4271 13.569 16.421 13.5976 16.4018 13.6263C16.3763 13.6644 16.3175 13.714 16.2054 13.76C15.9827 13.8516 15.6179 13.9011 15.1576 13.8698C14.2425 13.8077 13.0125 13.4305 11.9283 12.5456C10.8725 11.6839 10.6882 10.509 10.8806 9.68017C10.978 9.26062 11.166 8.95414 11.3598 8.81383C11.4537 8.74581 11.5417 8.72144 11.6209 8.72911C11.6999 8.73674 11.7946 8.77848 11.898 8.88918Z" fill="#FF965A" stroke="black" stroke-width="0.35" stroke-linejoin="round"/>
<path d="M14.5745 9.60636C14.7144 9.73688 14.9493 9.98972 15.2252 10.2867C15.4165 10.4925 15.6274 10.7195 15.84 10.9416C16.1035 11.217 16.373 11.4888 16.6204 11.7151C16.8708 11.9443 17.088 12.1168 17.2483 12.2031C17.2888 12.2249 17.3008 12.2169 17.3089 12.2116C17.3092 12.2113 17.3095 12.2111 17.3098 12.2109C17.3332 12.1957 17.3737 12.1496 17.4125 12.0443C17.4885 11.8382 17.5241 11.4975 17.4905 11.089C17.4235 10.272 17.0885 9.27329 16.3926 8.67684C15.846 8.20828 15.2368 8.3128 14.8375 8.61508C14.6356 8.76791 14.4993 8.96331 14.4513 9.14546C14.4053 9.32041 14.4393 9.48012 14.5745 9.60636Z" fill="#FF965A" stroke="black" stroke-width="0.35" stroke-linejoin="round"/>
</g>
</svg>
