<svg xmlns="http://www.w3.org/2000/svg" width="67" height="97" viewBox="0 0 67 97" fill="none">
  <g clip-path="url(#clip0_2055_5581)">
    <path d="M6.19328 161.078C6.66969 157.674 8.31545 154.529 10.1345 151.6C10.9573 150.221 12.0834 148.886 12.7763 147.421C12.2566 145.095 12.0834 142.682 12.2999 140.313C13.1228 131.266 18.883 123.512 21.6981 114.895C22.8675 111.32 23.5171 107.529 24.7298 103.953C24.6865 103.479 24.6432 103.048 24.5999 102.574C24.2101 96.414 24.4266 90.2104 24.6432 84.0499C25.1196 70.5227 25.596 56.9954 26.0724 43.4682C26.1157 41.7881 26.2023 40.0649 26.9386 38.6001C27.6749 37.0923 29.0175 36.0153 30.4467 35.1106C35.5139 31.9658 41.7938 31.4488 46.2547 35.7568C47.4241 36.8769 48.68 38.4709 48.9832 40.0649C49.2431 41.4865 48.9399 43.2097 49.0265 44.7606C50.499 65.1376 48.2902 85.5577 49.1131 105.978C49.1131 105.978 49.1131 105.978 49.1131 106.021C49.3297 106.667 49.5029 107.313 49.6762 107.96C51.9716 116.533 54.137 124.89 57.1254 133.291C58.3814 136.78 59.6374 140.27 59.9838 143.932C60.1571 146.086 59.9838 148.24 59.4641 150.351C59.9405 151.126 60.4169 151.858 60.85 152.591C62.5391 155.606 64.055 158.794 64.4014 162.241C64.7479 165.687 63.7951 169.392 61.1965 171.675C59.8106 172.882 58.0782 173.614 56.3025 174.002C52.7944 174.82 48.8533 174.389 45.9515 172.278C44.0459 170.9 42.7033 168.875 41.9237 166.635C39.8449 166.937 37.7227 166.937 35.6005 166.764C33.3051 166.549 31.0097 166.118 28.8009 165.386C27.978 168.014 26.4189 170.383 24.1668 171.891C21.1784 173.872 17.2372 174.131 13.7725 173.183C11.9968 172.709 10.3077 171.891 9.00841 170.641C6.53976 168.229 5.71688 164.481 6.19328 161.078Z" fill="#FFCE85"/>
    <path d="M40.6677 66.3C38.6755 66.3431 36.8132 65.0938 35.6005 63.4137C34.4311 61.7335 33.8248 59.6657 33.5216 57.5978C33.3051 56.3485 33.2185 55.0561 33.435 53.8067C33.5216 53.3759 33.6516 52.902 33.9114 52.5574C34.3445 51.9974 35.0375 51.6958 35.7304 51.6096C37.3762 51.3512 39.1952 52.1697 39.9748 53.7206C40.5378 54.8407 40.5811 56.1331 40.711 57.3824C40.8843 58.6317 41.274 60.0103 42.3135 60.6565C43.5261 61.432 45.5184 61.6904 44.5656 63.6291C43.8726 65.1369 42.3568 66.257 40.6677 66.3Z" fill="black" fill-opacity="0.07"/>
    <path d="M47.7706 52.7728C47.4241 53.2036 46.8611 53.5051 46.2981 53.462C45.5618 53.3759 45.0421 52.7297 44.6956 52.1266C44.2192 51.308 43.8727 50.4464 43.7861 49.4987C43.6995 48.5509 43.9593 47.6031 44.5224 46.8707C45.5618 45.5783 48.1171 45.4491 48.7234 47.2585C48.9399 47.9478 48.7667 48.8524 48.6801 49.5417C48.6368 50.5757 48.4635 51.9111 47.7706 52.7728Z" fill="black" fill-opacity="0.07"/>
    <path d="M31.0097 55.0567C30.2735 55.6599 29.2341 56.1337 28.3245 55.746C27.2851 55.3152 26.8953 54.0659 26.7221 52.9458C26.5489 51.7395 26.4622 50.4902 26.5055 49.2409C26.5489 48.2931 26.6355 47.3023 27.1119 46.4837C28.2379 44.5882 31.0097 44.4159 32.5256 45.9668C34.2147 47.7331 33.8249 49.6286 33.1319 51.7395C32.6988 53.032 32.0492 54.2382 31.0097 55.0567Z" fill="black" fill-opacity="0.07"/>
    <path d="M33.5216 49.9729C33.1318 51.8684 32.0924 53.6347 30.6632 53.6778C29.5804 53.6778 28.541 52.6008 27.978 51.2653C27.415 49.9298 27.1984 48.3358 27.1551 46.828C27.1118 45.4064 27.1551 43.9416 27.5016 42.6492C27.848 41.3568 28.541 40.1936 29.4938 39.7198C33.1751 37.9965 34.2146 46.7849 33.5216 49.9729Z" fill="white"/>
    <path d="M27.9347 43.6827C28.1079 43.8981 28.3245 44.0274 28.6276 43.9843C29.0607 43.9412 29.4072 43.5535 29.3639 43.1227C29.3206 42.6919 28.9308 42.3473 28.4977 42.3903C28.3678 42.3903 28.2811 42.4334 28.1945 42.4765C28.4977 41.4426 29.0607 41.0548 29.9702 42.1319C31.4861 43.8981 30.5766 52.1265 28.5843 50.3602C28.4111 50.1879 28.2811 49.9294 28.1945 49.6709C27.8914 48.7231 27.6748 45.7506 27.9347 43.6827Z" fill="#250D11"/>
    <path d="M48.6368 49.0252C48.2903 50.6191 47.4241 52.17 46.1681 52.2131C45.2153 52.2131 44.3491 51.3084 43.8727 50.1452C43.3963 48.9821 43.2231 47.6466 43.1798 46.3111C43.1364 45.1048 43.1798 43.8555 43.4829 42.7354C43.7861 41.6153 44.3924 40.6245 45.172 40.2368C48.3336 38.772 49.2431 46.3111 48.6368 49.0252Z" fill="white"/>
    <path d="M45.0854 42.175C45.172 41.4427 45.7783 40.3657 46.6445 41.0119C46.7312 41.0549 46.8178 41.1411 46.8611 41.2273C46.4713 41.2273 46.1681 41.5288 46.1681 41.9166C46.1681 42.3043 46.4713 42.6058 46.8611 42.6058C47.0776 42.6058 47.2509 42.4766 47.3808 42.3474C47.4674 42.692 47.5107 43.0797 47.554 43.3813C47.684 44.4152 47.9005 45.2768 47.7273 46.3107C47.684 46.6985 47.5974 47.0862 47.3375 47.3878C47.0776 47.6893 46.6445 47.8616 46.2981 47.6893C46.0382 47.5601 45.9083 47.3016 45.7783 47.0431C45.172 45.5353 44.8688 43.8121 45.0854 42.175Z" fill="#250D11"/>
    <path d="M42.9631 42.0036C42.1403 43.4683 40.5378 44.4592 38.892 44.5884C37.203 44.7607 35.4706 44.0284 34.3878 42.779C33.6516 43.9422 32.179 44.5453 30.8365 44.4161C29.4505 44.2868 28.1946 43.5114 27.3284 42.4344C26.9819 42.0036 26.6354 41.5297 26.2889 41.142C26.4189 40.2373 26.5921 39.3757 27.0252 38.5572C27.7615 37.0493 29.1041 35.9723 30.5333 35.0676C35.6005 31.9228 41.8804 31.4058 46.3413 35.7139C47.5107 36.8339 48.7666 38.4279 49.0698 40.0219C49.1131 40.3235 49.1564 40.625 49.1564 40.9697C47.2075 42.3051 45.042 42.9083 42.9631 42.0036Z" fill="black" fill-opacity="0.07"/>
    <path d="M25.1629 4.30762C23.647 4.39378 22.3911 5.42771 21.3949 6.59088C18.8397 9.64958 17.9735 13.8715 18.5798 17.7487C19.1861 21.6259 21.1351 25.2878 23.7337 28.3034C24.5565 29.2942 28.8009 33.3007 29.9702 30.8882C30.5333 29.725 27.0252 24.4692 26.5488 23.0907C24.4699 17.0594 23.9502 10.5112 25.1629 4.30762Z" fill="#FFCE85"/>
    <path d="M29.9703 30.8455C30.5333 29.6823 27.0252 24.4265 26.5488 23.0479C26.0724 21.6694 25.6826 20.2908 25.3361 18.8691C24.903 19.5153 24.6432 20.3339 24.6432 21.2386C24.6865 22.3156 24.9897 23.3495 25.1629 24.4265C25.3361 25.5035 25.3361 26.6236 24.8164 27.5714C24.5999 27.9591 24.2967 28.3037 23.9935 28.6053C25.2928 29.8977 28.8875 33.0857 29.9703 30.8455Z" fill="black" fill-opacity="0.07"/>
    <path d="M20.2689 8.18509C20.4421 8.09893 20.6153 8.05585 20.8319 8.09893C21.3516 8.14201 21.7414 8.6159 21.8713 9.13286C22.0013 9.64983 21.9146 10.1668 21.8713 10.6838C21.5248 13.5271 21.5248 16.4565 21.9146 19.2998C22.2611 21.8416 23.8203 24.8141 23.8203 27.2266C23.4305 27.2266 23.0407 27.1405 22.6509 26.9681C20.6153 24.2541 19.0562 21.1092 18.5798 17.7489C18.1034 14.4748 18.6231 11.0284 20.2689 8.18509Z" fill="black" fill-opacity="0.01"/>
    <path d="M47.9438 5.16929C47.8571 4.43693 47.7705 3.70456 48.0304 3.01528C48.2902 2.32599 49.0265 1.76595 49.7195 1.98135C50.0226 2.06751 50.2825 2.32599 50.499 2.58447C51.5818 3.8338 52.1881 5.42778 52.6212 7.02175C53.7472 11.3298 53.6173 15.9825 52.1015 20.1182C50.5856 24.297 47.5973 27.9588 43.6994 30.1559C42.9632 30.5867 41.0142 31.4052 40.5378 30.199C40.1913 29.3805 41.6206 28.1311 42.0103 27.5711C43.5262 25.4171 44.7822 23.0907 45.7783 20.6782C47.7272 15.724 48.5068 10.382 47.9438 5.16929Z" fill="#FFCE85"/>
    <path d="M45.042 22.3584C44.2192 24.1678 43.1797 25.891 42.0537 27.528C41.6639 28.0881 40.2347 29.3805 40.5811 30.1559C41.0576 31.3622 43.0065 30.5437 43.7427 30.1129C45.8216 28.9497 47.6406 27.3557 49.1131 25.5033C48.4202 24.9863 47.6406 24.5124 46.9477 23.9955C46.2114 23.5646 45.5618 23.0046 45.042 22.3584Z" fill="black" fill-opacity="0.07"/>
    <path d="M49.8927 21.8413C50.7155 18.5241 51.5817 15.25 52.0148 11.8897C52.2747 9.64953 52.3613 7.32319 52.0148 5.08301C52.2747 5.68613 52.4479 6.33234 52.6212 7.02162C53.7472 11.3297 53.6173 15.9823 52.1015 20.1181C51.4518 21.8843 50.5423 23.5645 49.4163 25.0723C49.4163 25.0292 49.4163 25.0292 49.4163 24.9861C49.4163 23.9091 49.6328 22.8752 49.8927 21.8413Z" fill="black" fill-opacity="0.01"/>
    <path d="M36.1635 24.6413C36.7266 24.2105 37.203 23.6504 37.766 23.2196C38.329 22.7888 39.0653 22.4442 39.7582 22.5734C40.4512 22.7027 41.0142 23.2627 41.2741 23.952C41.4906 24.5982 41.404 25.3736 41.1441 26.0198C43.4396 25.0721 46.2114 24.9428 48.3335 26.2783C50.4557 27.5707 51.6251 30.4571 50.5423 32.6973C50.1525 33.5158 49.4163 34.2482 48.5068 34.4205C49.1997 34.8944 49.5462 35.7129 49.5895 36.4884C49.6328 37.3069 49.3297 38.0823 48.9399 38.8147C48.2902 39.9779 47.2508 41.0118 45.9515 41.2703C44.6522 41.5288 43.0931 40.7102 42.8765 39.4178C42.2702 41.6149 39.8449 43.1658 37.5928 42.8643C35.2973 42.5627 33.435 40.4087 33.4783 38.1254C33.0019 39.9348 30.7931 41.0118 28.9741 40.5379C27.1551 40.064 25.8125 38.3408 25.4661 36.5314C25.1629 34.8944 25.596 33.085 26.8953 32.008C26.6354 32.1373 26.3322 31.9218 26.2456 31.6634C26.159 31.4049 26.2023 31.1033 26.2889 30.8448C26.6354 29.5955 27.3284 28.4754 28.3245 27.6138C27.1984 27.3122 26.4622 26.0198 26.722 24.8997C26.9819 23.7797 28.2379 23.0042 29.4072 23.2196C30.9231 23.5212 30.6632 25.1152 31.7026 25.7183C32.872 26.3214 35.1241 25.4167 36.1635 24.6413Z" fill="#F1AC53"/>
    <path d="M48.5068 34.3782C49.1997 34.8521 49.5462 35.6706 49.5895 36.4461C49.6328 37.2646 49.3297 38.0401 48.9399 38.7724C48.2902 39.9356 47.2508 40.9695 45.9515 41.228C44.6522 41.4865 43.0931 40.668 42.8765 39.3755C42.2702 41.5726 39.8449 43.1235 37.5928 42.822C35.2973 42.5204 33.435 40.3664 33.4783 38.0831C33.0019 39.8925 30.7931 40.9695 28.9741 40.4956C27.1551 40.0217 25.8125 38.2985 25.4661 36.4892C25.1629 34.8521 25.596 33.0427 26.8953 31.9657C26.6354 32.095 26.3322 31.8796 26.2456 31.6211C26.159 31.3626 26.2023 31.061 26.2889 30.8026C26.6354 29.5532 27.3284 28.4331 28.3245 27.5715C27.1984 27.27 26.4622 25.9776 26.722 24.8575C26.9819 23.7805 28.1513 23.005 29.234 23.1773C28.7143 23.9097 28.0213 24.599 28.0213 25.4606C28.0213 27.0115 30.0136 28.0023 29.9269 29.5532C29.8836 30.6733 28.7576 31.8796 29.5372 32.655C30.0569 33.2151 30.9664 32.8704 31.7026 32.6119C32.4389 32.3534 33.4783 32.3534 33.6949 33.0858C33.7815 33.4305 33.6083 33.8182 33.4783 34.1628C32.872 35.886 34.128 37.9539 35.9037 38.4709C37.6794 38.9878 39.6716 38.1693 40.7977 36.7046C41.0575 36.3599 41.3174 35.9722 41.7072 35.886C42.4867 35.6706 43.0498 36.5322 43.6994 36.92C44.8255 37.5662 46.4279 36.4892 46.298 35.1967C46.2114 34.4213 45.605 33.732 45.8649 32.9996C46.2547 31.7503 48.117 32.1811 49.4163 31.8365C50.2825 31.6211 50.8022 31.2334 51.1054 30.7164C51.1054 31.3626 51.0187 32.0519 50.7156 32.655C50.1092 33.5166 49.4163 34.249 48.5068 34.3782Z" fill="#DB984F"/>
    <path d="M41.967 58.6319C41.7071 58.1149 41.5339 57.5118 41.1441 57.1241C40.711 56.6502 40.1047 56.4348 39.4983 56.2625C38.892 56.0902 38.2424 55.9609 37.5927 55.9178C36.5533 55.7886 35.2973 55.9178 34.7343 56.7794C34.2146 57.5549 34.4311 58.6319 34.9075 59.4504C35.6438 60.7859 36.9431 61.7768 38.4156 62.2506C39.5416 62.5953 42.4434 63.0261 43.3962 61.9922C44.2624 61.0013 42.4434 59.6658 41.967 58.6319Z" fill="#682337"/>
    <path d="M36.4667 58.8905C35.947 58.2874 35.6438 57.555 35.1241 56.9519C34.9509 56.7365 34.691 56.5211 34.4312 56.5641C33.9548 56.6072 33.8248 57.2103 33.8248 57.6842C33.9981 60.7429 36.2069 63.5862 39.1086 64.534C40.5811 65.0079 42.4001 65.051 43.6994 64.1032C44.5656 63.5001 45.8216 61.9061 44.6522 61.0445C43.7427 60.3983 41.6206 61.0445 40.5811 60.9153C39.022 60.786 37.4628 60.1398 36.4667 58.8905Z" fill="#F28563"/>
    <path d="M33.8248 57.8563C33.8248 57.9425 33.8681 58.0286 33.9114 58.0717C33.9547 58.1148 33.998 58.1579 34.0847 58.1579C34.9508 58.4594 35.9903 58.5456 36.7265 59.1487C36.4667 58.8902 36.2501 58.5887 36.0336 58.2009C35.9903 58.1148 35.9903 58.0717 35.9037 58.0286C35.817 57.9425 35.6871 57.8994 35.6005 57.8563C35.1674 57.684 34.7343 57.5117 34.3445 57.3824C34.2146 57.3393 33.9547 57.167 33.9114 57.2963C33.7815 57.4255 33.8248 57.7701 33.8248 57.8563Z" fill="#CC6E54"/>
    <g opacity="0.3">
      <path d="M43.6994 64.1465C42.4001 65.0942 40.5811 65.0511 39.1085 64.5773C36.9431 63.888 35.1674 62.1217 34.3445 60.0107C34.3445 60.0538 34.3878 60.0538 34.3878 60.0969C36.4233 62.3371 39.6283 63.5002 42.6599 63.0694C43.6994 62.9402 44.6955 62.5525 45.042 61.6047C45.3884 62.4232 44.4356 63.5864 43.6994 64.1465Z" fill="#F28563"/>
    </g>
    <path d="M34.4744 57.8565C34.2146 57.7704 33.998 57.6411 33.8248 57.4688C33.6515 57.2534 33.6082 56.9519 33.5649 56.6934C33.3484 55.1425 33.1751 53.5054 33.5216 51.9545C33.8681 50.4036 34.7343 48.8958 36.1635 48.1635C37.3329 47.5173 38.7621 47.5173 40.0614 47.7757C41.0575 47.9911 42.0103 48.4219 42.7466 49.1543C43.6561 50.059 44.0025 51.3945 44.349 52.6007C45.1286 55.444 44.6089 56.5211 41.8804 57.6411C39.5417 58.632 36.8565 58.7182 34.4744 57.8565Z" fill="#F28563"/>
    <path opacity="0.3" d="M34.3445 53.549C34.6477 55.703 36.2068 57.6416 38.2424 58.374C38.2424 58.417 38.1991 58.417 38.1991 58.4601C38.2424 58.4601 38.2424 58.4601 38.2857 58.4601C36.9864 58.5032 35.7304 58.3309 34.5178 57.857C34.2579 57.7708 34.0414 57.6416 33.8681 57.4693C33.6949 57.2539 33.6516 56.9523 33.6083 56.6938C33.3917 55.1429 33.2185 53.5059 33.565 51.955C33.8248 50.6626 34.5178 49.4133 35.5139 48.5947C35.384 48.767 35.2973 48.8963 35.2107 49.0686C34.4311 50.4041 34.128 51.9981 34.3445 53.549Z" fill="#F28563"/>
    <path d="M38.892 55.7024C38.0691 55.8316 37.2895 55.4008 36.5966 54.9269C35.9469 54.453 34.9941 53.6345 35.2107 52.7298C35.3839 51.9974 36.6832 52.7729 36.9864 53.0314C37.4628 53.4191 37.8959 53.9791 38.4589 54.2807C38.5455 54.3238 38.6321 54.3669 38.7621 54.3669C38.892 54.3238 38.9786 54.2376 39.0219 54.1515C39.455 53.5053 41.5772 49.9727 42.0103 52.2128C42.2268 53.3329 39.8881 55.53 38.892 55.7024Z" fill="#8D3148"/>
    <path d="M40.2779 58.158C39.6716 58.5457 38.8487 58.6319 38.1558 58.4165C38.5022 58.0718 38.6755 57.5979 38.6755 57.124C38.6755 56.8225 38.6755 56.4778 38.6322 56.1763C38.5889 55.9609 38.5022 55.5731 38.5889 55.4008C38.8054 54.97 39.0653 55.487 39.1086 55.7455C39.2818 56.2193 39.2385 56.7363 39.4117 57.2533C39.4984 57.3825 40.0181 58.3303 40.2779 58.158Z" fill="#8D3148"/>
    <path d="M44.0026 55.9609C43.4396 56.2194 42.9198 56.521 42.4001 56.8225C42.2269 56.9518 42.0536 57.081 41.967 57.2533C41.9237 57.3826 41.9237 57.5118 41.9237 57.6411C41.8804 58.6319 41.8804 59.6228 41.9237 60.5705C41.9237 60.6567 41.9237 60.7429 41.967 60.829C42.0103 60.9152 42.097 60.9152 42.1836 60.9583C43.5262 61.3891 43.6128 60.6567 43.786 59.4935C44.0026 58.3304 44.0459 57.1672 44.0026 55.9609Z" fill="white"/>
    <path d="M41.7504 58.0723C41.1008 58.5031 40.3212 58.7185 39.5416 58.7185C39.5416 58.9339 39.5849 59.1493 39.5849 59.4078C39.6282 60.097 39.7149 60.8725 40.3212 61.2171C40.9708 61.5618 41.6638 61.1741 41.837 60.5709C41.9237 60.1832 41.5339 58.2015 41.7504 58.0723Z" fill="white"/>
    <path d="M43.5695 60.8292C43.6994 60.4414 44.349 57.0812 44.0459 57.0381C44.4357 57.1242 44.8254 57.1673 45.2152 57.2535C45.3452 57.2535 45.4318 57.2966 45.5184 57.3827C45.5617 57.4258 45.5617 57.512 45.5184 57.5551C45.4318 58.4167 45.3452 59.2352 45.042 60.0537C44.8254 60.6138 44.479 61.1307 43.9159 61.303C43.8293 61.3461 43.6994 61.3461 43.6128 61.26C43.5262 61.1738 43.5262 60.9584 43.5695 60.8292Z" fill="white"/>
    <path d="M42.1836 60.9581C42.0969 60.915 42.0103 60.915 41.967 60.8288C41.9237 60.7427 41.9237 60.6565 41.9237 60.5703C41.9237 60.3549 41.9237 60.1826 41.9237 59.9672C42.0103 60.0965 42.0969 60.2257 42.2269 60.2688C42.3135 60.3119 42.4001 60.3119 42.4867 60.2688C42.8765 60.1826 43.223 59.8811 43.4395 59.5364C43.6561 59.1918 43.7427 58.761 43.8293 58.3302C43.8726 57.9424 43.9593 57.5547 44.0459 57.167C44.0459 57.9424 43.9593 58.7179 43.8293 59.4933C43.6128 60.6565 43.5262 61.3889 42.1836 60.9581Z" fill="#EAE9E8"/>
    <path d="M40.2779 61.2164C39.8448 60.9579 39.6716 60.484 39.585 59.967C39.9314 60.0963 40.3212 60.2686 40.711 60.2686C41.1008 60.2686 41.4906 60.1824 41.7504 59.8809C41.7938 60.1824 41.7938 60.4409 41.7504 60.5701C41.6205 61.1733 40.9276 61.561 40.2779 61.2164Z" fill="#EAE9E8"/>
    <path d="M43.9592 61.2596C43.8726 61.3027 43.7427 61.3027 43.6561 61.2165C43.5261 61.1304 43.5695 60.915 43.6128 60.7857C43.6561 60.6134 43.786 59.9241 43.9159 59.1487V59.1056C44.0459 59.2348 44.2191 59.2779 44.3923 59.321C44.5656 59.3641 44.6955 59.3641 44.8687 59.321C45.042 59.2779 45.2152 59.1917 45.3018 59.0625C45.2152 59.4071 45.1719 59.7087 45.042 60.0103C44.8687 60.5703 44.5223 61.1304 43.9592 61.2596Z" fill="#EAE9E8"/>
    <path d="M40.7976 61.001C41.1008 61.001 41.4473 60.9148 41.7071 60.6994C41.7504 60.6564 41.8371 60.6133 41.8804 60.6133C41.9237 60.6133 41.967 60.6994 41.967 60.7425C42.0969 60.9579 42.4001 60.9579 42.6166 60.9148C42.8332 60.8718 43.0497 60.8287 43.2663 60.6994C43.3529 60.6564 43.4395 60.6133 43.5261 60.6564C43.5694 60.6564 43.5694 60.6994 43.6128 60.6994C43.786 60.8287 44.0025 60.8287 44.2191 60.8287C44.3057 60.8287 44.4356 60.8287 44.4789 60.9148C44.5656 61.001 44.5656 61.1302 44.4789 61.2595C44.4356 61.3456 44.3057 61.4318 44.2191 61.4749C43.6994 61.7765 43.093 61.8626 42.53 61.9057C42.0536 61.9488 41.5772 61.9919 41.1008 61.9488C40.7543 61.9488 40.4511 61.9057 40.148 61.7764C39.8448 61.6472 39.5416 61.4318 39.4117 61.1733C39.3684 61.1302 39.3684 61.0872 39.3684 61.0441C39.3684 60.9148 39.455 60.8287 39.585 60.8287C39.7582 60.7856 39.9314 60.8718 40.148 60.9148C40.3212 60.9579 40.5811 61.001 40.7976 61.001Z" fill="#F28563"/>
    <path d="M43.3096 50.5329C43.3962 50.7483 43.4396 51.0068 43.2663 51.1361C43.0931 51.2653 42.8765 51.1361 42.7466 51.0499C42.4434 50.8345 42.2269 50.576 41.967 50.3175C41.3607 49.7575 40.6244 49.3267 39.8015 49.1113C39.4551 49.0251 39.022 48.8959 39.022 48.5512C39.022 48.3358 39.1519 48.1204 39.3685 48.0343C39.585 47.9481 39.8015 47.9481 40.0181 47.9912C41.3607 48.1635 42.7899 49.1974 43.3096 50.5329Z" fill="#F4987F"/>
    <path d="M46.2547 70.9966C46.4279 70.9966 46.5145 70.8674 46.5145 70.7381C46.4279 69.618 46.0814 68.5841 45.4751 67.6363C45.3885 67.5071 45.2586 67.5071 45.1286 67.5502C44.9987 67.6363 44.9987 67.7656 45.042 67.8948C45.605 68.7564 45.9515 69.7473 45.9948 70.7381C45.9948 70.9104 46.1248 70.9966 46.2547 70.9966Z" fill="#F1AC53"/>
    <path d="M28.8442 65.0079C28.9741 65.0079 29.0607 64.9217 29.104 64.7925C29.2339 64.1463 29.4938 63.5432 29.8403 63.0262C29.9269 62.8969 29.8836 62.7677 29.7537 62.6815C29.6237 62.5954 29.4938 62.6385 29.4072 62.7677C29.0174 63.3708 28.7575 64.017 28.6276 64.7494C28.5843 64.8786 28.6709 65.0079 28.8442 65.051C28.8442 65.0079 28.8442 65.0079 28.8442 65.0079Z" fill="#F1AC53"/>
    <path d="M32.5688 69.5319C32.6987 69.5319 32.7853 69.4458 32.8286 69.3165C32.9153 68.7134 33.0452 68.1103 33.2617 67.5503C33.3051 67.421 33.2617 67.2918 33.1318 67.2056C33.0019 67.1625 32.872 67.2056 32.7853 67.3349C32.5255 67.938 32.3956 68.5842 32.3089 69.2304C32.2656 69.4027 32.3955 69.5319 32.5688 69.5319C32.5255 69.5319 32.5255 69.5319 32.5688 69.5319Z" fill="#F1AC53"/>
    <path d="M38.0259 73.8399C38.1992 73.7968 38.2858 73.6676 38.2858 73.5383C38.1992 72.8491 37.9826 72.1598 37.7227 71.5136C37.6794 71.3843 37.5062 71.3412 37.3763 71.3843C37.2463 71.4274 37.203 71.5997 37.2463 71.729C37.5062 72.3321 37.6794 72.9783 37.7661 73.6245C37.7661 73.7537 37.896 73.8399 38.0259 73.8399Z" fill="#F1AC53"/>
    <path d="M46.9043 82.1107C47.0776 82.0676 47.1642 81.9383 47.1642 81.8091C47.0776 81.0767 46.9043 80.3875 46.7311 79.6982C46.6878 79.5689 46.5578 79.4828 46.4279 79.5259C46.298 79.5689 46.2114 79.6982 46.2547 79.8274C46.4279 80.5167 46.6012 81.206 46.6878 81.8953C46.6445 82.0245 46.7744 82.1107 46.9043 82.1107Z" fill="#F1AC53"/>
    <path d="M47.8571 60.3983C47.9004 60.3983 47.9437 60.3983 47.9437 60.3553C48.0737 60.3122 48.117 60.1398 48.0737 60.0106L47.5973 58.8905C47.554 58.7613 47.3807 58.7182 47.2508 58.7613C47.1209 58.8044 47.0775 58.9767 47.1209 59.1059L47.5973 60.226C47.6406 60.3122 47.7705 60.3983 47.8571 60.3983Z" fill="#F1AC53"/>
    <path d="M26.6355 59.1922C26.7654 59.1922 26.852 59.106 26.8953 58.9768C27.0253 58.1583 27.3717 57.4259 27.8914 56.7797C27.9781 56.6935 27.9781 56.5212 27.8481 56.435C27.7615 56.3489 27.5883 56.3489 27.5017 56.4781C26.9386 57.1674 26.5488 58.029 26.3756 58.9337C26.3756 59.0199 26.4622 59.1491 26.6355 59.1922Z" fill="#F1AC53"/>
    <path d="M33.7815 81.3353C33.8248 81.3353 33.8248 81.3353 33.8681 81.3353C33.9981 81.2922 34.0847 81.1629 34.0414 81.0337C33.7815 80.1721 33.435 79.3536 33.0453 78.535C33.002 78.4058 32.8287 78.3627 32.6988 78.4058C32.5689 78.4489 32.5255 78.6212 32.5689 78.7504C32.9586 79.5259 33.3051 80.3444 33.565 81.1629C33.565 81.2491 33.6516 81.3353 33.7815 81.3353Z" fill="#F1AC53"/>
    <path d="M40.8843 82.4128C41.0575 82.4128 41.1441 82.2835 41.1441 82.1112L40.9709 80.8619C40.9709 80.7326 40.841 80.6465 40.6677 80.6465C40.5378 80.6465 40.4512 80.7757 40.4512 80.948L40.6244 82.1974C40.6244 82.3266 40.7543 82.4128 40.8843 82.4128Z" fill="#F1AC53"/>
    <path d="M26.9819 82.025C27.1118 82.025 27.2418 81.9388 27.2418 81.8096C27.3284 80.948 27.4583 80.0864 27.7182 79.2678C27.7615 79.1386 27.6749 79.0094 27.5449 78.9663C27.415 78.9232 27.2851 79.0094 27.2418 79.1386C26.9819 80.0002 26.8087 80.8618 26.722 81.7665C26.722 81.8527 26.852 81.9819 26.9819 82.025Z" fill="#F1AC53"/>
    <path d="M47.4674 89.0903H47.5107C47.6406 89.0473 47.7273 88.918 47.7273 88.7888C47.5973 88.1856 47.3808 87.6256 47.0343 87.0656C46.9477 86.9363 46.8178 86.8932 46.6878 86.9794C46.5579 87.0656 46.5146 87.1948 46.6012 87.324C46.9044 87.7979 47.1209 88.3149 47.2076 88.8749C47.2509 89.0042 47.3808 89.0903 47.4674 89.0903Z" fill="#F1AC53"/>
    <path d="M36.4667 90.4255C36.5966 90.4255 36.6833 90.3393 36.7266 90.2101C36.8132 89.4777 37.203 88.7885 37.766 88.3146C37.8526 88.2284 37.8959 88.0561 37.8093 87.9699C37.7227 87.8838 37.5495 87.8407 37.4628 87.9268C36.8132 88.4869 36.3801 89.2623 36.2502 90.1239C36.2069 90.2963 36.2935 90.4255 36.4667 90.4255Z" fill="#F1AC53"/>
    <path d="M42.8332 94.3453C42.8765 94.3453 42.8765 94.3453 42.8332 94.3453C43.0065 94.3453 43.0931 94.2161 43.0931 94.0868C43.0498 93.5699 42.9632 93.0529 42.7899 92.579C42.7466 92.4498 42.6167 92.3636 42.4868 92.4067C42.3568 92.4498 42.2702 92.579 42.3135 92.7083C42.4434 93.1822 42.5301 93.656 42.5734 94.1299C42.6167 94.2592 42.7033 94.3453 42.8332 94.3453Z" fill="#F1AC53"/>
    <path d="M27.7182 88.6587C27.8481 88.6587 27.9347 88.5725 27.978 88.4433C28.108 87.8402 28.4978 87.2801 29.0175 86.9786C29.1474 86.8924 29.1907 86.7632 29.1041 86.6339C29.0175 86.5047 28.8875 86.4616 28.7576 86.5478C28.108 86.9355 27.6316 87.6248 27.5016 88.3571C27.4583 88.4864 27.5449 88.6156 27.7182 88.6587Z" fill="#F1AC53"/>
    <path d="M32.179 98.3522C32.2223 98.3522 32.2223 98.3522 32.2656 98.3522C32.3956 98.3091 32.4822 98.1799 32.4389 98.0506C32.2223 97.4475 32.0058 96.8013 31.8759 96.1982C31.8325 96.0689 31.7026 95.9828 31.5727 96.0259C31.4428 96.0689 31.3561 96.1982 31.3994 96.3274C31.5727 96.9736 31.7892 97.6198 32.0058 98.223C31.9625 98.266 32.0491 98.3522 32.179 98.3522Z" fill="#F1AC53"/>
    <path d="M37.1164 98.5243C37.2896 98.5243 37.3762 98.395 37.3762 98.2658C37.2896 97.3611 36.8998 96.4564 36.2935 95.7671C36.2069 95.681 36.0336 95.6379 35.947 95.7671C35.8604 95.8533 35.8171 96.0256 35.947 96.1118C36.51 96.7149 36.8565 97.4903 36.8998 98.3089C36.8565 98.4381 36.9864 98.5243 37.1164 98.5243Z" fill="#F1AC53"/>
    <path d="M28.8443 93.9585C28.9309 93.9585 29.0608 93.8723 29.1041 93.7861C29.364 93.0107 29.7971 92.2783 30.3168 91.6752C30.4034 91.589 30.4034 91.4167 30.2735 91.3306C30.1869 91.2444 30.0136 91.2444 29.927 91.3736C29.364 92.0198 28.8876 92.8384 28.6277 93.6569C28.5844 93.7861 28.671 93.9154 28.801 93.9585C28.7577 93.9585 28.801 93.9585 28.8443 93.9585Z" fill="#F1AC53"/>
    <path d="M43.0931 77.0277C43.2231 77.0277 43.353 76.9416 43.353 76.7693C43.3963 75.5199 43.0931 74.2275 42.4435 73.1505C42.3569 73.0213 42.2269 72.9782 42.097 73.0644C41.9671 73.1505 41.9238 73.2798 42.0104 73.409C42.6167 74.3998 42.9199 75.563 42.8766 76.7262C42.8333 76.8985 42.9199 77.0277 43.0931 77.0277C43.0498 77.0277 43.0498 77.0277 43.0931 77.0277Z" fill="#F1AC53"/>
    <path d="M28.8009 75.6923C28.9309 75.6923 29.0608 75.6061 29.0608 75.4338C29.1041 74.486 29.4073 73.4952 29.9703 72.7197C30.0569 72.5905 30.0136 72.4612 29.927 72.3751C29.7971 72.2889 29.6671 72.332 29.5805 72.4182C28.9742 73.2798 28.6277 74.3568 28.5844 75.4338C28.5411 75.563 28.6277 75.6923 28.8009 75.6923Z" fill="#F1AC53"/>
    <path d="M40.9709 46.785C41.0142 46.785 41.0575 46.785 41.1009 46.742C41.2308 46.6558 41.2308 46.4835 41.1442 46.3973L40.7977 45.9234C40.7111 45.7942 40.5378 45.7942 40.4512 45.8804C40.3213 45.9665 40.3213 46.1388 40.4079 46.225L40.7544 46.6989C40.7977 46.742 40.8843 46.785 40.9709 46.785Z" fill="#F1AC53"/>
    <path d="M30.7931 60.6574C30.9231 60.6574 31.0097 60.5712 31.053 60.4851C31.2262 59.7958 31.4861 59.1496 31.8326 58.5034C31.9192 58.3741 31.8326 58.2449 31.7459 58.1587C31.616 58.0726 31.4861 58.1587 31.3995 58.2449C31.053 58.8911 30.7498 59.5804 30.5766 60.3128C30.5333 60.442 30.6199 60.5712 30.7498 60.6143C30.7498 60.6574 30.7498 60.6574 30.7931 60.6574Z" fill="#F1AC53"/>
    <path d="M41.4907 27.3987C41.8805 27.1402 42.2702 26.8817 42.7033 26.7525C43.1364 26.6232 43.6561 26.6232 44.0459 26.8817C44.1759 26.9679 44.3058 27.0971 44.3058 27.2694C44.3058 27.4417 44.0892 27.571 43.916 27.6572C43.0931 28.0018 42.2702 28.3464 41.4474 28.7342C40.9276 28.9496 40.3646 29.2511 40.278 29.7681C40.1481 30.5866 41.1875 31.1897 41.0576 32.0083C41.0576 32.0513 41.0143 32.1375 40.9709 32.1806C40.7977 32.3529 40.4945 32.2237 40.3646 32.0083C39.8016 31.319 39.5417 30.242 38.7188 29.8973C38.459 29.7681 38.1991 29.7681 37.9393 29.6819C37.3329 29.5096 36.7699 29.0788 36.4667 28.4757C36.4234 28.3895 36.3801 28.3034 36.3801 28.2172C36.4234 28.088 36.5534 28.0018 36.6833 27.9587C37.3762 27.7002 38.1558 28.0449 38.8055 28.4326C38.6322 27.9587 38.459 27.4417 38.5456 26.9679C38.6322 26.494 39.022 25.977 39.5417 26.0201C40.0181 26.0201 40.4079 26.4509 40.4945 26.9248C40.6245 27.4418 40.4512 27.9587 40.1048 28.3895C40.6245 28.088 41.0576 27.7002 41.4907 27.3987Z" fill="#DB984F"/>
    <path d="M24.7299 4.99665C24.8165 4.99665 24.9031 4.95357 24.9464 4.86741C25.2929 4.17813 25.6827 3.53192 26.2024 2.92879C26.289 2.84263 26.289 2.67031 26.2024 2.58415C26.1158 2.49799 25.9425 2.49799 25.8559 2.58415C25.2929 3.18728 24.8598 3.87656 24.5133 4.65201C24.47 4.78125 24.5133 4.91049 24.6432 4.99665C24.6432 4.99665 24.6865 4.99665 24.7299 4.99665Z" fill="#FFCE85"/>
    <path d="M24.7731 5.0399C24.8597 5.0399 24.9463 4.95374 24.9897 4.86758C25.4227 3.83365 25.1196 2.54124 24.2967 1.76579C24.2101 1.67963 24.0368 1.67963 23.9502 1.76579C23.8636 1.85195 23.8636 2.02427 23.9502 2.11044C24.6432 2.75664 24.8597 3.79057 24.5132 4.69526C24.4699 4.8245 24.5132 4.95374 24.6432 5.0399C24.6865 4.99682 24.7298 5.0399 24.7731 5.0399Z" fill="#FFCE85"/>
    <path d="M24.1235 13.053C24.2101 13.053 24.2534 13.01 24.2967 12.9669C24.8164 12.3207 25.4228 11.7176 26.1157 11.2437C26.2456 11.1575 26.2456 10.9852 26.159 10.899C26.0724 10.7698 25.8992 10.7698 25.8125 10.8559C25.0763 11.3729 24.47 11.976 23.9069 12.6653C23.8203 12.7946 23.8203 12.9238 23.9502 13.01C23.9935 13.053 24.0802 13.0961 24.1235 13.053Z" fill="#FFCE85"/>
    <path d="M48.247 3.36048C48.3769 3.36048 48.5068 3.23124 48.4635 3.102C48.3336 1.93883 47.6839 0.904898 46.6878 0.258693C46.5579 0.172532 46.4279 0.215613 46.3413 0.344854C46.2547 0.474095 46.298 0.603336 46.4279 0.689497C47.2508 1.20646 47.8572 2.15423 47.9438 3.14508C47.9871 3.27432 48.117 3.40356 48.247 3.36048Z" fill="#FFCE85"/>
    <path d="M48.8533 2.45537C48.9399 2.45537 49.0265 2.41229 49.0698 2.32613L50.1959 0.387516C50.2825 0.258275 50.2392 0.129034 50.1093 0.0428728C49.9793 -0.0432879 49.8494 -0.00020758 49.7628 0.129034L48.6367 2.06765C48.5501 2.19689 48.5934 2.32613 48.7234 2.41229C48.7667 2.45537 48.81 2.45537 48.8533 2.45537Z" fill="#FFCE85"/>
    <path d="M48.1603 6.37539C48.2469 6.37539 48.2902 6.33231 48.3336 6.24615C48.4202 6.11691 48.3769 5.98767 48.2469 5.90151C47.8138 5.64302 47.2941 5.4707 46.8177 5.4707C46.6878 5.4707 46.5579 5.59994 46.5579 5.72919C46.5579 5.85843 46.6878 5.98767 46.8177 5.98767C47.2508 5.98767 47.6406 6.11691 47.9871 6.33231C48.0304 6.37539 48.0737 6.37539 48.1603 6.37539Z" fill="#FFCE85"/>
    <path d="M46.6878 20.2042H46.7311C46.861 20.1611 46.9477 20.0319 46.9043 19.9027C46.6445 19.1703 46.3413 18.4379 45.9082 17.7486C45.8216 17.6194 45.6917 17.6194 45.5617 17.6625C45.4318 17.7486 45.4318 17.8779 45.4751 18.0071C45.8649 18.6533 46.2114 19.2995 46.4279 20.0319C46.4712 20.1611 46.6012 20.2473 46.6878 20.2042Z" fill="#FFCE85"/>
    <path d="M46.9043 102.187C45.6483 103.694 43.9159 104.728 42.1402 105.461C37.3762 107.399 31.8758 107.442 27.0685 105.59C26.159 105.245 25.2495 104.814 24.5998 104.039C23.9935 103.307 24.2967 102.66 24.1234 101.325C21.9146 102.617 21.1784 105.805 22.521 108.002C20.8752 108.218 19.6625 109.984 19.7058 111.707C19.7491 113.431 20.8752 114.938 22.3044 115.886C23.7336 116.791 25.4227 117.179 27.0685 117.394C32.6121 118.126 38.5022 116.92 43.0497 113.56C47.5539 110.2 50.499 104.513 50.0659 98.8694C49.9793 97.8785 49.5462 97.1462 48.7233 96.8877C48.3768 98.8263 48.2469 100.593 46.9043 102.187Z" fill="#47BDD7"/>
  </g>
  <defs>
    <clipPath id="clip0_2055_5581">
      <rect width="67" height="193" fill="white"/>
    </clipPath>
  </defs>
</svg>