<svg width="59" height="59" viewBox="0 0 59 59" fill="none" xmlns="http://www.w3.org/2000/svg">
<path d="M29.5001 57.3245C45.1136 57.3245 57.7709 44.8818 57.7709 29.5329C57.7709 14.184 45.1136 1.74121 29.5001 1.74121C13.8865 1.74121 1.22925 14.184 1.22925 29.5329C1.22925 44.8818 13.8865 57.3245 29.5001 57.3245Z" fill="#FFDA7A"/>
<path d="M40.5625 27.1159C42.5991 27.1159 44.25 24.9519 44.25 22.2826C44.25 19.6132 42.5991 17.4492 40.5625 17.4492C38.5259 17.4492 36.875 19.6132 36.875 22.2826C36.875 24.9519 38.5259 27.1159 40.5625 27.1159Z" fill="#273941"/>
<path d="M18.4375 27.1159C20.4741 27.1159 22.125 24.9519 22.125 22.2826C22.125 19.6132 20.4741 17.4492 18.4375 17.4492C16.4009 17.4492 14.75 19.6132 14.75 22.2826C14.75 24.9519 16.4009 27.1159 18.4375 27.1159Z" fill="#273941"/>
<path d="M40.5626 25.9082C41.9203 25.9082 43.0209 24.2852 43.0209 22.2832C43.0209 20.2812 41.9203 18.6582 40.5626 18.6582C39.2049 18.6582 38.1042 20.2812 38.1042 22.2832C38.1042 24.2852 39.2049 25.9082 40.5626 25.9082Z" fill="#141E21"/>
<path d="M18.4376 25.9082C19.7953 25.9082 20.8959 24.2852 20.8959 22.2832C20.8959 20.2812 19.7953 18.6582 18.4376 18.6582C17.0799 18.6582 15.9792 20.2812 15.9792 22.2832C15.9792 24.2852 17.0799 25.9082 18.4376 25.9082Z" fill="#141E21"/>
<path d="M41.7917 22.2829C42.4705 22.2829 43.0208 21.7419 43.0208 21.0745C43.0208 20.4072 42.4705 19.8662 41.7917 19.8662C41.1128 19.8662 40.5625 20.4072 40.5625 21.0745C40.5625 21.7419 41.1128 22.2829 41.7917 22.2829Z" fill="white"/>
<path d="M19.6667 22.2829C20.3455 22.2829 20.8958 21.7419 20.8958 21.0745C20.8958 20.4072 20.3455 19.8662 19.6667 19.8662C18.9878 19.8662 18.4375 20.4072 18.4375 21.0745C18.4375 21.7419 18.9878 22.2829 19.6667 22.2829Z" fill="white"/>
<path d="M29.5001 47.6576C20.0109 47.6576 12.2917 40.6106 12.2917 31.9492H14.7501C14.7501 39.2778 21.3667 45.2409 29.5001 45.2409C37.6335 45.2409 44.2501 39.2778 44.2501 31.9492H46.7084C46.7084 40.6106 38.9893 47.6576 29.5001 47.6576Z" fill="#273941"/>
<path d="M29.5001 5.36602C44.4345 5.36602 56.5418 15.6453 56.5418 28.3244H57.7402C57.4014 21.1856 54.2781 14.4495 49.0191 9.51532C43.7602 4.58114 36.7699 1.82812 29.5001 1.82812C22.2304 1.82812 15.24 4.58114 9.98108 9.51532C4.72215 14.4495 1.59887 21.1856 1.26001 28.3244H2.45845C2.45845 15.6453 14.5657 5.36602 29.5001 5.36602Z" fill="white" fill-opacity="0.35"/>
<path d="M56.5418 28.3242C56.5418 41.0033 44.4345 51.2826 29.5001 51.2826C14.5657 51.2826 2.45841 41.0033 2.45841 28.3242H1.25998C1.24277 28.7254 1.22925 29.1278 1.22925 29.5326C1.22925 36.9034 4.20777 43.9723 9.50958 49.1842C14.8114 54.3962 22.0022 57.3242 29.5001 57.3242C36.998 57.3242 44.1888 54.3962 49.4906 49.1842C54.7924 43.9723 57.7709 36.9034 57.7709 29.5326C57.7709 29.1278 57.7574 28.7254 57.7402 28.3242H56.5418Z" fill="black" fill-opacity="0.04"/>
<path d="M46.4775 12.3887C46.8734 11.9993 46.7474 11.2446 46.1961 10.7031C45.6449 10.1615 44.8771 10.0382 44.4812 10.4277C44.0853 10.8171 44.2113 11.5718 44.7625 12.1133C45.3138 12.6549 46.0816 12.7782 46.4775 12.3887Z" fill="white"/>
<path d="M38.2908 6.45956C38.489 6.26461 38.4262 5.88707 38.1506 5.6163C37.8749 5.34553 37.4909 5.28408 37.2927 5.47903C37.0945 5.67399 37.1573 6.05153 37.4329 6.3223C37.7085 6.59306 38.0926 6.65452 38.2908 6.45956Z" fill="white"/>
<path d="M43.789 10.953C44.5807 10.1741 44.3284 8.66434 43.2254 7.5808C42.1224 6.49726 40.5864 6.25029 39.7947 7.02917C39.0029 7.80805 39.2552 9.31783 40.3582 10.4014C41.4612 11.4849 42.9972 11.7319 43.789 10.953Z" fill="white"/>
</svg>
