<svg width="24" height="25" viewBox="0 0 24 25" fill="none" xmlns="http://www.w3.org/2000/svg">
<g id="vuesax/outline/add">
<g id="vuesax/outline/add_2">
<g id="add">
<path id="Vector" d="M15.7123 17.1085L7.22699 8.62322C6.93708 8.3333 6.93708 7.85247 7.22699 7.56256C7.51691 7.27264 7.99774 7.27264 8.28765 7.56256L16.7729 16.0478C17.0628 16.3378 17.0628 16.8186 16.7729 17.1085C16.483 17.3984 16.0022 17.3984 15.7123 17.1085Z" fill="#292D32"/>
<path id="Vector_2" d="M7.22706 17.1085C6.93715 16.8186 6.93715 16.3378 7.22706 16.0478L15.7123 7.56256C16.0023 7.27264 16.4831 7.27264 16.773 7.56256C17.0629 7.85247 17.0629 8.3333 16.773 8.62322L8.28772 17.1085C7.99781 17.3984 7.51698 17.3984 7.22706 17.1085Z" fill="#292D32"/>
</g>
</g>
</g>
</svg>
