<svg xmlns="http://www.w3.org/2000/svg" width="24" height="25" viewBox="0 0 24 25" fill="none">
  <path d="M15 23.0166H9C3.57 23.0166 1.25 20.6966 1.25 15.2666V9.2666C1.25 3.8366 3.57 1.5166 9 1.5166H15C20.43 1.5166 22.75 3.8366 22.75 9.2666V15.2666C22.75 20.6966 20.43 23.0166 15 23.0166ZM9 3.0166C4.39 3.0166 2.75 4.6566 2.75 9.2666V15.2666C2.75 19.8766 4.39 21.5166 9 21.5166H15C19.61 21.5166 21.25 19.8766 21.25 15.2666V9.2666C21.25 4.6566 19.61 3.0166 15 3.0166H9Z" fill="#213931"/>
  <path d="M10.7399 16.5468C10.5499 16.5468 10.3599 16.4768 10.2099 16.3268C9.91993 16.0368 9.91993 15.5568 10.2099 15.2668L13.2099 12.2668L10.2099 9.26676C9.91993 8.97676 9.91993 8.49676 10.2099 8.20676C10.4999 7.91676 10.9799 7.91676 11.2699 8.20676L14.7999 11.7368C15.0899 12.0268 15.0899 12.5068 14.7999 12.7968L11.2699 16.3268C11.1199 16.4768 10.9299 16.5468 10.7399 16.5468Z" fill="#213931"/>
</svg>