<svg xmlns="http://www.w3.org/2000/svg" width="23" height="23" viewBox="0 0 23 23" fill="none">
  <path d="M7.98242 5.40918C7.60659 5.40918 7.29492 5.09751 7.29492 4.72168V1.97168C7.29492 1.59585 7.60659 1.28418 7.98242 1.28418C8.35825 1.28418 8.66992 1.59585 8.66992 1.97168V4.72168C8.66992 5.09751 8.35825 5.40918 7.98242 5.40918Z" fill="black"/>
  <path d="M15.3157 5.40918C14.9398 5.40918 14.6282 5.09751 14.6282 4.72168V1.97168C14.6282 1.59585 14.9398 1.28418 15.3157 1.28418C15.6915 1.28418 16.0032 1.59585 16.0032 1.97168V4.72168C16.0032 5.09751 15.6915 5.40918 15.3157 5.40918Z" fill="black"/>
  <path d="M19.4408 9.1582H3.85742C3.48159 9.1582 3.16992 8.84654 3.16992 8.4707C3.16992 8.09487 3.48159 7.7832 3.85742 7.7832H19.4408C19.8166 7.7832 20.1283 8.09487 20.1283 8.4707C20.1283 8.84654 19.8166 9.1582 19.4408 9.1582Z" fill="black"/>
  <path d="M15.3157 20.9925H7.98238C4.63655 20.9925 2.71155 19.0675 2.71155 15.7217V7.93001C2.71155 4.58418 4.63655 2.65918 7.98238 2.65918H15.3157C18.6615 2.65918 20.5865 4.58418 20.5865 7.93001V15.7217C20.5865 19.0675 18.6615 20.9925 15.3157 20.9925ZM7.98238 4.03418C5.36071 4.03418 4.08655 5.30835 4.08655 7.93001V15.7217C4.08655 18.3433 5.36071 19.6175 7.98238 19.6175H15.3157C17.9374 19.6175 19.2115 18.3433 19.2115 15.7217V7.93001C19.2115 5.30835 17.9374 4.03418 15.3157 4.03418H7.98238Z" fill="black"/>
</svg>