<svg xmlns="http://www.w3.org/2000/svg" width="12" height="13" viewBox="0 0 12 13" fill="none">
  <path d="M8.37511 2.72629V1.94629C8.37511 1.74129 8.20511 1.57129 8.00011 1.57129C7.79511 1.57129 7.62511 1.74129 7.62511 1.94629V2.69629H4.37511V1.94629C4.37511 1.74129 4.20511 1.57129 4.00011 1.57129C3.79511 1.57129 3.62511 1.74129 3.62511 1.94629V2.72629C2.27511 2.85129 1.62011 3.65629 1.52011 4.85129C1.51011 4.99629 1.63011 5.11629 1.77011 5.11629H10.2301C10.3751 5.11629 10.4951 4.99129 10.4801 4.85129C10.3801 3.65629 9.72511 2.85129 8.37511 2.72629Z" fill="#949494"/>
  <path d="M10 5.86621H2C1.725 5.86621 1.5 6.09121 1.5 6.36621V9.44621C1.5 10.9462 2.25 11.9462 4 11.9462H8C9.75 11.9462 10.5 10.9462 10.5 9.44621V6.36621C10.5 6.09121 10.275 5.86621 10 5.86621ZM4.605 10.0512C4.555 10.0962 4.5 10.1312 4.44 10.1562C4.38 10.1812 4.315 10.1962 4.25 10.1962C4.185 10.1962 4.12 10.1812 4.06 10.1562C4 10.1312 3.945 10.0962 3.895 10.0512C3.805 9.95621 3.75 9.82621 3.75 9.69621C3.75 9.56621 3.805 9.43621 3.895 9.34121C3.945 9.29621 4 9.26121 4.06 9.23621C4.18 9.18621 4.32 9.18621 4.44 9.23621C4.5 9.26121 4.555 9.29621 4.605 9.34121C4.695 9.43621 4.75 9.56621 4.75 9.69621C4.75 9.82621 4.695 9.95621 4.605 10.0512ZM4.71 8.13621C4.685 8.19621 4.65 8.25121 4.605 8.30121C4.555 8.34621 4.5 8.38121 4.44 8.40621C4.38 8.43121 4.315 8.44621 4.25 8.44621C4.185 8.44621 4.12 8.43121 4.06 8.40621C4 8.38121 3.945 8.34621 3.895 8.30121C3.85 8.25121 3.815 8.19621 3.79 8.13621C3.765 8.07621 3.75 8.01121 3.75 7.94621C3.75 7.88121 3.765 7.81621 3.79 7.75621C3.815 7.69621 3.85 7.64121 3.895 7.59121C3.945 7.54621 4 7.51121 4.06 7.48621C4.18 7.43621 4.32 7.43621 4.44 7.48621C4.5 7.51121 4.555 7.54621 4.605 7.59121C4.65 7.64121 4.685 7.69621 4.71 7.75621C4.735 7.81621 4.75 7.88121 4.75 7.94621C4.75 8.01121 4.735 8.07621 4.71 8.13621ZM6.355 8.30121C6.305 8.34621 6.25 8.38121 6.19 8.40621C6.13 8.43121 6.065 8.44621 6 8.44621C5.935 8.44621 5.87 8.43121 5.81 8.40621C5.75 8.38121 5.695 8.34621 5.645 8.30121C5.555 8.20621 5.5 8.07621 5.5 7.94621C5.5 7.81621 5.555 7.68621 5.645 7.59121C5.695 7.54621 5.75 7.51121 5.81 7.48621C5.93 7.43121 6.07 7.43121 6.19 7.48621C6.25 7.51121 6.305 7.54621 6.355 7.59121C6.445 7.68621 6.5 7.81621 6.5 7.94621C6.5 8.07621 6.445 8.20621 6.355 8.30121Z" fill="#949494"/>
</svg>