<svg xmlns="http://www.w3.org/2000/svg" width="23" height="23" viewBox="0 0 23 23" fill="none">
  <path d="M7.83325 6.04785C7.45742 6.04785 7.14575 5.73619 7.14575 5.36035V2.61035C7.14575 2.23452 7.45742 1.92285 7.83325 1.92285C8.20908 1.92285 8.52075 2.23452 8.52075 2.61035V5.36035C8.52075 5.73619 8.20908 6.04785 7.83325 6.04785Z" fill="#0C272D"/>
  <path d="M15.1667 6.04785C14.7909 6.04785 14.4792 5.73619 14.4792 5.36035V2.61035C14.4792 2.23452 14.7909 1.92285 15.1667 1.92285C15.5426 1.92285 15.8542 2.23452 15.8542 2.61035V5.36035C15.8542 5.73619 15.5426 6.04785 15.1667 6.04785Z" fill="#0C272D"/>
  <path d="M19.2916 9.79688H3.70825C3.33242 9.79688 3.02075 9.48521 3.02075 9.10938C3.02075 8.73354 3.33242 8.42188 3.70825 8.42188H19.2916C19.6674 8.42188 19.9791 8.73354 19.9791 9.10938C19.9791 9.48521 19.6674 9.79688 19.2916 9.79688Z" fill="#0C272D"/>
  <path d="M15.1667 21.6312H7.83333C4.4875 21.6312 2.5625 19.7062 2.5625 16.3604V8.56868C2.5625 5.22285 4.4875 3.29785 7.83333 3.29785H15.1667C18.5125 3.29785 20.4375 5.22285 20.4375 8.56868V16.3604C20.4375 19.7062 18.5125 21.6312 15.1667 21.6312ZM7.83333 4.67285C5.21167 4.67285 3.9375 5.94702 3.9375 8.56868V16.3604C3.9375 18.982 5.21167 20.2562 7.83333 20.2562H15.1667C17.7883 20.2562 19.0625 18.982 19.0625 16.3604V8.56868C19.0625 5.94702 17.7883 4.67285 15.1667 4.67285H7.83333Z" fill="#0C272D"/>
</svg>