<svg xmlns="http://www.w3.org/2000/svg" width="24" height="25" viewBox="0 0 24 25" fill="none">
  <path d="M22 13.7773V9.77734C22 4.77734 20 2.77734 15 2.77734H9C4 2.77734 2 4.77734 2 9.77734V15.7773C2 20.7773 4 22.7773 9 22.7773H13" stroke="white" stroke-width="1.5" stroke-linecap="round" stroke-linejoin="round"/>
  <path d="M22 13.7773V9.77734C22 4.77734 20 2.77734 15 2.77734H9C4 2.77734 2 4.77734 2 9.77734V15.7773C2 20.7773 4 22.7773 9 22.7773H13" stroke="white" stroke-width="1.5" stroke-linecap="round" stroke-linejoin="round"/>
  <path d="M22 13.7773V9.77734C22 4.77734 20 2.77734 15 2.77734H9C4 2.77734 2 4.77734 2 9.77734V15.7773C2 20.7773 4 22.7773 9 22.7773H13" stroke="white" stroke-width="1.5" stroke-linecap="round" stroke-linejoin="round"/>
  <path d="M16 20.2073L17.58 21.7773L21 17.7773" stroke="white" stroke-width="1.5" stroke-linecap="round" stroke-linejoin="round"/>
  <path d="M7 11.2773V14.2773" stroke="white" stroke-width="1.5" stroke-linecap="round" stroke-linejoin="round"/>
  <path d="M12 11.2773V14.2773" stroke="white" stroke-width="1.5" stroke-linecap="round" stroke-linejoin="round"/>
  <path d="M17 11.2773V14.2773" stroke="white" stroke-width="1.5" stroke-linecap="round" stroke-linejoin="round"/>
</svg>