<svg xmlns="http://www.w3.org/2000/svg" width="12" height="13" viewBox="0 0 12 13" fill="none">
  <path d="M6 1.13867C3.245 1.13867 1 3.38367 1 6.13867C1 8.89367 3.245 11.1387 6 11.1387C8.755 11.1387 11 8.89367 11 6.13867C11 3.38367 8.755 1.13867 6 1.13867ZM8.39 4.98867L5.555 7.82367C5.485 7.89367 5.39 7.93367 5.29 7.93367C5.19 7.93367 5.095 7.89367 5.025 7.82367L3.61 6.40867C3.465 6.26367 3.465 6.02367 3.61 5.87867C3.755 5.73367 3.995 5.73367 4.14 5.87867L5.29 7.02867L7.86 4.45867C8.005 4.31367 8.245 4.31367 8.39 4.45867C8.535 4.60367 8.535 4.83867 8.39 4.98867Z" fill="#36CB72"/>
</svg>