<svg xmlns="http://www.w3.org/2000/svg" width="24" height="25" viewBox="0 0 24 25" fill="none">
  <path d="M12 22.2006C11.7 22.2006 11.4 22.1306 11.15 21.9906C9.28 20.9706 5.99 19.8906 3.93 19.6206L3.64 19.5806C2.33 19.4206 1.25 18.1906 1.25 16.8606V4.78061C1.25 3.99061 1.56 3.27061 2.13 2.75061C2.7 2.23061 3.44 1.98061 4.22 2.05061C6.42 2.22061 9.74 3.32061 11.62 4.50061L11.86 4.64061C11.93 4.68061 12.08 4.68061 12.14 4.65061L12.3 4.55061C14.18 3.37061 17.5 2.25061 19.71 2.06061C19.73 2.06061 19.81 2.06061 19.83 2.06061C20.56 1.99061 21.31 2.25061 21.87 2.77061C22.44 3.29061 22.75 4.01061 22.75 4.80061V16.8706C22.75 18.2106 21.67 19.4306 20.35 19.5906L20.02 19.6306C17.96 19.9006 14.66 20.9906 12.83 22.0006C12.59 22.1406 12.3 22.2006 12 22.2006ZM3.98 3.54061C3.66 3.54061 3.37 3.65061 3.14 3.86061C2.89 4.09061 2.75 4.42061 2.75 4.78061V16.8606C2.75 17.4506 3.26 18.0206 3.83 18.1006L4.13 18.1406C6.38 18.4406 9.83 19.5706 11.83 20.6606C11.92 20.7006 12.05 20.7106 12.1 20.6906C14.1 19.5806 17.57 18.4406 19.83 18.1406L20.17 18.1006C20.74 18.0306 21.25 17.4506 21.25 16.8606V4.79061C21.25 4.42061 21.11 4.10061 20.86 3.86061C20.6 3.63061 20.27 3.52061 19.9 3.54061C19.88 3.54061 19.8 3.54061 19.78 3.54061C17.87 3.71061 14.79 4.74061 13.11 5.79061L12.95 5.90061C12.4 6.24061 11.62 6.24061 11.09 5.91061L10.85 5.77061C9.14 4.72061 6.06 3.70061 4.1 3.54061C4.06 3.54061 4.02 3.54061 3.98 3.54061Z" fill="#AA5110"/>
  <path d="M12 21.3608C11.59 21.3608 11.25 21.0208 11.25 20.6108V5.61084C11.25 5.20084 11.59 4.86084 12 4.86084C12.41 4.86084 12.75 5.20084 12.75 5.61084V20.6108C12.75 21.0308 12.41 21.3608 12 21.3608Z" fill="#AA5110"/>
  <path d="M7.75 9.36084H5.5C5.09 9.36084 4.75 9.02084 4.75 8.61084C4.75 8.20084 5.09 7.86084 5.5 7.86084H7.75C8.16 7.86084 8.5 8.20084 8.5 8.61084C8.5 9.02084 8.16 9.36084 7.75 9.36084Z" fill="#AA5110"/>
  <path d="M8.5 12.3608H5.5C5.09 12.3608 4.75 12.0208 4.75 11.6108C4.75 11.2008 5.09 10.8608 5.5 10.8608H8.5C8.91 10.8608 9.25 11.2008 9.25 11.6108C9.25 12.0208 8.91 12.3608 8.5 12.3608Z" fill="#AA5110"/>
</svg>