<svg xmlns="http://www.w3.org/2000/svg" width="25" height="25" viewBox="0 0 25 25" fill="none">
  <path d="M16.2123 16.7726L7.72699 8.28728C7.43708 7.99737 7.43708 7.51653 7.72699 7.22662C8.01691 6.93671 8.49774 6.93671 8.78765 7.22662L17.2729 15.7119C17.5628 16.0018 17.5628 16.4826 17.2729 16.7726C16.983 17.0625 16.5022 17.0625 16.2123 16.7726Z" fill="#292D32"/>
  <path d="M7.72706 16.7726C7.43715 16.4826 7.43715 16.0018 7.72706 15.7119L16.2123 7.22662C16.5023 6.93671 16.9831 6.93671 17.273 7.22662C17.5629 7.51653 17.5629 7.99737 17.273 8.28728L8.78772 16.7726C8.49781 17.0625 8.01698 17.0625 7.72706 16.7726Z" fill="#292D32"/>
</svg>