<svg xmlns="http://www.w3.org/2000/svg" width="25" height="25" viewBox="0 0 25 25" fill="none">
  <path d="M10.263 15.53C10.073 15.53 9.88295 15.46 9.73295 15.31C8.91295 14.49 8.46295 13.4 8.46295 12.25C8.46295 9.86004 10.403 7.92004 12.793 7.92004C13.943 7.92004 15.033 8.37004 15.853 9.19004C15.993 9.33004 16.073 9.52004 16.073 9.72004C16.073 9.92004 15.993 10.11 15.853 10.25L10.793 15.31C10.643 15.46 10.453 15.53 10.263 15.53ZM12.793 9.42004C11.233 9.42004 9.96295 10.69 9.96295 12.25C9.96295 12.75 10.093 13.23 10.333 13.65L14.193 9.79004C13.773 9.55004 13.293 9.42004 12.793 9.42004Z" fill="#292D32"/>
  <path d="M6.393 18.76C6.223 18.76 6.043 18.7 5.903 18.58C4.833 17.67 3.873 16.55 3.053 15.25C1.993 13.6 1.993 10.91 3.053 9.24998C5.493 5.42998 9.043 3.22998 12.793 3.22998C14.993 3.22998 17.163 3.98998 19.063 5.41998C19.393 5.66998 19.463 6.13998 19.213 6.46998C18.963 6.79998 18.493 6.86998 18.163 6.61998C16.523 5.37998 14.663 4.72998 12.793 4.72998C9.563 4.72998 6.473 6.66998 4.313 10.06C3.563 11.23 3.563 13.27 4.313 14.44C5.063 15.61 5.923 16.62 6.873 17.44C7.183 17.71 7.223 18.18 6.953 18.5C6.813 18.67 6.603 18.76 6.393 18.76Z" fill="#292D32"/>
  <path d="M12.793 21.27C11.463 21.27 10.163 21 8.91297 20.47C8.53297 20.31 8.35297 19.87 8.51297 19.49C8.67297 19.11 9.11297 18.93 9.49297 19.09C10.553 19.54 11.663 19.77 12.783 19.77C16.013 19.77 19.103 17.83 21.263 14.44C22.013 13.27 22.013 11.23 21.263 10.06C20.953 9.57 20.613 9.1 20.253 8.66C19.993 8.34 20.043 7.87 20.363 7.6C20.683 7.34 21.153 7.38 21.423 7.71C21.813 8.19 22.193 8.71 22.533 9.25C23.593 10.9 23.593 13.59 22.533 15.25C20.093 19.07 16.543 21.27 12.793 21.27Z" fill="#292D32"/>
  <path d="M13.483 16.52C13.133 16.52 12.813 16.27 12.743 15.91C12.663 15.5 12.933 15.11 13.343 15.04C14.443 14.84 15.363 13.92 15.563 12.82C15.643 12.41 16.033 12.15 16.443 12.22C16.853 12.3 17.123 12.69 17.043 13.1C16.723 14.83 15.343 16.2 13.623 16.52C13.573 16.51 13.533 16.52 13.483 16.52Z" fill="#292D32"/>
  <path d="M2.79297 23C2.60297 23 2.41297 22.93 2.26297 22.78C1.97297 22.49 1.97297 22.01 2.26297 21.72L9.73297 14.25C10.023 13.96 10.503 13.96 10.793 14.25C11.083 14.54 11.083 15.02 10.793 15.31L3.32297 22.78C3.17297 22.93 2.98297 23 2.79297 23Z" fill="#292D32"/>
  <path d="M15.3229 10.4699C15.1329 10.4699 14.9429 10.3999 14.7929 10.2499C14.5029 9.95994 14.5029 9.47994 14.7929 9.18994L22.2629 1.71994C22.5529 1.42994 23.0329 1.42994 23.3229 1.71994C23.6129 2.00994 23.6129 2.48994 23.3229 2.77994L15.8529 10.2499C15.7029 10.3999 15.5129 10.4699 15.3229 10.4699Z" fill="#292D32"/>
</svg>