<svg xmlns="http://www.w3.org/2000/svg" width="25" height="24" viewBox="0 0 25 24" fill="none">
  <path d="M16.3729 12C16.3729 13.98 14.7729 15.58 12.7929 15.58C10.8129 15.58 9.21289 13.98 9.21289 12C9.21289 10.02 10.8129 8.42004 12.7929 8.42004C14.7729 8.42004 16.3729 10.02 16.3729 12Z" stroke="#292D32" stroke-width="1.5" stroke-linecap="round" stroke-linejoin="round"/>
  <path d="M12.7931 20.27C16.3231 20.27 19.6131 18.19 21.9031 14.59C22.8031 13.18 22.8031 10.81 21.9031 9.39997C19.6131 5.79997 16.3231 3.71997 12.7931 3.71997C9.26306 3.71997 5.97306 5.79997 3.68306 9.39997C2.78306 10.81 2.78306 13.18 3.68306 14.59C5.97306 18.19 9.26306 20.27 12.7931 20.27Z" stroke="#292D32" stroke-width="1.5" stroke-linecap="round" stroke-linejoin="round"/>
</svg>