<svg xmlns="http://www.w3.org/2000/svg" width="21" height="19" viewBox="0 0 22 20" fill="none">
  <path d="M11 19.7707C10.69 19.7707 10.39 19.7307 10.14 19.6407C6.32 18.3307 0.25 13.6807 0.25 6.8107C0.25 3.3107 3.08 0.470703 6.56 0.470703C8.25 0.470703 9.83 1.1307 11 2.3107C12.17 1.1307 13.75 0.470703 15.44 0.470703C18.92 0.470703 21.75 3.3207 21.75 6.8107C21.75 13.6907 15.68 18.3307 11.86 19.6407C11.61 19.7307 11.31 19.7707 11 19.7707ZM6.56 1.9707C3.91 1.9707 1.75 4.1407 1.75 6.8107C1.75 13.6407 8.32 17.4407 10.63 18.2307C10.81 18.2907 11.2 18.2907 11.38 18.2307C13.68 17.4407 20.26 13.6507 20.26 6.8107C20.26 4.1407 18.1 1.9707 15.45 1.9707C13.93 1.9707 12.52 2.6807 11.61 3.9107C11.33 4.2907 10.69 4.2907 10.41 3.9107C9.48 2.6707 8.08 1.9707 6.56 1.9707Z" fill="#E33F49"/>
</svg>