<svg xmlns="http://www.w3.org/2000/svg" width="25" height="25" viewBox="0 0 25 25" fill="none">
  <path d="M8.5 23.0785C4.78 23.0785 1.75 20.0485 1.75 16.3285C1.75 13.2885 3.79 10.6085 6.72 9.8185C7.09 9.7185 7.47 9.9085 7.61 10.2685C8.22 11.7985 9.52 12.9685 11.11 13.3985C11.99 13.6385 13.01 13.6385 13.87 13.3985C14.24 13.2985 14.63 13.4885 14.77 13.8485C15.08 14.6385 15.24 15.4785 15.24 16.3385C15.24 18.2585 14.42 20.0885 12.99 21.3585C11.77 22.4585 10.17 23.0785 8.5 23.0785ZM6.52 11.4585C4.57 12.2585 3.25 14.1785 3.25 16.3285C3.25 19.2185 5.61 21.5785 8.5 21.5785C9.8 21.5785 11.04 21.0985 12 20.2285C13.12 19.2385 13.75 17.8185 13.75 16.3285C13.75 15.8685 13.69 15.4285 13.58 14.9985C12.64 15.1485 11.62 15.0985 10.72 14.8485C8.91 14.3485 7.39 13.1085 6.52 11.4585Z" fill="#39291A"/>
  <path d="M12.5 15.0781C11.88 15.0781 11.28 14.9981 10.72 14.8381C8.69 14.2781 7 12.7781 6.22 10.8081C5.91 10.0281 5.75 9.18813 5.75 8.32812C5.75 4.60812 8.78 1.57812 12.5 1.57812C16.22 1.57812 19.25 4.60812 19.25 8.32812C19.25 9.18813 19.09 10.0281 18.78 10.8181C18 12.7781 16.32 14.2881 14.28 14.8481C13.72 14.9981 13.12 15.0781 12.5 15.0781ZM12.5 3.07812C9.61 3.07812 7.25 5.43812 7.25 8.32812C7.25 8.99813 7.37 9.64813 7.62 10.2581C8.23 11.7881 9.53 12.9581 11.12 13.3881C12 13.6281 13.02 13.6281 13.88 13.3881C15.47 12.9581 16.78 11.7781 17.38 10.2581C17.62 9.64813 17.75 8.99813 17.75 8.32812C17.75 5.43812 15.39 3.07812 12.5 3.07812Z" fill="#39291A"/>
  <path d="M16.5 23.0779C14.83 23.0779 13.23 22.4579 12 21.3479C11.84 21.2079 11.75 20.9979 11.75 20.7879C11.75 20.5779 11.84 20.3679 12 20.2279C13.11 19.2479 13.75 17.8279 13.75 16.3279C13.75 15.6579 13.63 15.0079 13.38 14.3979C13.3 14.1979 13.31 13.9779 13.41 13.7879C13.51 13.5979 13.68 13.4579 13.88 13.3979C15.47 12.9679 16.77 11.7979 17.38 10.2679C17.52 9.90786 17.91 9.72786 18.27 9.81786C21.2 10.6179 23.24 13.2879 23.24 16.3279C23.25 20.0479 20.22 23.0779 16.5 23.0779ZM13.62 20.7179C14.47 21.2779 15.46 21.5779 16.5 21.5779C19.39 21.5779 21.75 19.2179 21.75 16.3279C21.75 14.1779 20.43 12.2579 18.48 11.4579C17.74 12.8679 16.5 13.9879 15.02 14.5879C15.17 15.1479 15.25 15.7379 15.25 16.3279C15.25 17.9479 14.67 19.5079 13.62 20.7179Z" fill="#39291A"/>
</svg>