<svg xmlns="http://www.w3.org/2000/svg" width="25" height="25" viewBox="0 0 25 25" fill="none">
  <path d="M17.5 23.0781H7.5C3.09 23.0781 1.75 21.7381 1.75 17.3281V7.32812C1.75 2.91813 3.09 1.57812 7.5 1.57812H9C10.75 1.57812 11.3 2.14812 12 3.07812L13.5 5.07812C13.83 5.51813 13.88 5.57812 14.5 5.57812H17.5C21.91 5.57812 23.25 6.91813 23.25 11.3281V17.3281C23.25 21.7381 21.91 23.0781 17.5 23.0781ZM7.5 3.07812C3.93 3.07812 3.25 3.75813 3.25 7.32812V17.3281C3.25 20.8981 3.93 21.5781 7.5 21.5781H17.5C21.07 21.5781 21.75 20.8981 21.75 17.3281V11.3281C21.75 7.75813 21.07 7.07812 17.5 7.07812H14.5C13.22 7.07812 12.8 6.63812 12.3 5.97813L10.8 3.97813C10.28 3.28813 10.13 3.07812 9 3.07812H7.5Z" fill="#292D32"/>
</svg>