<svg xmlns="http://www.w3.org/2000/svg" width="18" height="19" viewBox="0 0 18 19" fill="none">
  <path d="M9.24728 16.8327C8.42979 16.8327 7.61229 16.5252 6.98979 15.9027C5.74478 14.6577 5.74478 12.6402 6.98979 11.3952L8.84979 9.54266C9.06729 9.32516 9.42728 9.32516 9.64478 9.54266C9.86228 9.76016 9.86228 10.1202 9.64478 10.3377L7.78479 12.1902C6.98229 12.9927 6.98229 14.3052 7.78479 15.1077C8.58729 15.9102 9.89979 15.9102 10.7023 15.1077L13.6198 12.1902C14.5048 11.3052 14.9923 10.1277 14.9923 8.87516C14.9923 7.62266 14.5048 6.44516 13.6198 5.56016C11.7898 3.73016 8.81979 3.73016 6.98979 5.56016L3.80979 8.74016C3.06729 9.48266 2.65479 10.4727 2.65479 11.5227C2.65479 12.5727 3.06729 13.5627 3.80979 14.3052C4.02729 14.5227 4.02729 14.8827 3.80979 15.1002C3.59229 15.3177 3.23229 15.3177 3.01479 15.1002C2.06229 14.1402 1.52979 12.8727 1.52979 11.5227C1.52979 10.1727 2.05479 8.89766 3.01479 7.94516L6.19479 4.76516C8.45979 2.50016 12.1498 2.50016 14.4148 4.76516C15.5098 5.86016 16.1173 7.32266 16.1173 8.87516C16.1173 10.4277 15.5098 11.8902 14.4148 12.9852L11.4973 15.9027C10.8748 16.5252 10.0648 16.8327 9.24728 16.8327Z" fill="black"/>
</svg>