<svg xmlns="http://www.w3.org/2000/svg" width="24" height="25" viewBox="0 0 24 25" fill="none">
  <path d="M15.24 22.3906H15.11C10.67 22.3906 8.53002 20.6406 8.16002 16.7206C8.12002 16.3106 8.42002 15.9406 8.84002 15.9006C9.24002 15.8606 9.62002 16.1706 9.66002 16.5806C9.95002 19.7206 11.43 20.8906 15.12 20.8906H15.25C19.32 20.8906 20.76 19.4506 20.76 15.3806V8.86059C20.76 4.79059 19.32 3.35059 15.25 3.35059H15.12C11.41 3.35059 9.93002 4.54059 9.66002 7.74059C9.61002 8.15059 9.26002 8.46059 8.84002 8.42059C8.42002 8.39059 8.12001 8.02059 8.15001 7.61059C8.49001 3.63059 10.64 1.85059 15.11 1.85059H15.24C20.15 1.85059 22.25 3.95059 22.25 8.86059V15.3806C22.25 20.2906 20.15 22.3906 15.24 22.3906Z" fill="#E33030"/>
  <path d="M15.0001 12.8706H3.62012C3.21012 12.8706 2.87012 12.5306 2.87012 12.1206C2.87012 11.7106 3.21012 11.3706 3.62012 11.3706H15.0001C15.4101 11.3706 15.7501 11.7106 15.7501 12.1206C15.7501 12.5306 15.4101 12.8706 15.0001 12.8706Z" fill="#E33030"/>
  <path d="M5.84994 16.2204C5.65994 16.2204 5.46994 16.1504 5.31994 16.0004L1.96994 12.6504C1.67994 12.3604 1.67994 11.8804 1.96994 11.5904L5.31994 8.24045C5.60994 7.95045 6.08994 7.95045 6.37994 8.24045C6.66994 8.53045 6.66994 9.01045 6.37994 9.30045L3.55994 12.1204L6.37994 14.9404C6.66994 15.2304 6.66994 15.7104 6.37994 16.0004C6.23994 16.1504 6.03994 16.2204 5.84994 16.2204Z" fill="#E33030"/>
</svg>