<svg xmlns="http://www.w3.org/2000/svg" width="24" height="25" viewBox="0 0 24 25" fill="none">
  <path d="M15.8101 21.1258C15.5501 21.1258 15.2801 21.1158 14.9901 21.0858C14.4701 21.0458 13.8801 20.9458 13.2701 20.7958L11.5901 20.3958C6.98007 19.3058 5.47007 16.8658 6.55007 12.2658L7.53007 8.07582C7.75007 7.12582 8.01007 6.35582 8.33007 5.71582C10.0501 2.16582 13.3401 2.48582 15.6801 3.03582L17.3501 3.42582C19.6901 3.97582 21.1701 4.84582 22.0001 6.17582C22.8201 7.50582 22.9501 9.21582 22.4001 11.5558L21.4201 15.7358C20.5601 19.3958 18.7701 21.1258 15.8101 21.1258ZM13.1201 4.19582C11.4501 4.19582 10.3901 4.88582 9.68007 6.36582C9.42007 6.90582 9.19007 7.57582 8.99007 8.41582L8.01007 12.6058C7.12007 16.3858 8.15007 18.0358 11.9301 18.9358L13.6101 19.3358C14.1501 19.4658 14.6601 19.5458 15.1201 19.5858C17.8401 19.8558 19.1901 18.6658 19.9501 15.3958L20.9301 11.2158C21.3801 9.28582 21.3201 7.93582 20.7201 6.96582C20.1201 5.99582 18.9401 5.33582 17.0001 4.88582L15.3301 4.49582C14.5001 4.29582 13.7601 4.19582 13.1201 4.19582Z" fill="black"/>
  <path d="M8.33005 23.196C5.76005 23.196 4.12005 21.656 3.07005 18.406L1.79005 14.456C0.370052 10.056 1.64005 7.57597 6.02005 6.15597L7.60005 5.64597C8.12005 5.48597 8.51005 5.37597 8.86005 5.31597C9.15005 5.25597 9.43005 5.36597 9.60005 5.59597C9.77005 5.82597 9.80005 6.12597 9.68005 6.38597C9.42005 6.91597 9.19005 7.58597 9.00005 8.42597L8.02005 12.616C7.13005 16.396 8.16005 18.046 11.9401 18.946L13.6201 19.346C14.1601 19.476 14.6701 19.556 15.1301 19.596C15.4501 19.626 15.7101 19.846 15.8001 20.156C15.8801 20.466 15.7601 20.786 15.5001 20.966C14.8401 21.416 14.0101 21.796 12.9601 22.136L11.3801 22.656C10.2301 23.016 9.23005 23.196 8.33005 23.196ZM7.78005 7.16597L6.49005 7.58597C2.92005 8.73597 2.07005 10.416 3.22005 13.996L4.50005 17.946C5.66005 21.516 7.34005 22.376 10.9101 21.226L12.4901 20.706C12.5501 20.686 12.6001 20.666 12.6601 20.646L11.6001 20.396C6.99005 19.306 5.48005 16.866 6.56005 12.266L7.54005 8.07597C7.61005 7.75597 7.69005 7.44597 7.78005 7.16597Z" fill="black"/>
  <path d="M17.4899 11.4561C17.4299 11.4561 17.3699 11.4461 17.2999 11.4361L12.4499 10.2061C12.0499 10.1061 11.8099 9.69607 11.9099 9.29607C12.0099 8.89607 12.4199 8.65607 12.8199 8.75607L17.6699 9.98607C18.0699 10.0861 18.3099 10.4961 18.2099 10.8961C18.1299 11.2261 17.8199 11.4561 17.4899 11.4561Z" fill="black"/>
  <path d="M14.5601 14.8362C14.5001 14.8362 14.4401 14.8262 14.3701 14.8162L11.4601 14.0762C11.0601 13.9762 10.8201 13.5662 10.9201 13.1662C11.0201 12.7662 11.4301 12.5262 11.8301 12.6262L14.7401 13.3662C15.1401 13.4662 15.3801 13.8762 15.2801 14.2762C15.2001 14.6162 14.9001 14.8362 14.5601 14.8362Z" fill="black"/>
</svg>