<svg xmlns="http://www.w3.org/2000/svg" width="23" height="23" viewBox="0 0 23 23" fill="none">
  <path d="M14.9926 19.2757C14.7542 19.2757 14.5067 19.2665 14.2409 19.239C13.7642 19.2023 13.2234 19.1107 12.6642 18.9732L11.1242 18.6065C6.8984 17.6073 5.51423 15.3707 6.50423 11.154L7.40257 7.31315C7.60423 6.44232 7.84257 5.73648 8.1359 5.14982C9.71257 1.89565 12.7284 2.18898 14.8734 2.69315L16.4042 3.05065C18.5492 3.55482 19.9059 4.35232 20.6667 5.57148C21.4184 6.79065 21.5376 8.35815 21.0334 10.5032L20.1351 14.3348C19.3467 17.6898 17.7059 19.2757 14.9926 19.2757ZM12.5267 3.75648C10.9959 3.75648 10.0242 4.38898 9.3734 5.74565C9.13507 6.24065 8.92423 6.85482 8.7409 7.62482L7.84257 11.4657C7.02673 14.9307 7.9709 16.4432 11.4359 17.2682L12.9759 17.6348C13.4709 17.754 13.9384 17.8273 14.3601 17.864C16.8534 18.1115 18.0909 17.0207 18.7876 14.0232L19.6859 10.1915C20.0984 8.42232 20.0434 7.18482 19.4934 6.29565C18.9434 5.40648 17.8617 4.80148 16.0834 4.38898L14.5526 4.03148C13.7917 3.84815 13.1134 3.75648 12.5267 3.75648Z" fill="#0C272D"/>
  <path d="M8.1358 21.1734C5.77997 21.1734 4.27663 19.7617 3.31413 16.7825L2.1408 13.1617C0.839133 9.12838 2.0033 6.85504 6.0183 5.55338L7.46663 5.08588C7.9433 4.93921 8.3008 4.83838 8.62163 4.78338C8.88747 4.72838 9.14413 4.82921 9.29997 5.04004C9.4558 5.25088 9.4833 5.52588 9.3733 5.76421C9.13497 6.25004 8.92413 6.86421 8.74997 7.63421L7.85163 11.475C7.0358 14.94 7.97997 16.4525 11.445 17.2775L12.985 17.6442C13.48 17.7634 13.9475 17.8367 14.3691 17.8734C14.6625 17.9009 14.9008 18.1025 14.9833 18.3867C15.0566 18.6709 14.9466 18.9642 14.7083 19.1292C14.1033 19.5417 13.3425 19.89 12.38 20.2017L10.9316 20.6784C9.87747 21.0084 8.9608 21.1734 8.1358 21.1734ZM7.63163 6.47921L6.44913 6.86421C3.17663 7.91838 2.39747 9.45838 3.45163 12.74L4.62497 16.3609C5.6883 19.6334 7.2283 20.4217 10.5008 19.3675L11.9491 18.8909C12.0041 18.8725 12.05 18.8542 12.105 18.8359L11.1333 18.6067C6.90747 17.6075 5.5233 15.3709 6.5133 11.1542L7.41163 7.31338C7.4758 7.02004 7.54913 6.73588 7.63163 6.47921Z" fill="#0C272D"/>
  <path d="M16.5325 10.4118C16.4775 10.4118 16.4225 10.4026 16.3583 10.3935L11.9125 9.26596C11.5458 9.17429 11.3258 8.79846 11.4175 8.43179C11.5092 8.06513 11.885 7.84513 12.2517 7.93679L16.6975 9.06429C17.0642 9.15596 17.2842 9.53179 17.1925 9.89846C17.1192 10.201 16.835 10.4118 16.5325 10.4118Z" fill="#0C272D"/>
  <path d="M13.8467 13.5095C13.7917 13.5095 13.7367 13.5003 13.6725 13.4912L11.005 12.8128C10.6384 12.7212 10.4184 12.3453 10.51 11.9787C10.6017 11.612 10.9775 11.392 11.3442 11.4837L14.0117 12.162C14.3784 12.2537 14.5984 12.6295 14.5067 12.9962C14.4334 13.3078 14.1584 13.5095 13.8467 13.5095Z" fill="#0C272D"/>
</svg>