<svg xmlns="http://www.w3.org/2000/svg" width="12" height="13" viewBox="0 0 12 13" fill="none">
  <path d="M6 1.13867C3.245 1.13867 1 3.38367 1 6.13867C1 8.89367 3.245 11.1387 6 11.1387C8.755 11.1387 11 8.89367 11 6.13867C11 3.38367 8.755 1.13867 6 1.13867ZM4 6.63867C3.72 6.63867 3.5 6.41367 3.5 6.13867C3.5 5.86367 3.725 5.63867 4 5.63867C4.275 5.63867 4.5 5.86367 4.5 6.13867C4.5 6.41367 4.28 6.63867 4 6.63867ZM6 6.63867C5.72 6.63867 5.5 6.41367 5.5 6.13867C5.5 5.86367 5.725 5.63867 6 5.63867C6.275 5.63867 6.5 5.86367 6.5 6.13867C6.5 6.41367 6.28 6.63867 6 6.63867ZM8 6.63867C7.72 6.63867 7.5 6.41367 7.5 6.13867C7.5 5.86367 7.725 5.63867 8 5.63867C8.275 5.63867 8.5 5.86367 8.5 6.13867C8.5 6.41367 8.28 6.63867 8 6.63867Z" fill="#2F8FE8"/>
</svg>