<svg xmlns="http://www.w3.org/2000/svg" width="24" height="25" viewBox="0 0 24 25" fill="none">
  <path d="M12 10.4007C10.98 10.4007 9.96 10.2207 8.99 9.87066C8.6 9.73066 8.4 9.30066 8.54 8.91066C8.69 8.52066 9.12 8.32066 9.51 8.46066C11.12 9.04066 12.89 9.04066 14.5 8.46066C14.89 8.32066 15.32 8.52066 15.46 8.91066C15.6 9.30066 15.4 9.73066 15.01 9.87066C14.04 10.2207 13.02 10.4007 12 10.4007Z" fill="#0E8336"/>
  <path d="M19.0701 22.8706C18.5601 22.8706 18.0001 22.7206 17.4601 22.4106L12.5801 19.7006C12.2901 19.5406 11.7201 19.5406 11.4301 19.7006L6.55007 22.4106C5.56007 22.9606 4.55007 23.0206 3.78007 22.5606C3.01007 22.1106 2.57007 21.2006 2.57007 20.0706V5.98061C2.57007 3.44061 4.64007 1.37061 7.18007 1.37061H16.8301C19.3701 1.37061 21.4401 3.44061 21.4401 5.98061V20.0706C21.4401 21.2006 21.0001 22.1106 20.2301 22.5606C19.8801 22.7706 19.4801 22.8706 19.0701 22.8706ZM12.0001 18.0806C12.4701 18.0806 12.9301 18.1806 13.3001 18.3906L18.1801 21.1006C18.6901 21.3906 19.1601 21.4506 19.4601 21.2706C19.7601 21.0906 19.9301 20.6606 19.9301 20.0706V5.98061C19.9301 4.27061 18.5301 2.87061 16.8201 2.87061H7.18007C5.47007 2.87061 4.07007 4.27061 4.07007 5.98061V20.0706C4.07007 20.6606 4.24007 21.1006 4.54007 21.2706C4.84007 21.4406 5.30007 21.3906 5.82007 21.1006L10.7001 18.3906C11.0701 18.1806 11.5301 18.0806 12.0001 18.0806Z" fill="#0E8336"/>
  <path d="M19.0701 22.8706C18.5601 22.8706 18.0001 22.7206 17.4601 22.4106L12.5801 19.7006C12.2901 19.5406 11.7201 19.5406 11.4301 19.7006L6.55007 22.4106C5.56007 22.9606 4.55007 23.0206 3.78007 22.5606C3.01007 22.1106 2.57007 21.2006 2.57007 20.0706V5.98061C2.57007 3.44061 4.64007 1.37061 7.18007 1.37061H16.8301C19.3701 1.37061 21.4401 3.44061 21.4401 5.98061V20.0706C21.4401 21.2006 21.0001 22.1106 20.2301 22.5606C19.8801 22.7706 19.4801 22.8706 19.0701 22.8706ZM12.0001 18.0806C12.4701 18.0806 12.9301 18.1806 13.3001 18.3906L18.1801 21.1006C18.6901 21.3906 19.1601 21.4506 19.4601 21.2706C19.7601 21.0906 19.9301 20.6606 19.9301 20.0706V5.98061C19.9301 4.27061 18.5301 2.87061 16.8201 2.87061H7.18007C5.47007 2.87061 4.07007 4.27061 4.07007 5.98061V20.0706C4.07007 20.6606 4.24007 21.1006 4.54007 21.2706C4.84007 21.4406 5.30007 21.3906 5.82007 21.1006L10.7001 18.3906C11.0701 18.1806 11.5301 18.0806 12.0001 18.0806Z" fill="#0E8336"/>
</svg>