<svg xmlns="http://www.w3.org/2000/svg" width="24" height="25" viewBox="0 0 24 25" fill="none">
  <path d="M12 15.8706C9.93 15.8706 8.25 14.1906 8.25 12.1206C8.25 10.0506 9.93 8.37061 12 8.37061C14.07 8.37061 15.75 10.0506 15.75 12.1206C15.75 14.1906 14.07 15.8706 12 15.8706ZM12 9.87061C10.76 9.87061 9.75 10.8806 9.75 12.1206C9.75 13.3606 10.76 14.3706 12 14.3706C13.24 14.3706 14.25 13.3606 14.25 12.1206C14.25 10.8806 13.24 9.87061 12 9.87061Z" fill="#3A3A3A"/>
  <path d="M15.21 22.3104C15 22.3104 14.79 22.2804 14.58 22.2304C13.96 22.0604 13.44 21.6704 13.11 21.1204L12.99 20.9204C12.4 19.9004 11.59 19.9004 11 20.9204L10.89 21.1104C10.56 21.6704 10.04 22.0704 9.42 22.2304C8.79 22.4004 8.14 22.3104 7.59 21.9804L5.87 20.9904C5.26 20.6404 4.82 20.0704 4.63 19.3804C4.45 18.6904 4.54 17.9804 4.89 17.3704C5.18 16.8604 5.26 16.4004 5.09 16.1104C4.92 15.8204 4.49 15.6504 3.9 15.6504C2.44 15.6504 1.25 14.4604 1.25 13.0004V11.2404C1.25 9.7804 2.44 8.5904 3.9 8.5904C4.49 8.5904 4.92 8.4204 5.09 8.1304C5.26 7.8404 5.19 7.3804 4.89 6.8704C4.54 6.2604 4.45 5.5404 4.63 4.8604C4.81 4.1704 5.25 3.6004 5.87 3.2504L7.6 2.2604C8.73 1.5904 10.22 1.9804 10.9 3.1304L11.02 3.3304C11.61 4.3504 12.42 4.3504 13.01 3.3304L13.12 3.1404C13.8 1.9804 15.29 1.5904 16.43 2.2704L18.15 3.2604C18.76 3.6104 19.2 4.1804 19.39 4.8704C19.57 5.5604 19.48 6.2704 19.13 6.8804C18.84 7.3904 18.76 7.8504 18.93 8.1404C19.1 8.4304 19.53 8.6004 20.12 8.6004C21.58 8.6004 22.77 9.7904 22.77 11.2504V13.0104C22.77 14.4704 21.58 15.6604 20.12 15.6604C19.53 15.6604 19.1 15.8304 18.93 16.1204C18.76 16.4104 18.83 16.8704 19.13 17.3804C19.48 17.9904 19.58 18.7104 19.39 19.3904C19.21 20.0804 18.77 20.6504 18.15 21.0004L16.42 21.9904C16.04 22.2004 15.63 22.3104 15.21 22.3104ZM12 18.6104C12.89 18.6104 13.72 19.1704 14.29 20.1604L14.4 20.3504C14.52 20.5604 14.72 20.7104 14.96 20.7704C15.2 20.8304 15.44 20.8004 15.64 20.6804L17.37 19.6804C17.63 19.5304 17.83 19.2804 17.91 18.9804C17.99 18.6804 17.95 18.3704 17.8 18.1104C17.23 17.1304 17.16 16.1204 17.6 15.3504C18.04 14.5804 18.95 14.1404 20.09 14.1404C20.73 14.1404 21.24 13.6304 21.24 12.9904V11.2304C21.24 10.6004 20.73 10.0804 20.09 10.0804C18.95 10.0804 18.04 9.6404 17.6 8.8704C17.16 8.1004 17.23 7.0904 17.8 6.1104C17.95 5.8504 17.99 5.5404 17.91 5.2404C17.83 4.9404 17.64 4.7004 17.38 4.5404L15.65 3.5504C15.22 3.2904 14.65 3.4404 14.39 3.8804L14.28 4.0704C13.71 5.0604 12.88 5.6204 11.99 5.6204C11.1 5.6204 10.27 5.0604 9.7 4.0704L9.59 3.8704C9.34 3.4504 8.78 3.3004 8.35 3.5504L6.62 4.5504C6.36 4.7004 6.16 4.9504 6.08 5.2504C6 5.5504 6.04 5.8604 6.19 6.1204C6.76 7.1004 6.83 8.1104 6.39 8.8804C5.95 9.6504 5.04 10.0904 3.9 10.0904C3.26 10.0904 2.75 10.6004 2.75 11.2404V13.0004C2.75 13.6304 3.26 14.1504 3.9 14.1504C5.04 14.1504 5.95 14.5904 6.39 15.3604C6.83 16.1304 6.76 17.1404 6.19 18.1204C6.04 18.3804 6 18.6904 6.08 18.9904C6.16 19.2904 6.35 19.5304 6.61 19.6904L8.34 20.6804C8.55 20.8104 8.8 20.8404 9.03 20.7804C9.27 20.7204 9.47 20.5604 9.6 20.3504L9.71 20.1604C10.28 19.1804 11.11 18.6104 12 18.6104Z" fill="#3A3A3A"/>
</svg>