<svg xmlns="http://www.w3.org/2000/svg" width="19" height="18" viewBox="0 0 19 18" fill="none">
  <path d="M7.175 14.3628C6.7025 14.3628 6.26 14.2503 5.87 14.0253C4.9475 13.4928 4.4375 12.4203 4.4375 11.0103V6.99784C4.4375 5.58784 4.9475 4.51534 5.87 3.98284C6.7925 3.45034 7.97 3.54784 9.2 4.25284L12.6725 6.25534C13.895 6.96034 14.57 7.93534 14.57 9.00034C14.57 10.0653 13.895 11.0403 12.6725 11.7453L9.2 13.7478C8.495 14.1603 7.805 14.3628 7.175 14.3628ZM7.175 4.77034C6.8975 4.77034 6.6425 4.83034 6.425 4.95784C5.87 5.28034 5.5625 6.00034 5.5625 6.99784V11.0028C5.5625 11.9928 5.87 12.7203 6.4325 13.0428C6.995 13.3653 7.775 13.2678 8.6375 12.7728L12.11 10.7703C12.9725 10.2753 13.445 9.64534 13.445 9.00034C13.445 8.35534 12.9725 7.72534 12.11 7.23034L8.6375 5.22784C8.105 4.92034 7.61 4.77034 7.175 4.77034Z" fill="white"/>
</svg>